<svg height="512pt" viewBox="0 -4 512 512" width="512pt" xmlns="http://www.w3.org/2000/svg"><path d="m314.5 282.1875h-291.277344c-12.824218 0-23.222656-10.398438-23.222656-23.222656v-235.742188c0-12.824218 10.398438-23.222656 23.222656-23.222656h291.277344c12.824219 0 23.222656 10.398438 23.222656 23.222656v235.742188c0 12.824218-10.398437 23.222656-23.222656 23.222656zm0 0" fill="#d9e0ed"/><path d="m314.5 0h-23.242188v65.617188c0 101.0625-81.929687 182.992187-182.992187 182.992187h-108.265625v10.355469c0 12.824218 10.398438 23.222656 23.222656 23.222656h291.273438c12.828125 0 23.226562-10.398438 23.226562-23.222656v-235.742188c0-12.824218-10.398437-23.222656-23.222656-23.222656zm0 0" fill="#cfd6e5"/><path d="m300.914062 222.03125h-264.105468c-4.265625 0-7.71875-3.457031-7.71875-7.71875s3.457031-7.714844 7.71875-7.714844h264.105468c4.265626 0 7.71875 3.453125 7.71875 7.714844s-3.457031 7.71875-7.71875 7.71875zm0 0" fill="#86a4b7"/><path d="m172.761719 251.902344h-135.953125c-4.265625 0-7.71875-3.453125-7.71875-7.714844s3.457031-7.71875 7.71875-7.71875h135.953125c4.265625 0 7.71875 3.457031 7.71875 7.71875s-3.453125 7.714844-7.71875 7.714844zm0 0" fill="#86a4b7"/><path d="m46.640625 141.535156c-2.066406 0-4.121094-.820312-5.640625-2.445312-2.910156-3.113282-2.746094-8 .367188-10.910156l51.800781-48.4375c2.417969-2.261719 6.007812-2.726563 8.921875-1.164063l50.675781 27.21875 39.882813-48.847656c1.402343-1.714844 3.476562-2.75 5.691406-2.832031 2.210937-.085938 4.363281.796874 5.890625 2.40625l36.773437 38.820312 47.96875-59.476562c2.671875-3.316407 7.53125-3.839844 10.851563-1.164063 3.316406 2.675781 3.835937 7.535156 1.160156 10.851563l-53.507813 66.347656c-1.398437 1.734375-3.472656 2.777344-5.699218 2.867187-2.230469.089844-4.378906-.789062-5.910156-2.402343l-36.8125-38.859376-38.355469 46.976563c-2.335938 2.863281-6.371094 3.667969-9.628907 1.917969l-51.402343-27.605469-47.761719 44.65625c-1.484375 1.390625-3.378906 2.082031-5.265625 2.082031zm0 0" fill="#7885ed"/><g fill="#ffa91e"><path d="m60.777344 133.816406c0 7.808594-6.332032 14.140625-14.140625 14.140625-7.808594 0-14.140625-6.332031-14.140625-14.140625s6.332031-14.136718 14.140625-14.136718c7.808593 0 14.140625 6.328124 14.140625 14.136718zm0 0"/><path d="m112.578125 85.378906c0 7.808594-6.328125 14.136719-14.136719 14.136719s-14.140625-6.328125-14.140625-14.136719 6.332031-14.140625 14.140625-14.140625 14.136719 6.332031 14.136719 14.140625zm0 0"/><path d="m168.859375 115.605469c0 7.808593-6.328125 14.140625-14.136719 14.140625s-14.140625-6.332032-14.140625-14.140625c0-7.808594 6.332031-14.136719 14.140625-14.136719s14.136719 6.328125 14.136719 14.136719zm0 0"/><path d="m212.765625 61.832031c0 7.808594-6.332031 14.136719-14.140625 14.136719s-14.136719-6.328125-14.136719-14.136719c0-7.808593 6.328125-14.140625 14.136719-14.140625s14.140625 6.332032 14.140625 14.140625zm0 0"/><path d="m255.609375 107.058594c0 7.808594-6.332031 14.140625-14.140625 14.140625s-14.136719-6.332031-14.136719-14.140625 6.328125-14.136719 14.136719-14.136719 14.140625 6.328125 14.140625 14.136719zm0 0"/><path d="m309.039062 41.015625c0 7.808594-6.328124 14.136719-14.136718 14.136719s-14.140625-6.328125-14.140625-14.136719 6.332031-14.140625 14.140625-14.140625 14.136718 6.332031 14.136718 14.140625zm0 0"/></g><path d="m160.980469 463.933594v29.253906c0 6.253906-5.082031 11.332031-11.351563 11.332031h-138.277344c-6.269531 0-11.351562-5.078125-11.351562-11.332031v-29.253906c0-25.640625 20.792969-46.410156 46.4375-46.410156h68.109375c25.640625 0 46.433594 20.769531 46.433594 46.410156zm0 0" fill="#7885ed"/><path d="m52.1875 479.84375v24.675781h-18.371094v-24.675781c0-5.078125 4.117188-9.179688 9.183594-9.179688 5.070312 0 9.1875 4.101563 9.1875 9.179688zm0 0" fill="#676fce"/><path d="m110.5 417.523438v3.804687c0 9.621094-7.8125 17.429687-17.4375 17.429687h-25.140625c-9.625 0-17.4375-7.808593-17.4375-17.429687v-3.804687zm0 0" fill="#5656b2"/><path d="m126.773438 479.84375v24.675781h-18.367188v-24.675781c0-5.078125 4.113281-9.179688 9.183594-9.179688 5.082031 0 9.183594 4.101563 9.183594 9.179688zm0 0" fill="#676fce"/><path d="m89.097656 429.449219h-17.214844c-6.589843 0-11.933593-5.34375-11.933593-11.933594v-28.484375h41.085937v28.484375c0 6.589844-5.34375 11.933594-11.9375 11.933594zm0 0" fill="#fcc1b9"/><path d="m123.621094 313.308594v41.074218c0 23.804688-19.3125 43.105469-43.128906 43.105469-23.820313 0-43.128907-19.300781-43.128907-43.105469v-41.074218c0-17.195313 13.945313-31.121094 31.140625-31.121094h23.976563c17.203125 0 31.140625 13.925781 31.140625 31.121094zm0 0" fill="#fcc1b9"/><path d="m123.621094 313.308594v8.863281c0 23.800781-19.3125 43.101563-43.128906 43.101563-23.820313 0-43.128907-19.300782-43.128907-43.101563v-8.863281c0-17.195313 13.945313-31.121094 31.140625-31.121094h23.976563c17.203125 0 31.140625 13.925781 31.140625 31.121094zm0 0" fill="#354968"/><path d="m321.960938 463.933594v29.253906c0 6.253906-5.082032 11.332031-11.351563 11.332031h-138.277344c-6.269531 0-11.351562-5.078125-11.351562-11.332031v-29.253906c0-25.640625 20.792969-46.410156 46.433593-46.410156h68.113282c25.640625 0 46.433594 20.769531 46.433594 46.410156zm0 0" fill="#48bbed"/><path d="m213.167969 479.84375v24.675781h-18.367188v-24.675781c0-5.078125 4.113281-9.179688 9.183594-9.179688s9.183594 4.101563 9.183594 9.179688zm0 0" fill="#009be6"/><path d="m271.480469 417.523438v3.804687c0 9.621094-7.8125 17.429687-17.4375 17.429687h-25.140625c-9.625 0-17.4375-7.808593-17.4375-17.429687v-3.804687zm0 0" fill="#0082bd"/><path d="m287.753906 479.84375v24.675781h-18.367187v-24.675781c0-5.078125 4.117187-9.179688 9.183593-9.179688 5.082032 0 9.183594 4.101563 9.183594 9.179688zm0 0" fill="#009be6"/><path d="m250.078125 429.449219h-17.214844c-6.589843 0-11.933593-5.34375-11.933593-11.933594v-28.484375h41.085937v28.484375c0 6.589844-5.34375 11.933594-11.9375 11.933594zm0 0" fill="#fcc1b9"/><path d="m284.601562 313.3125v41.070312c0 23.804688-19.3125 43.105469-43.128906 43.105469-23.820312 0-43.128906-19.300781-43.128906-43.105469v-41.070312c0-17.195312 13.945312-31.125 31.140625-31.125h23.976563c17.203124 0 31.140624 13.929688 31.140624 31.125zm0 0" fill="#fcc1b9"/><path d="m284.601562 313.3125v8.859375c0 23.804687-19.3125 43.105469-43.128906 43.105469-23.820312 0-43.128906-19.300782-43.128906-43.105469v-8.859375c0-17.195312 13.945312-31.125 31.140625-31.125h23.976563c17.203124 0 31.140624 13.929688 31.140624 31.125zm0 0" fill="#354968"/><path d="m239.824219 126.199219v19.722656c0 10.605469 8.59375 19.199219 19.191406 19.199219h122.855469c1.648437 0 2.976562 1.328125 2.976562 2.976562v113.890625h95.40625c17.527344 0 31.746094-14.21875 31.746094-31.746093v-91.347657c0-18.0625-14.644531-32.699219-32.710938-32.699219h-239.464843zm0 0" fill="#48bbed"/><path d="m463.445312 184.308594v97.679687h16.070313v-97.679687c0-4.433594-3.601563-8.035156-8.035156-8.035156-4.433594 0-8.035157 3.601562-8.035157 8.035156zm0 0" fill="#009be6"/><path d="m454.285156 99.632812v26.28125c0 10.566407-8.570312 19.136719-19.148437 19.136719-10.570313 0-19.140625-8.570312-19.140625-19.136719v-26.28125zm0 0" fill="#fcc1b9"/><path d="m454.285156 99.632812v13.582032c-5.578125 2.933594-11.925781 4.589844-18.667968 4.589844-7.128907 0-13.816407-1.851563-19.621094-5.105469v-13.066407zm0 0" fill="#f2aa99"/><path d="m435.621094 107.515625c22.195312 0 40.191406-17.996094 40.191406-40.191406v-46.378907c0-11.566406-9.375-20.94140575-20.941406-20.94140575h-38.5c-11.566406 0-20.941406 9.37499975-20.941406 20.94140575v46.378907c0 22.199219 17.992187 40.191406 40.191406 40.191406zm0 0" fill="#fcc1b9"/><path d="m395.421875 20.945312v37.542969c0-11.453125 9.191406-20.753906 20.582031-20.9375.117188-.011719.246094-.011719.363282-.011719h38.507812c11.558594 0 20.933594 9.375 20.933594 20.949219v-37.542969c0-11.570312-9.375-20.945312-20.933594-20.945312h-38.507812c-11.558594 0-20.945313 9.375-20.945313 20.945312zm0 0" fill="#354968"/><path d="m416.003906 29.25v8.300781c.117188-.011719.246094-.011719.363282-.011719h15.707031v-8.289062c0-4.445312-3.597657-8.035156-8.035157-8.035156-4.433593 0-8.035156 3.585937-8.035156 8.035156zm0 0" fill="#2a3a51"/><path d="m384.859375 281.980469h86.621094v218.867187h-86.621094zm0 0" fill="#354968"/><path d="m455.191406 308.847656v41.078125c-.082031 16.472657-4.660156 26.863281-9.046875 33.429688-4.679687 7.003906-8.789062 9.117187-10.804687 16.722656-2.941406 11.101563 3.078125 16.914063-.769532 23.152344-4.011718 6.492187-15.277343 7.855469-22.515624 6.21875-14.59375-3.296875-25.78125-21.695313-27.195313-46.082031v-101.386719h54.90625c9.230469 5.402343 15.425781 15.402343 15.425781 26.867187zm0 0" fill="#2a3a51"/><path d="m482.945312 463.933594v29.253906c0 6.253906-5.082031 11.332031-11.351562 11.332031h-138.28125c-6.269531 0-11.351562-5.078125-11.351562-11.332031v-29.253906c0-25.640625 20.792968-46.410156 46.4375-46.410156h68.109374c25.644532 0 46.4375 20.769531 46.4375 46.410156zm0 0" fill="#7885ed"/><path d="m374.148438 479.84375v24.675781h-18.371094v-24.675781c0-5.078125 4.117187-9.179688 9.1875-9.179688 5.066406 0 9.183594 4.101563 9.183594 9.179688zm0 0" fill="#676fce"/><path d="m432.460938 417.523438v3.804687c0 9.621094-7.8125 17.429687-17.4375 17.429687h-25.140626c-9.625 0-17.4375-7.808593-17.4375-17.429687v-3.804687zm0 0" fill="#5656b2"/><path d="m448.734375 479.84375v24.675781h-18.367187v-24.675781c0-5.078125 4.113281-9.179688 9.183593-9.179688 5.082031 0 9.183594 4.101563 9.183594 9.179688zm0 0" fill="#676fce"/><path d="m411.058594 429.449219h-17.210938c-6.59375 0-11.9375-5.34375-11.9375-11.933594v-28.484375h41.085938v28.484375c0 6.589844-5.34375 11.933594-11.9375 11.933594zm0 0" fill="#fcc1b9"/><path d="m445.582031 313.308594v41.074218c0 23.804688-19.3125 43.105469-43.128906 43.105469s-43.128906-19.300781-43.128906-43.105469v-41.074218c0-17.195313 13.949219-25.90625 31.140625-25.90625h23.976562c17.207032 0 31.140625 8.710937 31.140625 25.90625zm0 0" fill="#fcc1b9"/><path d="m445.582031 313.308594v8.863281c0 23.800781-19.3125 43.101563-43.128906 43.101563s-43.128906-19.300782-43.128906-43.101563v-8.863281c0-17.195313 13.949219-31.121094 31.140625-31.121094h23.976562c17.207032 0 31.140625 13.925781 31.140625 31.121094zm0 0" fill="#354968"/></svg>