<svg id="Capa_1" enable-background="new 0 0 512 512" height="512" viewBox="0 0 512 512" width="512" xmlns="http://www.w3.org/2000/svg"><g><g><path d="m472.332 243.282v261.091h-434.434l79.788-111.611c3.267-4.57 9.622-5.626 14.191-2.357l44.031 31.5c4.523 3.236 10.806 2.238 14.104-2.24l86.629-117.616c3.438-4.667 10.075-5.522 14.583-1.877l53.702 43.418c4.2 3.395 10.321 2.916 13.94-1.092l95.749-106.03c6.242-6.911 17.717-2.497 17.717 6.814z" fill="#23f1a8"/><path d="m439.9 252.763v251.61h32.432v-261.091c0-9.311-11.475-13.726-17.716-6.815z" fill="#27e19d"/><g><g><path d="m496.772 512h-481.544c-4.213 0-7.627-3.415-7.627-7.627v-16.281c0-4.212 3.414-7.627 7.627-7.627s7.627 3.415 7.627 7.627v8.654h466.29v-8.654c0-4.212 3.414-7.627 7.627-7.627 4.212 0 7.627 3.415 7.627 7.627v16.281c-.001 4.212-3.415 7.627-7.627 7.627z" fill="#1ec186"/></g></g><g><g><g><path d="m426.548 407.674h-9.263c-2.808 0-5.084-2.276-5.084-5.084v-9.263c0-5.617-4.553-10.17-10.17-10.17h-10.621c-5.617 0-10.17 4.553-10.17 10.17v9.263c0 2.808-2.276 5.084-5.084 5.084h-9.263c-5.617 0-10.17 4.553-10.17 10.17v10.621c0 5.617 4.553 10.17 10.17 10.17h9.263c2.808 0 5.084 2.276 5.084 5.084v9.263c0 5.617 4.553 10.17 10.17 10.17h10.621c5.617 0 10.17-4.553 10.17-10.17v-9.263c0-2.808 2.276-5.084 5.084-5.084h9.263c5.617 0 10.17-4.553 10.17-10.17v-10.621c0-5.616-4.553-10.17-10.17-10.17z" fill="#f2eff2"/></g></g></g><g><g><path d="m325.188 444.641h-18.355c-4.213 0-7.627-3.415-7.627-7.627s3.414-7.627 7.627-7.627h18.355c4.213 0 7.627 3.415 7.627 7.627-.001 4.212-3.415 7.627-7.627 7.627z" fill="#1ec186"/></g><g><path d="m325.188 470.78h-67.173c-4.213 0-7.627-3.415-7.627-7.627s3.414-7.627 7.627-7.627h67.173c4.213 0 7.627 3.415 7.627 7.627-.001 4.212-3.415 7.627-7.627 7.627z" fill="#1ec186"/></g></g></g><g><path d="m159.589 289.72h-7.525c-2.817 0-5.084 2.278-5.084 5.084v52.786c0 5.867-4.759 10.626-10.626 10.626h-30.527c-5.867 0-10.626-4.759-10.626-10.626v-52.786c0-2.807-2.278-5.084-5.084-5.084h-7.535c-3.112 0-5.562-2.674-5.288-5.786l3.701-41.621c1.22-13.708 12.701-24.212 26.469-24.212h27.252c13.758 0 25.239 10.504 26.459 24.212l3.701 41.621c.286 3.111-2.165 5.786-5.287 5.786z" fill="#fcb44d"/><path d="m159.587 289.719h-7.529c-2.808 0-5.084 2.276-5.084 5.084v52.787c0 5.869-4.758 10.626-10.626 10.626h-26.959c5.876 0 10.626-4.761 10.626-10.626v-57.872h12.614c3.124 0 5.568-2.678 5.292-5.781l-3.698-41.624c-1.222-13.708-12.709-24.207-26.471-24.207h26.959c13.761 0 25.248 10.499 26.471 24.207l3.698 41.624c.275 3.104-2.169 5.782-5.293 5.782z" fill="#fb9927"/><g><path d="m128.717 289.222v68.995h-15.253v-68.995c0-4.21 3.406-7.627 7.627-7.627 4.209 0 7.626 3.417 7.626 7.627z" fill="#e5801c"/></g><g><circle cx="121.087" cy="192.161" fill="#ffcec0" r="26.958"/><path d="m148.047 192.165c0 14.888-12.072 26.959-26.959 26.959-4.155 0-8.087-.935-11.593-2.614 9.086-4.346 15.355-13.612 15.355-24.345s-6.27-19.999-15.355-24.345c3.507-1.679 7.439-2.614 11.593-2.614 14.887 0 26.959 12.071 26.959 26.959z" fill="#fdb0a0"/></g></g><g><circle cx="281.372" cy="101.084" fill="#c86f5c" r="26.958"/><path d="m308.331 101.087c0 14.888-12.072 26.959-26.959 26.959-4.155 0-8.087-.935-11.593-2.614 9.086-4.346 15.355-13.612 15.355-24.345s-6.27-19.999-15.355-24.345c3.507-1.679 7.439-2.614 11.593-2.614 14.888 0 26.959 12.072 26.959 26.959z" fill="#ba5d4f"/><path d="m319.87 198.638h-7.525c-2.806 0-5.084 2.278-5.084 5.084v52.786c0 5.867-4.759 10.626-10.626 10.626h-30.527c-5.867 0-10.626-4.759-10.626-10.626v-52.786c0-2.807-2.278-5.084-5.084-5.084h-7.525c-3.122 0-5.573-2.674-5.298-5.776l3.712-41.631c1.22-13.697 12.701-24.202 26.459-24.202h27.252c13.758 0 25.239 10.504 26.459 24.202l3.712 41.631c.274 3.101-2.177 5.776-5.299 5.776z" fill="#1c96f9"/><path d="m319.872 198.641h-7.529c-2.808 0-5.084 2.276-5.084 5.084v52.787c0 5.869-4.758 10.626-10.626 10.626h-26.959c5.876 0 10.626-4.761 10.626-10.626v-57.872h12.614c3.124 0 5.568-2.678 5.292-5.781l-3.698-41.624c-1.222-13.708-12.709-24.207-26.471-24.207h26.959c13.761 0 25.248 10.499 26.471 24.207l3.698 41.624c.275 3.105-2.169 5.782-5.293 5.782z" fill="#1785f8"/><g><path d="m288.998 198.139v68.995h-15.253v-68.995c0-4.21 3.417-7.627 7.627-7.627 4.209.001 7.626 3.417 7.626 7.627z" fill="#057ed8"/></g></g><g><circle cx="452.676" cy="26.958" fill="#ffcec0" r="26.958"/><path d="m479.636 26.962c0 14.888-12.072 26.959-26.959 26.959-4.155 0-8.087-.935-11.593-2.614 9.086-4.346 15.355-13.612 15.355-24.345s-6.27-19.999-15.355-24.345c3.507-1.679 7.439-2.614 11.593-2.614 14.887 0 26.959 12.071 26.959 26.959z" fill="#fdb0a0"/><path d="m491.174 124.517h-7.525c-2.807 0-5.084 2.278-5.084 5.084v52.786c0 5.867-4.759 10.626-10.626 10.626h-30.527c-5.867 0-10.626-4.759-10.626-10.626v-52.786c0-2.807-2.278-5.084-5.084-5.084h-7.525c-3.122 0-5.573-2.674-5.298-5.786l3.712-41.621c1.22-13.708 12.701-24.212 26.459-24.212h27.252c13.758 0 25.239 10.504 26.459 24.212l3.712 41.621c.274 3.112-2.177 5.786-5.299 5.786z" fill="#fb1466"/><path d="m491.176 124.516h-7.529c-2.808 0-5.084 2.276-5.084 5.084v52.787c0 5.869-4.758 10.626-10.626 10.626h-26.959c5.876 0 10.626-4.761 10.626-10.626v-57.872h12.614c3.124 0 5.568-2.678 5.292-5.781l-3.698-41.624c-1.222-13.708-12.709-24.207-26.471-24.207h26.959c13.761 0 25.248 10.499 26.471 24.207l3.698 41.624c.275 3.104-2.169 5.782-5.293 5.782z" fill="#e01058"/><g><path d="m460.302 124.019v68.995h-15.253v-68.995c0-4.21 3.417-7.627 7.627-7.627 4.209 0 7.626 3.417 7.626 7.627z" fill="#d30562"/></g></g></g></svg>