<svg id="Capa_1" enable-background="new 0 0 512 512" height="512" viewBox="0 0 512 512" width="512" xmlns="http://www.w3.org/2000/svg"><g><g><path d="m463.877 359.342h-415.754v-271.495c0-13.255 10.745-24 24-24h367.755c13.255 0 24 10.745 24 24v271.495z" fill="#335995"/></g><g><path d="m439.877 63.847h-15.836v235.297c0 5.623-4.558 10.181-10.181 10.181h-365.737v50.017h415.755v-271.495c-.001-13.255-10.746-24-24.001-24z" fill="#21386b"/></g><g><path d="m501.816 401.978h-491.631c-6.392 0-11.203-5.821-9.999-12.099l.272-1.416c4.405-22.966 24.495-39.569 47.88-39.569h415.355c24.07 0 44.538 17.567 48.188 41.358.945 6.167-3.826 11.726-10.065 11.726z" fill="#4278c3"/></g><path d="m511.88 390.253c-3.122-20.349-18.55-36.133-38.008-40.278 2.046 4.254 3.51 8.862 4.258 13.736.946 6.166-3.825 11.725-10.064 11.725h-463.123c-2.062 4.03-3.598 8.396-4.486 13.027l-.271 1.416c-1.204 6.278 3.607 12.099 9.999 12.099h491.632c6.238 0 11.009-5.559 10.063-11.725z" fill="#335995"/><g><path d="m406.208 287.92h-300.416c-5.523 0-10-4.477-10-10v-155.763c0-5.523 4.477-10 10-10h300.417c5.523 0 10 4.477 10 10v155.763c-.001 5.523-4.478 10-10.001 10z" fill="#f4fbff"/></g><g><path d="m406.027 112.157h-12.972v142.428c0 5.623-4.558 10.181-10.181 10.181h-287.082v12.972c0 5.623 4.559 10.181 10.181 10.181h300.054c5.623 0 10.181-4.558 10.181-10.181v-155.4c0-5.623-4.558-10.181-10.181-10.181z" fill="#e4f6ff"/></g><g><circle cx="256" cy="89.274" fill="#bed8fb" r="8.819"/></g><g><path d="m263.718 327.577h-15.435c-4.218 0-7.636-3.418-7.636-7.636s3.418-7.636 7.636-7.636h15.435c4.218 0 7.636 3.418 7.636 7.636s-3.419 7.636-7.636 7.636z" fill="#4278c3"/></g><g><path d="m305.174 255.803h-98.348c-30.884 0-55.921-25.037-55.921-55.921 0-30.884 25.037-55.921 55.921-55.921h98.348c30.884 0 55.921 25.037 55.921 55.921 0 30.884-25.037 55.921-55.921 55.921z" fill="#ffe07d"/></g><path d="m333.241 151.522c4.799 8.251 7.561 17.834 7.561 28.067 0 30.884-25.037 55.921-55.921 55.921h-98.348c-10.233 0-19.816-2.762-28.067-7.561 9.685 16.651 27.709 27.854 48.36 27.854h98.348c30.884 0 55.921-25.037 55.921-55.921 0-20.651-11.203-38.675-27.854-48.36z" fill="#ffd064"/><g><g><g><path d="m221.363 232.644c-17.994 0-32.634-14.64-32.634-32.635 0-17.994 14.64-32.634 32.634-32.634 6.539 0 12.85 1.929 18.252 5.578 3.495 2.36 4.414 7.107 2.053 10.602s-7.108 4.414-10.602 2.053c-2.867-1.937-6.223-2.961-9.703-2.961-9.574 0-17.362 7.788-17.362 17.362s7.788 17.363 17.362 17.363c7.116 0 11.061-4.297 12.816-9.727h-6.192c-4.218 0-7.636-3.418-7.636-7.636s3.418-7.636 7.636-7.636h14.956c4.218 0 7.636 3.418 7.636 7.636 0 19.215-12.014 32.635-29.216 32.635z" fill="#4678bb"/></g></g><g><path d="m291.092 232.644c-17.994 0-32.634-14.64-32.634-32.635 0-17.994 14.64-32.634 32.634-32.634 17.995 0 32.635 14.64 32.635 32.634 0 17.995-14.64 32.635-32.635 32.635zm0-49.998c-9.574 0-17.362 7.788-17.362 17.362s7.788 17.363 17.362 17.363 17.363-7.789 17.363-17.363-7.789-17.362-17.363-17.362z" fill="#4678bb"/></g></g><g><path d="m387.882 245.52-13.921 13.921c-1.748 1.748-4.583 1.748-6.331 0l-29.381-29.381 20.252-20.252 29.381 29.381c1.748 1.748 1.748 4.582 0 6.331z" fill="#bed8fb"/></g><path d="m387.882 239.188-29.381-29.381-9.07 9.07 20.311 20.311c1.748 1.748 1.748 4.583 0 6.331l-8.016 8.016 5.905 5.905c1.748 1.748 4.583 1.748 6.331 0l13.921-13.921c1.747-1.748 1.747-4.582-.001-6.331z" fill="#9dc6fb"/><g><path d="m305.638 181.761 11.869 76.801c.5 3.237 4.466 4.533 6.781 2.218l33.542-33.542 2.06-7.678 6.989-1.372 22.34-22.34c2.316-2.316 1.019-6.281-2.218-6.781l-76.801-11.869c-2.671-.414-4.975 1.889-4.562 4.563z" fill="#bed8fb"/></g><g><path d="m387.002 189.065-76.702-11.853c-2.722-.421-5.067 1.925-4.647 4.647l1.533 9.919 46.586 7.199c3.295.509 4.616 4.547 2.258 6.905l-40.418 40.418 1.895 12.262c.5 3.237 4.466 4.533 6.781 2.218l64.932-64.932c2.316-2.317 1.019-6.283-2.218-6.783z" fill="#9dc6fb"/></g><g><path d="m120.349 384.493h-16.921l-7.636 5.819-7.636-5.819h-16.921c-17.751 0-32.141 14.39-32.141 32.141v24.519c0 3.866 3.134 7 7 7h99.395c3.866 0 7-3.134 7-7v-24.519c0-17.751-14.39-32.141-32.14-32.141z" fill="#bed8fb"/></g><path d="m126.409 385.071c.375 1.963.578 3.988.578 6.06v24.519c0 3.866-3.134 7-7 7h-80.893v18.502c0 3.866 3.134 7 7 7h99.395c3.866 0 7-3.134 7-7v-24.519c0-15.677-11.228-28.726-26.08-31.562z" fill="#9dc6fb"/><g><path d="m95.791 410.357c-4.217 0-7.636-3.419-7.636-7.636v-18.227h15.272v18.227c0 4.217-3.418 7.636-7.636 7.636z" fill="#4278c3"/></g></g></svg>