<svg id="Capa_1" enable-background="new 0 0 512 512" height="512" viewBox="0 0 512 512" width="512" xmlns="http://www.w3.org/2000/svg"><g><g><path d="m404.033 370.472h-345.496c-8.046 0-14.569-6.523-14.569-14.569v-289.301h374.634v289.301c0 8.046-6.523 14.569-14.569 14.569z" fill="#e6f7fe"/></g><g><path d="m404.033 370.472h-16.65v-303.87h31.22v289.301c-.001 8.046-6.524 14.569-14.57 14.569z" fill="#d3effd"/></g><g><path d="m418.602 66.602h-374.635v-52.033c0-8.046 6.523-14.569 14.57-14.569h345.496c8.046 0 14.569 6.523 14.569 14.569z" fill="#6c7fd8"/></g><g><path d="m418.602 66.602h-31.22v-66.602h16.65c8.046 0 14.569 6.523 14.569 14.569v52.033z" fill="#4f66d0"/></g><g><circle cx="385.301" cy="33.301" fill="#bbf49b" r="8.325"/></g><g><circle cx="352" cy="33.301" fill="#ffe177" r="8.325"/></g><g><circle cx="318.699" cy="33.301" fill="#fe7ab6" r="8.325"/></g><g><g><path d="m98.861 232.28h-20.812c-4.143 0-7.5-3.358-7.5-7.5s3.357-7.5 7.5-7.5h20.812c4.143 0 7.5 3.358 7.5 7.5s-3.357 7.5-7.5 7.5z" fill="#8ac9fe"/></g><g><path d="m193.707 232.28h-61.544c-4.143 0-7.5-3.358-7.5-7.5s3.357-7.5 7.5-7.5h61.544c4.143 0 7.5 3.358 7.5 7.5s-3.357 7.5-7.5 7.5z" fill="#8ac9fe"/></g><g><path d="m216.84 132.378h-100.027c-4.143 0-7.5-3.358-7.5-7.5s3.357-7.5 7.5-7.5h100.027c4.143 0 7.5 3.358 7.5 7.5s-3.358 7.5-7.5 7.5z" fill="#fe7ab6"/></g><g><path d="m283.317 132.378h-33.176c-4.143 0-7.5-3.358-7.5-7.5s3.357-7.5 7.5-7.5h33.176c4.143 0 7.5 3.358 7.5 7.5s-3.357 7.5-7.5 7.5z" fill="#fea95c"/></g><g><path d="m164.683 165.679h-86.634c-4.143 0-7.5-3.358-7.5-7.5s3.357-7.5 7.5-7.5h86.634c4.143 0 7.5 3.358 7.5 7.5s-3.358 7.5-7.5 7.5z" fill="#8ac9fe"/></g><g><path d="m227.247 165.679h-29.264c-4.143 0-7.5-3.358-7.5-7.5s3.357-7.5 7.5-7.5h29.264c4.143 0 7.5 3.358 7.5 7.5s-3.357 7.5-7.5 7.5z" fill="#fea95c"/></g><g><path d="m283.317 165.679h-22.895c-4.143 0-7.5-3.358-7.5-7.5s3.357-7.5 7.5-7.5h22.895c4.143 0 7.5 3.358 7.5 7.5s-3.357 7.5-7.5 7.5z" fill="#8ac9fe"/></g><g><path d="m132.423 198.979h-54.374c-4.143 0-7.5-3.358-7.5-7.5s3.357-7.5 7.5-7.5h54.374c4.143 0 7.5 3.358 7.5 7.5s-3.358 7.5-7.5 7.5z" fill="#fe7ab6"/></g><g><path d="m194.986 198.979h-29.263c-4.143 0-7.5-3.358-7.5-7.5s3.357-7.5 7.5-7.5h29.263c4.143 0 7.5 3.358 7.5 7.5s-3.357 7.5-7.5 7.5z" fill="#8ac9fe"/></g><g><path d="m142.829 298.882h-64.78c-4.143 0-7.5-3.358-7.5-7.5s3.357-7.5 7.5-7.5h64.78c4.143 0 7.5 3.358 7.5 7.5s-3.357 7.5-7.5 7.5z" fill="#8ac9fe"/></g><g><path d="m194.986 298.882h-18.856c-4.143 0-7.5-3.358-7.5-7.5s3.357-7.5 7.5-7.5h18.856c4.143 0 7.5 3.358 7.5 7.5s-3.357 7.5-7.5 7.5z" fill="#ffe177"/></g><g><path d="m194.986 332.183h-64.78c-4.143 0-7.5-3.358-7.5-7.5s3.357-7.5 7.5-7.5h64.78c4.143 0 7.5 3.358 7.5 7.5s-3.357 7.5-7.5 7.5z" fill="#8ac9fe"/></g><g><path d="m96.905 332.183h-18.856c-4.143 0-7.5-3.358-7.5-7.5s3.357-7.5 7.5-7.5h18.856c4.143 0 7.5 3.358 7.5 7.5s-3.357 7.5-7.5 7.5z" fill="#fe7ab6"/></g><g><path d="m249.901 198.979h-21.738c-4.143 0-7.5-3.358-7.5-7.5s3.357-7.5 7.5-7.5h21.738c4.143 0 7.5 3.358 7.5 7.5s-3.357 7.5-7.5 7.5z" fill="#ffe177"/></g><g><path d="m193.707 265.582h-44.228c-4.143 0-7.5-3.358-7.5-7.5s3.357-7.5 7.5-7.5h44.228c4.143 0 7.5 3.358 7.5 7.5s-3.357 7.5-7.5 7.5z" fill="#fe7ab6"/></g><g><path d="m116.178 265.582h-38.129c-4.143 0-7.5-3.358-7.5-7.5s3.357-7.5 7.5-7.5h38.129c4.143 0 7.5 3.358 7.5 7.5s-3.358 7.5-7.5 7.5z" fill="#ffe177"/></g><g><path d="m222.953 332.185c-1.127 0-2.271-.255-3.349-.793-3.704-1.853-5.206-6.357-3.354-10.062l4.566-9.134-4.566-9.134c-1.853-3.705-.351-8.209 3.354-10.062 3.707-1.853 8.21-.351 10.062 3.354l6.244 12.488c1.056 2.111 1.056 4.597 0 6.708l-6.244 12.488c-1.312 2.628-3.962 4.147-6.713 4.147z" fill="#6c7fd8"/></g><g><path d="m83.518 132.379c-2.751 0-5.4-1.52-6.714-4.147l-6.243-12.488c-1.056-2.111-1.056-4.597 0-6.708l6.243-12.488c1.852-3.705 6.358-5.207 10.062-3.354 3.705 1.853 5.207 6.357 3.354 10.062l-4.566 9.134 4.566 9.134c1.853 3.705.351 8.21-3.354 10.062-1.077.539-2.221.793-3.348.793z" fill="#6c7fd8"/></g></g><g><path d="m322.342 183.979c-38.564 0-69.939 31.375-69.939 69.939v196.492c0 8.488-6.906 15.394-15.395 15.394s-15.394-6.906-15.394-15.394v-79.938h-15v79.938c0 16.759 13.635 30.394 30.394 30.394 16.76 0 30.395-13.635 30.395-30.394v-196.492c0-30.293 24.646-54.939 54.939-54.939s54.938 24.646 54.938 54.939v32.045c0 4.142 3.357 7.5 7.5 7.5s7.5-3.358 7.5-7.5v-32.045c0-38.564-31.374-69.939-69.938-69.939z" fill="#6c7fd8"/></g><g><g><path d="m384.781 512c-45.979 0-83.252-37.273-83.252-83.252v-72.846c0-45.979 37.273-83.252 83.252-83.252 45.979 0 83.252 37.273 83.252 83.252v72.846c0 45.979-37.274 83.252-83.252 83.252z" fill="#b6c4cf"/></g><g><path d="m450.536 304.873c6.252 18.995 5.722 40.288-3.082 59.982l-29.729 66.503c-17.427 38.983-61.135 57.969-100.901 45.451 15.081 21.285 39.887 35.191 67.956 35.191 45.979 0 83.252-37.273 83.252-83.252v-72.846c.001-19.235-6.541-36.932-17.496-51.029z" fill="#9facba"/></g><g><path d="m384.781 370.472c-9.196 0-16.65-7.455-16.65-16.65v-22.894c0-9.196 7.455-16.65 16.65-16.65 9.196 0 16.65 7.455 16.65 16.65v22.894c0 9.195-7.455 16.65-16.65 16.65z" fill="#7a8c98"/></g></g><g><path d="m384.781 272.65c-2.53 0-5.028.132-7.5.353v53.661c0 4.142 3.357 7.5 7.5 7.5s7.5-3.358 7.5-7.5v-53.661c-2.473-.221-4.971-.353-7.5-.353z" fill="#7a8c98"/></g><g><path d="m384.78 347.508c-4.143 0-7.5 3.358-7.5 7.5v156.639c2.472.221 4.97.353 7.5.353 2.53 0 5.028-.132 7.5-.353v-156.639c0-4.142-3.357-7.5-7.5-7.5z" fill="#7a8c98"/></g></g></svg>