<?xml version="1.0" encoding="iso-8859-1"?>
<!-- Generator: Adobe Illustrator 19.0.0, SVG Export Plug-In . SVG Version: 6.00 Build 0)  -->
<svg version="1.1" id="Capa_1" xmlns="http://www.w3.org/2000/svg" xmlns:xlink="http://www.w3.org/1999/xlink" x="0px" y="0px"
	 viewBox="0 0 512 512" style="enable-background:new 0 0 512 512;" xml:space="preserve">
<path style="fill:#CCCCCC;" d="M481.821,48.456h-36.106c-4.273,0-7.737,3.464-7.737,7.737s3.464,7.737,7.737,7.737h36.106
	c2.516,0,4.642,2.126,4.642,4.642v38.607l-6.256,6.345c-4.239,4.3-4.343,11.136-0.235,15.565l6.491,6.995v98.368
	c0,4.273,3.464,7.737,7.737,7.737s7.737-3.463,7.737-7.737c0-16.738,0-149.128,0-165.879
	C501.937,57.481,492.913,48.456,481.821,48.456z"/>
<path style="fill:#70B5E8;" d="M446.747,50.003V13.929c0-7.692-6.235-13.926-13.926-13.926c-7.692,0-13.926,6.235-13.926,13.926
	v36.074C418.895,50.003,446.747,50.003,446.747,50.003z"/>
<path style="fill:#4AA5D3;" d="M439.783,1.881c-9.188-5.322-20.89,1.264-20.89,12.048v36.074h13.926V13.929
	C432.82,8.777,435.625,4.29,439.783,1.881z"/>
<path style="fill:#CCCCCC;" d="M411.999,241.671v136.686l0,0l16.624,39.144c1.766,4.158,7.659,4.158,9.425,0l16.624-39.144l0,0
	V241.671H411.999z"/>
<path style="fill:#BFBEBE;" d="M433.336,378.357V241.671h-21.337v136.686l16.624,39.144c1.766,4.158,7.659,4.158,9.425,0
	l5.956-14.024L433.336,378.357z"/>
<path style="fill:#F9F6ED;" d="M347.973,0.003h-317.8c-11.06,0-20.11,9.049-20.11,20.11c0,51.604,0,377.934,0,430.436l0,0
	c0,33.939,18.888,61.451,42.001,61.451h316.018c0-18.814,0-508.583,0-491.887C368.083,9.052,359.033,0.003,347.973,0.003z"/>
<path style="fill:#EAE5DA;" d="M35.853,450.549c0-25.966,0-406.144,0-430.436c0-11.06,9.049-20.11,20.11-20.11h-25.79
	c-11.06,0-20.11,9.049-20.11,20.11c0,51.604,0,377.934,0,430.436c0,33.939,18.888,61.451,42.001,61.451h25.79
	C54.741,512,35.853,484.487,35.853,450.549z"/>
<path style="fill:#EAE4D6;" d="M52.065,512c19.462,0,35.832-19.366,40.599-45.645c1.661-9.156,9.645-15.807,18.951-15.807H432.2
	c11.887,0,20.52,11.311,17.39,22.778C443.405,495.988,428.265,512,410.569,512H52.065"/>
<path style="fill:#E2D9C7;" d="M120.001,466.355c1.661-9.156,9.645-15.807,18.951-15.807h-27.337c-9.306,0-17.29,6.65-18.951,15.807
	C87.896,492.634,71.526,512,52.065,512h27.337C98.863,512,115.234,492.634,120.001,466.355z"/>
<g>
	<path style="fill:#B3B3B3;" d="M306.076,342.388H78.26c-4.273,0-7.737-3.463-7.737-7.737s3.464-7.737,7.737-7.737h227.816
		c4.273,0,7.737,3.463,7.737,7.737S310.349,342.388,306.076,342.388z"/>
	<path style="fill:#B3B3B3;" d="M306.076,387.526H78.26c-4.273,0-7.737-3.464-7.737-7.737s3.464-7.737,7.737-7.737h227.816
		c4.273,0,7.737,3.463,7.737,7.737S310.349,387.526,306.076,387.526z"/>
	<path style="fill:#B3B3B3;" d="M306.076,297.25H78.26c-4.273,0-7.737-3.464-7.737-7.737s3.464-7.737,7.737-7.737h227.816
		c4.273,0,7.737,3.463,7.737,7.737C313.813,293.786,310.349,297.25,306.076,297.25z"/>
	<path style="fill:#B3B3B3;" d="M306.076,252.113H78.26c-4.273,0-7.737-3.464-7.737-7.737s3.464-7.737,7.737-7.737h227.816
		c4.273,0,7.737,3.463,7.737,7.737C313.813,248.649,310.349,252.113,306.076,252.113z"/>
</g>
<path style="fill:#AA5D24;" d="M234.205,200.098h-90.264c-4.273,0-7.737-3.463-7.737-7.737s3.464-7.737,7.737-7.737h90.264
	c4.273,0,7.737,3.463,7.737,7.737S238.478,200.098,234.205,200.098z"/>
<path style="fill:#666666;" d="M451.389,246.829h-36.106c-6.809,0-12.379-5.571-12.379-12.379V59.288
	c0-6.809,5.571-12.379,12.379-12.379h36.106c6.809,0,12.379,5.571,12.379,12.379V234.45
	C463.768,241.259,458.197,246.829,451.389,246.829z"/>
<path style="fill:#4F4D4D;" d="M433.336,234.45V59.288c0-6.809,5.571-12.379,12.379-12.379h-30.432
	c-6.809,0-12.379,5.571-12.379,12.379V234.45c0,6.809,5.571,12.379,12.379,12.379h30.432
	C438.907,246.829,433.336,241.259,433.336,234.45z"/>
<path style="fill:#70B5E8;" d="M417.056,390.264l11.568,27.238c1.766,4.158,7.659,4.158,9.425,0l11.568-27.238H417.056z"/>
<path style="fill:#4AA5D3;" d="M438.393,390.264h-21.337l11.568,27.238c1.766,4.158,7.659,4.158,9.425,0l5.956-14.024
	L438.393,390.264z"/>
<circle style="fill:#FFB70D;" cx="189.07" cy="110.3" r="37.6"/>
<path style="fill:#EAA211;" d="M189.073,110.299c-6.958-12.051-6.477-26.347,0.003-37.596c-28.703-0.029-47.1,31.222-32.566,56.396
	c10.383,17.984,33.379,24.146,51.363,13.763c5.933-3.426,10.57-8.229,13.76-13.767C208.652,129.081,196.03,122.349,189.073,110.299z
	"/>
<g>
</g>
<g>
</g>
<g>
</g>
<g>
</g>
<g>
</g>
<g>
</g>
<g>
</g>
<g>
</g>
<g>
</g>
<g>
</g>
<g>
</g>
<g>
</g>
<g>
</g>
<g>
</g>
<g>
</g>
</svg>
