<svg id="Capa_1" enable-background="new 0 0 512 512" height="512" viewBox="0 0 512 512" width="512" xmlns="http://www.w3.org/2000/svg"><g><g><path d="m282.319 123.151h-84.657-84.657c-12.738 28.306-28.157 61.472-21.498 93.304 7.192 34.382 33.838 50.646 66.646 53.093h39.509 39.509c32.807-2.447 59.453-18.711 66.646-53.093 6.659-31.832-8.761-64.998-21.498-93.304z" fill="#dd7f66"/><path d="m303.821 216.46c-7.198 34.377-33.848 50.639-66.649 53.085h-11.245c26.221-5.61 46.542-21.746 52.682-51.093 5.925-28.339-9.883-67.154-22.414-95.303h26.12c12.745 28.313 28.162 61.48 21.506 93.311z" fill="#d6694b"/><g fill="#ffeee6"><path d="m197.662 229.221c-47.235 0-85.527-38.292-85.527-85.527v-32.281l85.527-56.365 85.527 56.365v32.281c-.001 47.236-38.292 85.527-85.527 85.527z"/><path d="m114.195 148.165h-9.804c-12.715 0-23.022-10.307-23.022-23.022 0-12.715 10.307-23.022 23.022-23.022h9.804z"/><path d="m281.129 148.165h9.804c12.715 0 23.022-10.307 23.022-23.022 0-12.715-10.307-23.022-23.022-23.022h-9.804z"/></g><path d="m313.951 125.14c0 12.72-10.299 23.019-23.019 23.019h-9.808v-12.392c10.35-2.244 18.115-11.472 18.115-22.49 0-3.757-.895-7.299-2.496-10.425 4.021 1.059 7.614 3.164 10.463 6.013 4.174 4.173 6.745 9.921 6.745 16.275z" fill="#ffdfcf"/><g><g><path d="m162.135 150.314c-4.266 0-7.724-3.458-7.724-7.724v-10.254c0-4.266 3.458-7.724 7.724-7.724s7.724 3.458 7.724 7.724v10.254c0 4.267-3.459 7.724-7.724 7.724z" fill="#9facba"/></g><g><path d="m236.662 150.314c-4.266 0-7.724-3.458-7.724-7.724v-10.254c0-4.266 3.458-7.724 7.724-7.724s7.724 3.458 7.724 7.724v10.254c.001 4.267-3.458 7.724-7.724 7.724z" fill="#9facba"/></g></g><path d="m283.185 111.412v32.285c0 47.236-38.285 85.521-85.521 85.521-4.286 0-8.497-.315-12.606-.92 41.26-6.089 72.914-41.651 72.914-84.601v-44.047z" fill="#ffdfcf"/><path d="m197.662 1.709c-47.235 0-85.527 38.292-85.527 85.527v26.035s55.441.53 85.527-41.256c30.085 41.786 85.527 41.256 85.527 41.256v-26.036c-.001-47.235-38.292-85.526-85.527-85.526z" fill="#dd7f66"/><path d="m283.185 87.233v26.032s-10.677.101-25.212-3.315v-25.15c0-40.05-27.532-73.683-64.708-82.974 1.45-.076 2.924-.113 4.4-.113 47.234-.001 85.52 38.284 85.52 85.52z" fill="#d6694b"/></g><path d="m397.896 358.573 9.442 105.056h76.922l9.442-105.056c.279-3.106-2.167-5.783-5.286-5.783h-85.232c-3.12 0-5.567 2.676-5.288 5.783z" fill="#f5f8f9"/><path d="m493.697 358.569-9.443 105.057h-22.459l9.443-105.057c.285-3.106-2.17-5.778-5.287-5.778h22.459c3.129.001 5.573 2.673 5.287 5.778z" fill="#e8edf2"/><path d="m400.502 387.457 3.691 41.188 83.225.012 3.698-41.214" fill="#dd7f66"/><path d="m491.117 387.445-3.7 41.208h-22.482l3.711-41.208z" fill="#d6694b"/><g><path d="m197.613 185.83c-7.453 0-14.424-3.32-19.125-9.11-2.689-3.312-2.184-8.176 1.127-10.865s8.176-2.186 10.865 1.127c1.755 2.16 4.354 3.399 7.132 3.399 2.812 0 5.431-1.263 7.187-3.467 2.66-3.334 7.519-3.883 10.855-1.226 3.336 2.659 3.885 7.519 1.227 10.855-4.704 5.902-11.727 9.287-19.268 9.287z" fill="#9facba"/></g><path d="m334.989 419.277h-274.654c-6.394 0-11.577-5.183-11.577-11.577v-181.39c0-6.394 5.183-11.577 11.577-11.577h274.654c6.394 0 11.577 5.183 11.577 11.577v181.39c0 6.394-5.183 11.577-11.577 11.577z" fill="#b6c4cf"/><path d="m346.568 226.309v181.395c0 6.385-5.191 11.576-11.576 11.576h-21.452c6.396 0 11.576-5.191 11.576-11.576v-181.395c0-6.396-5.18-11.576-11.576-11.576h21.453c6.385 0 11.575 5.18 11.575 11.576z" fill="#9facba"/><circle cx="197.662" cy="317.005" fill="#f5f8f9" r="35.781"/><path d="m233.445 317.001c0 19.764-16.025 35.789-35.778 35.789-12.915 0-24.233-6.849-30.536-17.106 3.347 1.03 6.9 1.586 10.587 1.586 19.753 0 35.778-16.015 35.778-35.778 0-6.849-1.926-13.244-5.263-18.682 14.594 4.51 25.212 18.115 25.212 34.191z" fill="#e8edf2"/><path d="m356.404 461.569h-317.485c-8.807 0-15.946-7.139-15.946-15.946v-18.42c0-5.515 4.471-9.986 9.986-9.986h329.404c5.515 0 9.986 4.471 9.986 9.986v18.42c.001 8.807-7.138 15.946-15.945 15.946z" fill="#8d9ca8"/><path d="m372.347 427.2v18.425c0 8.806-7.137 15.943-15.943 15.943h-21.453c8.806 0 15.953-7.137 15.953-15.943v-18.425c0-5.51-4.47-9.98-9.99-9.98h21.453c5.51 0 9.98 4.47 9.98 9.98z" fill="#7a8c98"/><path d="m505.051 510.288h-498.103c-3.837 0-6.948-3.111-6.948-6.948v-36.882c0-3.837 3.111-6.948 6.948-6.948h498.103c3.837 0 6.948 3.111 6.948 6.948v36.882c.001 3.837-3.11 6.948-6.948 6.948z" fill="#596c76"/><path d="m512 466.459v36.88c0 3.841-3.11 6.952-6.952 6.952h-20.598c3.841 0 6.952-3.11 6.952-6.952v-36.88c0-3.841-3.11-6.952-6.952-6.952h20.598c3.842 0 6.952 3.111 6.952 6.952z" fill="#465a61"/></g></svg>