<svg id="Capa_1" enable-background="new 0 0 512 512" height="512" viewBox="0 0 512 512" width="512" xmlns="http://www.w3.org/2000/svg"><g><path d="m425.609 435.464h-394.685c-2.823 0-5.112-2.289-5.112-5.112v-380.943c0-2.823 2.289-5.112 5.112-5.112h394.685c2.823 0 5.112 2.289 5.112 5.112v380.942c0 2.824-2.289 5.113-5.112 5.113z" fill="#edf6ff"/><path d="m425.609 44.297h-30.853c2.824 0 5.112 2.289 5.112 5.112v380.942c0 2.823-2.289 5.112-5.112 5.112h30.853c2.824 0 5.112-2.289 5.112-5.112v-380.942c0-2.823-2.289-5.112-5.112-5.112z" fill="#ddebfd"/><g fill="#faa68e"><path d="m337.805 350.795c-1.65 0-3.311-.534-4.708-1.635l-40.437-31.879c-3.301-2.603-3.867-7.388-1.265-10.689 2.602-3.303 7.388-3.868 10.69-1.265l40.437 31.879c3.301 2.603 3.867 7.389 1.265 10.689-1.502 1.905-3.731 2.9-5.982 2.9z"/><path d="m268.482 325.848c-1.442 0-2.9-.409-4.192-1.264l-44.128-29.192c-3.506-2.32-4.468-7.042-2.149-10.548 2.318-3.506 7.041-4.468 10.547-2.149l44.128 29.192c3.506 2.32 4.468 7.042 2.149 10.548-1.464 2.214-3.887 3.413-6.355 3.413z"/><g><path d="m224.368 296.656c-2.441 0-4.839-1.172-6.31-3.346l-44.961-66.433c-2.357-3.481-1.444-8.214 2.037-10.569 3.482-2.356 8.215-1.445 10.57 2.037l44.961 66.433c2.357 3.481 1.444 8.214-2.037 10.57-1.308.884-2.793 1.308-4.26 1.308z"/><path d="m102.873 296.656c-1.468 0-2.951-.424-4.26-1.309-3.481-2.356-4.393-7.089-2.037-10.57l44.961-66.433c2.356-3.481 7.086-4.394 10.57-2.037 3.481 2.356 4.393 7.088 2.037 10.569l-44.961 66.433c-1.47 2.175-3.869 3.347-6.31 3.347z"/></g></g><path d="m171.986 117.255-3.697 2.894c-2.769 2.168-6.568 2.168-9.338 0l-3.697-2.894c-7.311-5.723-17.636-4.317-23.31 3.173l-9.947 13.129c-12.969 17.118-20.029 38.337-20.029 60.199v21.546c0 6.177 6.1 10.278 11.454 7.7 33.465-16.113 66.93-16.113 100.396 0 5.354 2.578 11.454-1.522 11.454-7.7v-21.546c0-21.863-7.06-43.081-20.029-60.199l-9.947-13.129c-5.674-7.49-15.999-8.895-23.31-3.173z" fill="#655e67"/><path d="m269.189 265.814c-2.485 0-4.92-1.215-6.38-3.45l-8.799-13.471c-2.298-3.52-1.309-8.236 2.21-10.535 3.52-2.3 8.236-1.308 10.535 2.21l8.799 13.471c2.298 3.52 1.309 8.236-2.21 10.535-1.284.839-2.728 1.24-4.155 1.24z" fill="#655e67"/><path d="m295.163 265.846c-1.709 0-3.426-.571-4.845-1.745-3.24-2.678-3.696-7.476-1.018-10.716l11.163-13.504c2.679-3.241 7.477-3.696 10.717-1.017 3.24 2.678 3.696 7.476 1.018 10.716l-11.163 13.504c-1.507 1.82-3.681 2.762-5.872 2.762z" fill="#655e67"/><g fill="#faa68e"><path d="m265.697 418.276c-4.204 0-7.611-3.408-7.611-7.612v-27.664c0-4.204 3.407-7.611 7.611-7.611s7.612 3.408 7.612 7.611v27.665c-.001 4.203-3.408 7.611-7.612 7.611z"/><path d="m297.373 418.276c-4.204 0-7.612-3.408-7.612-7.612v-27.664c0-4.204 3.407-7.611 7.612-7.611s7.611 3.408 7.611 7.611v27.665c0 4.203-3.407 7.611-7.611 7.611z"/></g><path d="m303.287 382.999h-43.504c-1.7 0-3.078-1.378-3.078-3.078v-31.876h49.659v31.876c0 1.7-1.377 3.078-3.077 3.078z" fill="#655e67"/><path d="m287.94 348.045v31.876c0 1.7-1.378 3.078-3.077 3.078h18.425c1.7 0 3.078-1.378 3.078-3.078v-31.876z" fill="#544f56"/><path d="m281.535 293.182c-13.713 0-24.83 11.117-24.83 24.83v30.034h49.659v-30.034c0-13.714-11.116-24.83-24.829-24.83z" fill="#9ec8fc"/><path d="m281.535 293.182c-3.256 0-6.363.633-9.212 1.773 9.15 3.659 15.617 12.6 15.617 23.057v30.034h18.425v-30.034c-.001-13.714-11.117-24.83-24.83-24.83z" fill="#80b6fc"/><g fill="#faa68e"><path d="m184.574 413.227c-4.204 0-7.611-3.408-7.611-7.611v-62.432c0-4.204 3.407-7.611 7.611-7.611s7.611 3.408 7.611 7.611v62.432c0 4.203-3.407 7.611-7.611 7.611z"/><path d="m142.667 413.227c-4.204 0-7.611-3.408-7.611-7.611v-62.432c0-4.204 3.407-7.611 7.611-7.611s7.611 3.408 7.611 7.611v62.432c0 4.203-3.407 7.611-7.611 7.611z"/></g><path d="m149.988 187.988-25.556 147.454c-.701 4.043 2.412 7.741 6.515 7.741h65.347c4.103 0 7.216-3.698 6.515-7.741l-25.556-147.454z" fill="#acd980"/><path d="m202.809 335.442-25.556-147.454h-23.843l25.556 147.454c.701 4.043-2.412 7.741-6.515 7.741h23.842c4.104 0 7.217-3.698 6.516-7.741z" fill="#8cc951"/><path d="m281.535 255.928c-4.204 0-7.612-3.408-7.612-7.611v-15.832c0-4.204 3.407-7.611 7.612-7.611s7.611 3.408 7.611 7.611v15.832c.001 4.203-3.407 7.611-7.611 7.611z" fill="#655e67"/><path d="m192.215 169.118c0 17.963-12.802 32.525-28.595 32.525s-28.595-14.562-28.595-32.525 12.802-20.857 28.595-20.857 28.595 2.894 28.595 20.857z" fill="#faa68e"/><circle cx="281.535" cy="273.146" fill="#faa68e" r="24.83"/><path d="m301.788 204.417c-2.264.978-4.899.02-6.005-2.186l-15.194-30.298c-4.691-9.354-.911-20.74 8.443-25.43 9.354-4.691 20.739-.911 25.43 8.444l.532 1.06c.329.657 1.114.942 1.788.651l1.089-.47c9.606-4.15 20.758.272 24.908 9.878s-.272 20.758-9.878 24.908z" fill="#eebfdb"/><path d="m269.541 113.13c1.664.719 3.6.014 4.412-1.606l11.164-22.262c3.447-6.873.669-15.239-6.204-18.685-6.873-3.447-15.239-.669-18.686 6.204l-.391.779c-.242.483-.818.692-1.314.478l-.8-.346c-7.058-3.049-15.252.2-18.302 7.258s.2 15.252 7.258 18.302z" fill="#eebfdb"/><g fill="#655e67"><path d="m44.011 110.635h-36.4c-4.204 0-7.611-3.408-7.611-7.611s3.407-7.611 7.611-7.611h36.399c4.204 0 7.611 3.408 7.611 7.611s-3.406 7.611-7.61 7.611z"/><path d="m44.011 179.063h-36.4c-4.204 0-7.611-3.408-7.611-7.611 0-4.204 3.407-7.611 7.611-7.611h36.399c4.204 0 7.611 3.408 7.611 7.611.001 4.204-3.406 7.611-7.61 7.611z"/><path d="m44.011 247.492h-36.4c-4.204 0-7.611-3.408-7.611-7.611 0-4.204 3.407-7.611 7.611-7.611h36.399c4.204 0 7.611 3.408 7.611 7.611.001 4.203-3.406 7.611-7.61 7.611z"/><path d="m44.011 315.92h-36.4c-4.204 0-7.611-3.408-7.611-7.611 0-4.204 3.407-7.612 7.611-7.612h36.399c4.204 0 7.611 3.408 7.611 7.612.001 4.203-3.406 7.611-7.61 7.611z"/><path d="m44.011 384.349h-36.4c-4.204 0-7.611-3.408-7.611-7.612s3.407-7.611 7.611-7.611h36.399c4.204 0 7.611 3.408 7.611 7.611.001 4.204-3.406 7.612-7.61 7.612z"/></g><path d="m351.168 423.283-28.473 3.496c-2.082.256-3.647 2.024-3.647 4.122v14.154c0 2.098 1.565 3.866 3.647 4.122l28.473 3.496c1.744.214 3.054 1.695 3.054 3.452v2.864c0 4.813 3.902 8.715 8.715 8.715h19.032v-59.451h-19.032c-4.813 0-8.715 3.902-8.715 8.715v2.864c.001 1.756-1.31 3.237-3.054 3.451z" fill="#eebfdb"/><path d="m512 459.548v-43.141c0-4.504-3.651-8.155-8.155-8.155h-121.876v59.451h121.875c4.505 0 8.156-3.651 8.156-8.155z" fill="#766d78"/><path d="m482.005 467.703h21.84c4.504 0 8.155-3.651 8.155-8.155v-43.141c0-4.504-3.651-8.155-8.155-8.155h-21.84z" fill="#eebfdb"/><path d="m377.926 284.769-15.624 24.059c-1.143 1.759-.794 4.095.813 5.443l10.842 9.098c1.607 1.348 3.967 1.287 5.502-.144l20.98-19.564c1.285-1.198 3.262-1.25 4.608-.121l2.194 1.841c3.687 3.094 9.184 2.613 12.278-1.074l12.233-14.579-45.542-38.215-12.234 14.579c-3.094 3.687-2.613 9.184 1.074 12.278l2.194 1.841c1.346 1.129 1.639 3.085.682 4.558z" fill="#acd980"/><path d="m509.087 184.876-33.048-27.73c-3.45-2.895-8.594-2.445-11.489 1.005l-78.34 93.362 45.542 38.215 78.34-93.362c2.895-3.451 2.445-8.595-1.005-11.49z" fill="#766d78"/><path d="m496.053 213.096 14.039-16.731c2.895-3.45 2.445-8.594-1.005-11.489l-33.048-27.73c-3.45-2.895-8.594-2.445-11.489 1.005l-14.039 16.73z" fill="#acd980"/></g></svg>