<svg id="Capa_1" enable-background="new 0 0 512 512" height="512" viewBox="0 0 512 512" width="512" xmlns="http://www.w3.org/2000/svg"><g><path d="m163.107 153.783c-28.588-13.305-56.194-42.88-70.465-75.417-6.37-14.523 4.647-30.711 20.495-30.122 24.147.897 46.677-12.104 57.983-33.459l1.777-3.356c7.706-14.556 28.191-15.366 37.12-1.526 23.73 36.78 37.275 92.43 45.984 143.88z" fill="#dd636e"/><path d="m348.893 153.783c28.588-13.305 56.194-42.88 70.465-75.417 6.37-14.523-4.647-30.711-20.495-30.122-24.147.897-46.677-12.104-57.983-33.459l-1.777-3.356c-7.706-14.556-28.191-15.366-37.12-1.526-23.73 36.78-37.275 92.43-45.984 143.88z" fill="#dd636e"/><g><path d="m219.58 161.511c-.725 0-1.463-.103-2.194-.32-1.419-.42-34.933-10.595-50.653-37.476-2.154-3.684-.914-8.416 2.769-10.57 3.682-2.153 8.415-.915 10.57 2.769 12.591 21.53 41.422 30.376 41.712 30.463 4.083 1.224 6.41 5.524 5.193 9.609-.999 3.354-4.068 5.525-7.397 5.525z" fill="#da4a54"/></g><g><path d="m228.332 134.497c-4.154 0-7.584-3.299-7.718-7.479-.222-6.625-2.309-18.937-6.968-23.775-2.96-3.074-2.868-7.965.206-10.925 3.074-2.959 7.965-2.867 10.925.206 10.28 10.676 11.21 31.653 11.283 34.01.131 4.265-3.221 7.828-7.486 7.959-.082.003-.162.004-.242.004z" fill="#da4a54"/></g><g><path d="m292.418 161.511c-3.335 0-6.411-2.176-7.405-5.536-1.21-4.088 1.12-8.382 5.204-9.598.345-.104 29.133-8.954 41.71-30.463 2.156-3.684 6.886-4.924 10.57-2.769 3.683 2.154 4.924 6.886 2.77 10.57-15.721 26.881-49.234 37.056-50.653 37.476-.731.217-1.471.32-2.196.32z" fill="#da4a54"/></g><g><path d="m283.668 134.491c-.084 0-.167-.002-.252-.004-4.261-.137-7.606-3.693-7.475-7.954.071-2.357 1.002-23.334 11.282-34.009 2.959-3.075 7.851-3.167 10.925-.207 3.073 2.96 3.166 7.851.206 10.925-4.658 4.838-6.745 17.15-6.968 23.775-.14 4.177-3.569 7.474-7.718 7.474z" fill="#da4a54"/></g><path d="m292.871 153.783h-73.742v-19.735c0-15.395 12.48-27.875 27.875-27.875h17.992c15.395 0 27.875 12.48 27.875 27.875z" fill="#da4a54"/><path d="m412.398 512h-312.796c-13.904 0-25.175-11.271-25.175-25.175v-269.759h363.147v269.759c0 13.904-11.272 25.175-25.176 25.175z" fill="#78c2a4"/><path d="m74.426 217.066v18.403h299.064c22.921 0 41.502 18.581 41.502 41.502v209.855c0 13.904-11.271 25.175-25.175 25.175h22.582c13.904 0 25.175-11.271 25.175-25.175v-269.76z" fill="#66b394"/><path d="m473.169 217.066h-434.338c-5.563 0-10.073-4.51-10.073-10.073v-43.137c0-5.563 4.51-10.073 10.073-10.073h434.338c5.563 0 10.073 4.51 10.073 10.073v43.137c0 5.563-4.51 10.073-10.073 10.073z" fill="#78c2a4"/><path d="m473.169 153.783h-25.673c5.563 0 10.073 4.51 10.073 10.073v43.137c0 5.563-4.51 10.073-10.073 10.073h25.673c5.563 0 10.073-4.51 10.073-10.073v-43.137c0-5.563-4.51-10.073-10.073-10.073z" fill="#66b394"/><path d="m74.426 233.673c-27.013 13.577-50.695 31.174-72.502 54.249-3.417 3.616-2.105 9.544 2.527 11.359l11.456 4.489c4.225 1.656 6.667 6.091 5.807 10.547l-1.962 10.161c-1.185 6.139 5.679 10.677 10.823 7.122 17.95-12.402 32.976-25.932 43.851-42.93z" fill="#dd636e"/><path d="m54.815 312.175c7.498-7.147 14.091-14.878 19.611-23.506v-54.997c-6.737 3.386-13.266 7.022-19.611 10.931z" fill="#da4a54"/><path d="m437.574 233.673c27.013 13.577 50.695 31.174 72.502 54.249 3.417 3.616 2.105 9.544-2.527 11.359l-11.456 4.489c-4.225 1.656-6.667 6.091-5.807 10.547l1.962 10.161c1.185 6.139-5.679 10.677-10.823 7.122-17.95-12.402-32.976-25.932-43.851-42.93z" fill="#dd636e"/><path d="m457.185 312.175v-67.571c-6.345-3.909-12.875-7.545-19.611-10.931v54.997c5.519 8.627 12.113 16.359 19.611 23.505z" fill="#da4a54"/><g><path d="m176.89 252.272 5.298 8.003c.557.841 1.398 1.452 2.37 1.722l9.248 2.565c2.887.801 4.02 4.289 2.155 6.633l-5.974 7.511c-.628.789-.949 1.778-.905 2.786l.418 9.588c.131 2.993-2.836 5.149-5.643 4.1l-8.99-3.361c-.944-.353-1.985-.353-2.929 0l-8.99 3.361c-2.806 1.049-5.773-1.106-5.643-4.1l.418-9.588c.044-1.007-.277-1.997-.905-2.786l-5.974-7.511c-1.865-2.345-.732-5.833 2.155-6.633l9.248-2.565c.972-.269 1.813-.881 2.37-1.722l5.298-8.003c1.654-2.498 5.321-2.498 6.975 0z" fill="#ffe07d"/></g><g><path d="m121.843 366.407 5.298 8.003c.557.841 1.398 1.452 2.37 1.722l9.248 2.565c2.887.801 4.02 4.289 2.155 6.633l-5.974 7.511c-.628.789-.949 1.778-.905 2.786l.418 9.588c.131 2.993-2.836 5.149-5.643 4.1l-8.99-3.361c-.944-.353-1.985-.353-2.929 0l-8.99 3.361c-2.806 1.049-5.773-1.106-5.643-4.1l.418-9.588c.044-1.007-.277-1.997-.905-2.786l-5.974-7.511c-1.865-2.345-.732-5.833 2.155-6.633l9.248-2.565c.972-.269 1.813-.881 2.37-1.722l5.298-8.003c1.654-2.499 5.321-2.499 6.975 0z" fill="#ffe07d"/></g><g><path d="m199.97 431.599 8.91 3.567c.936.375 1.976.399 2.928.067l9.065-3.153c2.83-.984 5.746 1.239 5.547 4.229l-.639 9.576c-.067 1.006.231 2.002.841 2.806l5.8 7.647c1.811 2.387.597 5.848-2.308 6.582l-9.305 2.351c-.978.247-1.833.839-2.409 1.667l-5.48 7.879c-1.711 2.46-5.377 2.375-6.973-.161l-5.112-8.123c-.537-.853-1.364-1.484-2.329-1.776l-9.187-2.778c-2.868-.867-3.921-4.38-2.002-6.681l6.146-7.372c.646-.774.99-1.756.969-2.764l-.197-9.595c-.062-2.995 2.954-5.082 5.735-3.968z" fill="#ffe07d"/></g><g><path d="m409.975 433.772 1.069 9.538c.112 1.002.583 1.93 1.325 2.612l7.064 6.498c2.205 2.028 1.625 5.649-1.104 6.887l-8.741 3.964c-.918.416-1.655 1.151-2.075 2.067l-3.997 8.726c-1.248 2.724-4.871 3.291-6.891 1.078l-6.471-7.088c-.68-.745-1.606-1.219-2.607-1.335l-9.534-1.105c-2.976-.345-4.635-3.616-3.155-6.221l4.741-8.345c.498-.877.663-1.904.464-2.892l-1.895-9.408c-.592-2.937 2.006-5.525 4.941-4.923l9.401 1.931c.988.203 2.015.042 2.894-.453l8.362-4.71c2.611-1.47 5.875.201 6.209 3.179z" fill="#ffe07d"/></g><g><path d="m362.787 273.188 1.668 9.451c.175.993.703 1.889 1.487 2.523l7.459 6.039c2.329 1.885 1.978 5.536-.668 6.943l-8.473 4.507c-.89.474-1.579 1.253-1.94 2.194l-3.439 8.96c-1.073 2.797-4.654 3.591-6.809 1.511l-6.905-6.666c-.725-.7-1.679-1.115-2.686-1.168l-9.584-.501c-2.992-.157-4.854-3.316-3.541-6.009l4.206-8.627c.442-.906.541-1.942.28-2.915l-2.485-9.27c-.776-2.894 1.654-5.641 4.621-5.224l9.504 1.334c.998.14 2.014-.085 2.859-.634l8.049-5.228c2.513-1.633 5.876-.171 6.397 2.78z" fill="#ffe07d"/></g><path d="m230.327 153.783h51.346v63.283h-51.346z" fill="#dd636e"/><path d="m220.095 217.066h71.81v294.934h-71.81z" fill="#dd636e"/><path d="m220.095 217.066h71.81v18.403h-71.81z" fill="#da4a54"/></g></svg>