<svg id="Capa_1" enable-background="new 0 0 512 512" height="512" viewBox="0 0 512 512" width="512" xmlns="http://www.w3.org/2000/svg"><g><ellipse cx="256" cy="372.562" fill="#99d980" rx="256" ry="106.953"/><path d="m512 372.566c0 59.06-114.618 106.954-256 106.954-6.84 0-13.629-.114-20.336-.33 131.873-4.337 235.664-50.427 235.664-106.624 0-56.207-103.791-102.287-235.664-106.624 6.706-.216 13.495-.33 20.336-.33 141.382.001 256 47.884 256 106.954z" fill="#83d167"/><g><ellipse cx="178.64" cy="385.001" fill="#54c032" rx="64.482" ry="25.862"/><path d="m233.845 398.363c-11.301 7.49-31.791 12.496-55.207 12.496s-43.917-5.007-55.207-12.496c11.291-7.489 31.791-12.496 55.207-12.496s43.906 5.007 55.207 12.496z" fill="#4ba72d"/></g><path d="m160.523 40.207v368.485c0 .381-.031.752-.093 1.113-5.46-.639-10.611-1.556-15.36-2.73v-366.868c0-4.275 3.461-7.726 7.726-7.726 4.265-.001 7.727 3.45 7.727 7.726z" fill="#eff5f6"/><path d="m160.523 75.49v88.709l-11.219 3.863c-1.422.494-2.854.649-4.234.525v-97.485c1.38-.124 2.812.041 4.234.525z" fill="#cbe5e7"/><g fill="#83d167"><path d="m336.669 422.261c-3.817 0-7.137-2.829-7.65-6.716l-.97-7.349c-.558-4.23 2.419-8.113 6.649-8.671 4.225-.558 8.113 2.418 8.671 6.649l.97 7.349c.558 4.23-2.418 8.113-6.649 8.671-.343.045-.684.067-1.021.067z"/><path d="m359.504 422.261c-.337 0-.678-.022-1.021-.067-4.23-.558-7.207-4.441-6.649-8.671l.97-7.349c.558-4.23 4.442-7.205 8.671-6.649 4.23.558 7.207 4.441 6.649 8.671l-.97 7.349c-.513 3.887-3.833 6.716-7.65 6.716z"/></g><g fill="#54c032"><path d="m62.37 379.317c-3.817 0-7.136-2.828-7.65-6.715l-.971-7.349c-.558-4.23 2.417-8.113 6.648-8.672 4.224-.566 8.113 2.417 8.672 6.648l.971 7.349c.558 4.23-2.417 8.113-6.648 8.672-.343.044-.685.067-1.022.067z"/><path d="m85.204 379.317c-.338 0-.678-.022-1.022-.067-4.23-.559-7.206-4.442-6.648-8.672l.971-7.349c.559-4.23 4.445-7.198 8.672-6.648 4.23.559 7.206 4.442 6.648 8.672l-.971 7.349c-.514 3.886-3.833 6.715-7.65 6.715z"/></g><g fill="#4ba72d"><path d="m389.17 370.54c-3.817 0-7.136-2.828-7.65-6.715l-.971-7.349c-.558-4.23 2.418-8.113 6.648-8.672 4.226-.556 8.113 2.418 8.672 6.648l.971 7.349c.558 4.23-2.418 8.113-6.648 8.672-.343.045-.685.067-1.022.067z"/><path d="m412.004 370.54c-.338 0-.678-.022-1.022-.067-4.23-.559-7.206-4.442-6.648-8.672l.971-7.349c.56-4.23 4.444-7.201 8.672-6.648 4.23.559 7.206 4.442 6.648 8.672l-.971 7.349c-.514 3.886-3.833 6.715-7.65 6.715z"/></g><g fill="#54c032"><path d="m251.556 340.857c-3.817 0-7.137-2.829-7.65-6.716l-.97-7.349c-.558-4.23 2.419-8.113 6.649-8.671 4.225-.558 8.113 2.419 8.671 6.649l.97 7.349c.558 4.23-2.419 8.113-6.649 8.671-.343.045-.684.067-1.021.067z"/><path d="m274.391 340.857c-.337 0-.678-.022-1.021-.067-4.23-.558-7.207-4.441-6.649-8.671l.97-7.349c.558-4.23 4.443-7.205 8.671-6.649 4.23.558 7.207 4.441 6.649 8.671l-.97 7.349c-.513 3.887-3.833 6.716-7.65 6.716z"/></g><g><ellipse cx="348.087" cy="316.94" fill="#83d167" rx="52.5" ry="12.704"/><g><circle cx="346.286" cy="275.925" fill="#eff5f6" r="36.703"/><path d="m382.99 275.931c0 20.258-16.427 36.699-36.699 36.699-5.759 0-11.2-1.33-16.042-3.684 12.224-5.959 20.657-18.502 20.657-33.014s-8.433-27.069-20.657-33.028c4.842-2.354 10.282-3.684 16.042-3.684 20.272-.002 36.699 16.439 36.699 36.711z" fill="#cbe5e7"/></g></g><path d="m135.651 68.834v76.955c0 7.073 6.965 12.043 13.654 9.741l103.375-35.572c12.03-4.14 12.03-21.154 0-25.293l-103.375-35.572c-6.689-2.301-13.654 2.668-13.654 9.741z" fill="#fb6a3b"/><path d="m252.675 119.959-103.372 35.571c-6.689 2.302-13.654-2.668-13.654-9.741v-9.661c62.579-18.871 80.995-38.572 84.834-52.534l32.192 11.074c12.037 4.132 12.037 21.144 0 25.291z" fill="#fb5532"/></g></svg>