<svg height="512pt" viewBox="0 -17 512 512" width="512pt" xmlns="http://www.w3.org/2000/svg"><path d="m496 478.96875h-480c-8.835938 0-16-7.164062-16-16v-331.355469c0-8.835937 7.164062-16 16-16h480c8.835938 0 16 7.164063 16 16v331.355469c0 8.835938-7.164062 16-16 16zm0 0" fill="#eceaec"/><path d="m41.289062 214.707031 57.804688-57.804687 66.0625 66.0625-57.804688 57.808594zm0 0" fill="#ccf49f"/><path d="m128.710938 115.613281-87.421876 87.417969-41.289062-41.289062v23.355468l95.675781 95.675782-95.675781 95.679687v23.351563l107.355469-107.351563 58.515625 58.515625-128 128h23.355468l175.839844-175.839844-11.679687-11.675781-47.839844 47.835937-58.515625-58.515624 51.96875-51.96875-11.675781-11.675782-51.96875 51.96875-54.386719-54.386718 99.097656-99.097657zm0 0" fill="#fff"/><path d="m16.515625 429.417969v-313.804688c-9.121094 0-16.515625 7.394531-16.515625 16.515625v330.324219c0 9.121094 7.394531 16.515625 16.515625 16.515625h478.96875c9.121094 0 16.515625-7.394531 16.515625-16.515625h-462.453125c-18.242187 0-33.03125-14.789063-33.03125-33.035156zm0 0" fill="#dad8db"/><path d="m388.128906 388.128906h16.515625v90.839844h-16.515625zm0 0" fill="#fff"/><path d="m388.128906 462.453125h16.515625v16.515625h-16.515625zm0 0" fill="#eceaec"/><path d="m499.710938 116.226562-143.582032 143.578126-35.453125-35.449219c-3.226562-3.226563-8.449219-3.226563-11.675781 0-3.226562 3.226562-3.226562 8.449219 0 11.675781l35.453125 35.453125-61.257813 61.257813 11.675782 11.675781 216.515625-216.515625c-1.515625-5.703125-5.972657-10.160156-11.675781-11.675782zm0 0" fill="#fff"/><path d="m229.515625 348.546875-18.226563 18.230469c-3.097656 3.09375-4.835937 7.296875-4.835937 11.675781v26.191406c0 4.5625 3.695313 8.257813 8.257813 8.257813h41.289062c4.5625 0 8.257812-3.695313 8.257812-8.257813v-26.191406c0-4.378906-1.738281-8.582031-4.835937-11.679687l-18.226563-18.226563c-3.226562-3.222656-8.457031-3.222656-11.679687 0zm0 0" fill="#f6d190"/><path d="m427.355469 269.074219c-47.519531 17.105469-60.746094 37.535156-55.742188 55.054687 5.503907 19.269532 24.773438 30.96875 57.804688 14.453125s67.441406-8.257812 82.582031 24.773438v-181.679688c-64.6875 18.582031-33.03125 68.820313-84.644531 87.398438zm0 0" fill="#c3ddff"/><path d="m347.425781 379.871094c-8.691406 0-17.207031-3.523438-23.363281-9.675782l-254.578125-254.582031h-23.355469l266.257813 266.257813c9.226562 9.226562 22 14.515625 35.039062 14.515625h164.574219v-16.515625zm0 0" fill="#ffe07d"/><g fill="#eceaec"><path d="m16.515625 178.257812-16.515625-16.515624v23.355468l16.515625 16.515625zm0 0"/><path d="m16.515625 359.9375-16.515625 16.515625v23.351563l16.515625-16.515626zm0 0"/><path d="m54.386719 462.453125-16.515625 16.515625h23.355468l16.515626-16.515625zm0 0"/></g><path d="m430.410156 313.804688c-30.285156 15.144531-48.976562 6.503906-56.125-9.882813-3.871094 6.910156-4.511718 13.777344-2.671875 20.207031 5.503907 19.269532 24.773438 30.96875 57.804688 14.453125s67.441406-8.257812 82.582031 24.773438v-26.6875c-15.589844-31.382813-49.226562-39.042969-81.589844-22.863281zm0 0" fill="#a4ccff"/><path d="m206.453125 392.257812 17.222656-17.226562c6.453125-6.449219 16.910157-6.449219 23.359375 0l17.222656 17.226562v-13.804687c0-4.378906-1.738281-8.582031-4.835937-11.679687l-18.226563-18.226563c-3.226562-3.222656-8.457031-3.222656-11.679687 0l-18.226563 18.226563c-3.097656 3.097656-4.839843 7.296874-4.839843 11.679687v13.804687zm0 0" fill="#ecbd83"/><path d="m275.753906 1.292969c-25.964844 5.054687-46.785156 26.117187-51.609375 52.121093-5.820312 31.386719 10.570313 59.734376 36.140625 72.109376 6.664063 3.222656 11.15625 9.714843 12.613282 16.976562l12.273437 61.214844c.847656 4.21875 6.878906 4.21875 7.722656 0l12.277344-61.222656c1.460937-7.277344 5.980469-13.753907 12.660156-16.992188 22.054688-10.699219 37.265625-33.277344 37.265625-59.433594 0-40.828125-37.035156-73.007812-79.34375-64.773437zm13.277344 97.804687c-18.242188 0-33.03125-14.789062-33.03125-33.03125 0-18.246094 14.789062-33.035156 33.03125-33.035156s33.03125 14.789062 33.03125 33.035156c0 18.242188-14.789062 33.03125-33.03125 33.03125zm0 0" fill="#ff8086"/><path d="m289.03125 125.019531c0-6.6875-4.191406-12.445312-10.304688-15.164062-23.113281-10.277344-39.242187-33.382813-39.242187-60.308594 0-14.039063 4.398437-27.183594 11.867187-37.886719-13.902343 9.679688-24.039062 24.667969-27.210937 41.753906-5.820313 31.382813 10.566406 59.722657 36.132813 72.101563 6.671874 3.230469 11.167968 9.734375 12.625 17l12.273437 61.199219c.421875 2.109375 2.140625 3.164062 3.859375 3.164062zm0 0" fill="#e5646e"/></svg>