<svg height="512.001pt" viewBox="0 0 512.001 512.001" width="512.001pt" xmlns="http://www.w3.org/2000/svg"><path d="m196.25 41.207031h-94.777344c-2.277344 0-4.121094-1.84375-4.121094-4.121093v-32.964844c0-2.277344 1.84375-4.121094 4.121094-4.121094h94.777344c2.273438 0 4.121094 1.84375 4.121094 4.121094v32.964844c0 2.277343-1.847656 4.121093-4.121094 4.121093zm0 0" fill="#ec407a"/><path d="m105.078125 41.210938h87.5625v175.128906h-87.5625zm0 0" fill="#ede7e5"/><path d="m415.058594 221.265625v278.476563h-321.105469v-278.476563l160.554687-107.210937zm0 0" fill="#ede7e5"/><path d="m384.15625 200.628906v299.113282h30.902344v-278.476563zm0 0" fill="#dbd3d0"/><path d="m477.398438 243.453125v21.5c0 8.660156-9.703126 13.773437-16.84375 8.882813l-200.980469-137.652344c-3.054688-2.089844-7.078125-2.089844-10.132813 0l-200.976562 137.652344c-7.144532 4.890624-16.847656-.222657-16.847656-8.882813v-21.5c0-7.394531 3.648437-14.316406 9.753906-18.5l208.070312-142.515625c3.054688-2.089844 7.078125-2.089844 10.132813 0l208.070312 142.515625c6.105469 4.183594 9.753907 11.105469 9.753907 18.5zm0 0" fill="#ec407a"/><path d="m467.644531 224.953125-21.152343-14.488281v6.992187c0 8.660157-9.703126 13.773438-16.84375 8.882813l-168.632813-118.242188c-3.90625-2.742187-9.113281-2.746094-13.023437-.015625l-216.375 151.007813v5.863281c0 8.660156 9.703124 13.773437 16.847656 8.882813l200.976562-137.652344c3.054688-2.089844 7.078125-2.089844 10.132813 0l200.976562 137.652344c7.144531 4.890624 16.847657-.222657 16.847657-8.882813v-21.496094c0-7.398437-3.648438-14.320312-9.753907-18.503906zm0 0" fill="#d81b60"/><path d="m254.953125 281.230469c.535156.679687 1.558594.679687 2.09375 0 4.332031-5.476563 22.101563-25.230469 53.039063-25.230469 32.015624 0 54.085937 27.332031 54.085937 59.164062 0 36.660157-29.777344 80-106.984375 117.753907-.746094.363281-1.628906.363281-2.371094 0-77.210937-37.753907-106.984375-81.09375-106.984375-117.753907 0-31.832031 22.066407-59.164062 54.085938-59.164062 30.933593 0 48.703125 19.753906 53.035156 25.230469zm0 0" fill="#ec407a"/><path d="m310.085938 256c-5.984376 0-11.472657.746094-16.46875 1.976562 24.023437 6.816407 39.648437 30.40625 39.648437 57.1875 0 34.308594-26.082031 74.46875-92.714844 110.425782 4.5625 2.464844 9.316407 4.90625 14.265625 7.328125.746094.363281 1.628906.363281 2.371094 0 77.207031-37.753907 106.984375-81.09375 106.984375-117.753907-.003906-31.832031-22.070313-59.164062-54.085937-59.164062zm0 0" fill="#d81b60"/><path d="m461.652344 417.449219c-3.996094-6.335938-10.5625-10.777344-18.261719-11.613281-2.035156-.222657-3.765625-1.65625-4.449219-3.664063-4.253906-12.535156-15.734375-21.519531-29.234375-21.519531-18.078125 0-31.867187 15.851562-30.976562 33.878906.140625 2.824219-1.804688 5.351562-4.496094 5.753906-15.410156 2.296875-27.0625 16.359375-26.53125 33.03125.558594 17.53125 14.910156 31.183594 31.757813 31.183594h82.761718c16.800782 0 31.117188-13.59375 31.730469-31.070312.609375-17.371094-11.980469-31.820313-28.152344-33.347657-1.707031-.160156-3.207031-1.144531-4.148437-2.632812zm0 0" fill="#9ccc65"/><path d="m465.796875 420.082031c-1.703125-.160156-3.203125-1.144531-4.144531-2.632812-3.996094-6.335938-10.5625-10.777344-18.261719-11.613281-2.035156-.222657-3.765625-1.65625-4.449219-3.664063-4.253906-12.535156-15.734375-21.519531-29.234375-21.519531-5.695312 0-10.964843 1.574218-15.484375 4.296875 6.375 3.816406 11.332032 9.90625 13.8125 17.222656.683594 2.007813 2.414063 3.441406 4.449219 3.664063 7.699219.835937 14.269531 5.277343 18.261719 11.613281.941406 1.488281 2.441406 2.472656 4.148437 2.632812 16.171875 1.523438 28.757813 15.976563 28.152344 33.347657-.613281 17.476562-14.925781 31.070312-31.730469 31.070312h30.90625c16.800782 0 31.117188-13.59375 31.726563-31.070312.609375-17.371094-11.976563-31.824219-28.152344-33.347657zm0 0" fill="#7cb342"/><path d="m50.347656 417.449219c3.996094-6.335938 10.5625-10.777344 18.261719-11.613281 2.035156-.222657 3.765625-1.65625 4.449219-3.664063 4.253906-12.535156 15.734375-21.519531 29.234375-21.519531 18.078125 0 31.867187 15.851562 30.976562 33.878906-.140625 2.824219 1.804688 5.351562 4.496094 5.753906 15.410156 2.296875 27.0625 16.359375 26.53125 33.03125-.558594 17.53125-14.910156 31.183594-31.757813 31.183594h-82.761718c-16.800782 0-31.117188-13.59375-31.730469-31.070312-.609375-17.371094 11.980469-31.820313 28.152344-33.347657 1.707031-.160156 3.207031-1.144531 4.148437-2.632812zm0 0" fill="#9ccc65"/><path d="m137.765625 420.285156c-2.691406-.402344-4.636719-2.929687-4.496094-5.753906.890625-18.027344-12.898437-33.878906-30.976562-33.878906-5.617188 0-10.878907 1.574218-15.421875 4.292968 9.824218 5.914063 16.101562 17.238282 15.492187 29.585938-.140625 2.820312 1.804688 5.351562 4.496094 5.753906 15.410156 2.296875 27.0625 16.359375 26.53125 33.03125-.558594 17.527344-14.910156 31.183594-31.757813 31.183594h30.902344c16.851563 0 31.199219-13.65625 31.761719-31.183594.53125-16.671875-11.121094-30.734375-26.53125-33.03125zm0 0" fill="#7cb342"/><path d="m165.121094 115.011719c0 4.136719-3.359375 7.5-7.5 7.5h-52.542969v-15h52.542969c4.140625 0 7.5 3.359375 7.5 7.5zm0 0" fill="#d1c6c2"/><path d="m192.640625 67.710938v15h-23.179687c-4.140626 0-7.5-3.359376-7.5-7.5 0-4.152344 3.359374-7.5 7.5-7.5zm0 0" fill="#d1c6c2"/><path d="m496.546875 512h-481.09375c-8.535156 0-15.453125-6.917969-15.453125-15.453125s6.917969-15.453125 15.453125-15.453125h481.09375c8.535156 0 15.453125 6.917969 15.453125 15.453125s-6.917969 15.453125-15.453125 15.453125zm0 0" fill="#d6805e"/><path d="m496.546875 481.09375h-30.90625c8.535156 0 15.453125 6.917969 15.453125 15.453125s-6.917969 15.453125-15.453125 15.453125h30.90625c8.535156 0 15.453125-6.917969 15.453125-15.453125s-6.917969-15.453125-15.453125-15.453125zm0 0" fill="#c27455"/></svg>