<svg id="Capa_1" enable-background="new 0 0 512 512" height="512" viewBox="0 0 512 512" width="512" xmlns="http://www.w3.org/2000/svg"><g><path d="m314.845 485.823v-7.449l8.407-84.064v-8.819h-134.504v8.819l8.407 84.064v7.449z" fill="#d78683"/><path d="m188.748 385.491v8.819l2.335 23.342h106.493l-6.073 60.722v7.449h23.342v-7.449l8.407-84.064v-8.819z" fill="#af5f5c"/><path d="m416.129 512h-320.258c-4.418 0-8-3.582-8-8v-17.626c0-4.418 3.582-8 8-8h320.258c4.418 0 8 3.582 8 8v17.626c0 4.418-3.582 8-8 8z" fill="#e6ecf2"/><g><path d="m365.571 276.619h-60.283c-17.936 0-32.476 14.54-32.476 32.476h-33.626c0-17.936-14.54-32.476-32.476-32.476h-60.283c-4.484 0-8.119 3.635-8.119 8.119v9.844c0 17.936 14.54 32.476 32.475 32.476h56.41l11.991-10.094h33.626l11.991 10.094h56.41c17.936 0 32.476-14.54 32.476-32.476v-9.844c.003-4.484-3.632-8.119-8.116-8.119z" fill="#c4e83b"/><path d="m365.571 276.619h-23.342c4.484 0 8.119 3.635 8.119 8.119v9.844c0 17.936-14.54 32.476-32.476 32.476h23.342c17.936 0 32.476-14.54 32.476-32.476v-9.844c0-4.484-3.635-8.119-8.119-8.119z" fill="#9edb2c"/><path d="m207.726 327.058h19.469l11.991-10.094v-7.869c0-17.936-14.54-32.476-32.476-32.476h-23.34c17.936 0 32.476 14.54 32.476 32.476v9.844c-.001 4.484-3.636 8.119-8.12 8.119z" fill="#9edb2c"/><path d="m241.196 318.431-31.147-22.74c-3.395-2.478-8.157-1.736-10.636 1.66-2.479 3.395-1.736 8.157 1.66 10.636l26.123 19.072h3.873c4.484 0 8.119-3.635 8.119-8.119h2.632c-.198-.179-.405-.349-.624-.509z" fill="#69b921"/><path d="m301.951 295.691-31.147 22.74c-.219.16-.426.33-.623.508h2.632c0 4.484 3.635 8.119 8.119 8.119h3.873l26.122-19.072c3.395-2.479 4.138-7.241 1.66-10.636-2.479-3.395-7.241-4.136-10.636-1.659z" fill="#69b921"/><path d="m239.187 253.205h33.626v114.08h-33.626z" fill="#9edb2c"/><path d="m249.471 253.205h23.342v114.08h-23.342z" fill="#69b921"/></g><g><path d="m340.064 91.678c0-46.935-38.464-84.886-85.589-84.051-45.992.815-82.541 38.053-82.54 84.052 0 31.084 16.879 58.215 41.966 72.758 5.191 3.009 8.473 8.469 8.473 14.469v16.694h67.251v-16.567c0-6.07 3.313-11.596 8.56-14.647 25.04-14.556 41.879-41.66 41.879-72.708z" fill="#ffe14d"/><path d="m254.476 7.627c-3.428.061-6.795.347-10.107.801 40.883 5.699 72.354 40.797 72.354 83.25 0 31.049-16.84 58.153-41.879 72.708-5.247 3.051-8.56 8.577-8.56 14.647v16.567h23.342v-16.567c0-6.07 3.313-11.596 8.56-14.647 25.039-14.555 41.879-41.659 41.879-72.708-.001-46.935-38.464-84.886-85.589-84.051z" fill="#fabe2c"/><path d="m273.626 259.807h-35.251c-8.836 0-16-7.164-16-16v-20.671h67.251v20.671c0 8.836-7.164 16-16 16z" fill="#b9c9d9"/><path d="m272.813 117.692h-33.626c-4.204 0-7.611 3.408-7.611 7.612s3.408 7.611 7.611 7.611h9.202v59.64c0 4.204 3.408 7.611 7.611 7.611 4.204 0 7.612-3.408 7.612-7.611v-59.64h9.202c4.204 0 7.611-3.408 7.611-7.611 0-4.204-3.408-7.612-7.612-7.612z" fill="#fd697f"/><path d="m266.284 223.136v20.433c0 8.968-7.27 16.238-16.238 16.238h23.342c8.968 0 16.238-7.27 16.238-16.238v-20.433z" fill="#8fa7bf"/><path d="m289.626 226.181c9.286 0 16.813-7.527 16.813-16.813 0-9.285-7.527-16.813-16.813-16.813h-67.251c-9.286 0-16.813 7.527-16.813 16.813s7.527 16.813 16.813 16.813z" fill="#e6ecf2"/><path d="m289.626 192.555h-23.342c9.286 0 16.813 7.527 16.813 16.813s-7.527 16.813-16.813 16.813h23.342c9.286 0 16.813-7.527 16.813-16.813s-7.528-16.813-16.813-16.813z" fill="#b9c9d9"/></g><g><g><path d="m121.497 132.915h-33.626c-4.204 0-7.611-3.408-7.611-7.611 0-4.204 3.408-7.612 7.611-7.612h33.626c4.204 0 7.611 3.408 7.611 7.612 0 4.203-3.407 7.611-7.611 7.611z" fill="#afddf8"/></g><g><path d="m119.413 250.607c-2.63 0-5.189-1.365-6.599-3.807-2.102-3.64-.855-8.295 2.786-10.397l29.12-16.813c3.638-2.101 8.295-.855 10.397 2.786 2.102 3.64.855 8.295-2.786 10.397l-29.12 16.813c-1.197.692-2.506 1.021-3.798 1.021z" fill="#afddf8"/></g><g><path d="m392.587 250.607c-1.291 0-2.6-.329-3.799-1.021l-29.12-16.813c-3.641-2.102-4.888-6.757-2.786-10.397 2.102-3.641 6.756-4.889 10.397-2.786l29.12 16.813c3.641 2.102 4.888 6.757 2.786 10.397-1.409 2.442-3.968 3.807-6.598 3.807z" fill="#afddf8"/></g><g><path d="m424.129 132.915h-33.626c-4.204 0-7.612-3.408-7.612-7.611 0-4.204 3.408-7.612 7.612-7.612h33.626c4.204 0 7.611 3.408 7.611 7.612 0 4.203-3.408 7.611-7.611 7.611z" fill="#afddf8"/></g><g><path d="m363.48 32.039c-2.63 0-5.189-1.365-6.599-3.807-2.102-3.64-.855-8.295 2.786-10.397l29.12-16.813c3.638-2.102 8.295-.855 10.397 2.786 2.102 3.64.855 8.295-2.786 10.397l-29.12 16.813c-1.197.692-2.506 1.021-3.798 1.021z" fill="#afddf8"/></g><g><path d="m148.52 32.039c-1.291 0-2.6-.329-3.799-1.021l-29.12-16.813c-3.641-2.102-4.888-6.757-2.786-10.397 2.102-3.642 6.757-4.888 10.397-2.786l29.12 16.813c3.641 2.102 4.888 6.757 2.786 10.397-1.409 2.442-3.968 3.807-6.598 3.807z" fill="#afddf8"/></g></g><path d="m332.064 360.684h-152.128c-4.418 0-8 3.582-8 8v17.626c0 4.418 3.582 8 8 8h131.881l11.435-6.401v6.401h8.813c4.418 0 8-3.582 8-8v-17.626c-.001-4.418-3.582-8-8.001-8z" fill="#d78683"/><path d="m331.946 360.684h-23.342c4.484 0 8.119 3.635 8.119 8.119v17.388c0 4.484-3.635 8.119-8.119 8.119h23.342c4.484 0 8.119-3.635 8.119-8.119v-17.388c-.001-4.484-3.635-8.119-8.119-8.119z" fill="#af5f5c"/><path d="m416.01 478.374h-23.342c4.484 0 8.119 3.635 8.119 8.119v17.388c0 4.484-3.635 8.119-8.119 8.119h23.342c4.484 0 8.119-3.635 8.119-8.119v-17.388c0-4.484-3.635-8.119-8.119-8.119z" fill="#b9c9d9"/><path d="m320.65 420.324h-129.3l1.522 15.223h126.256z" fill="#773641"/></g></svg>