<svg id="Capa_1" enable-background="new 0 0 512 512" viewBox="0 0 512 512" xmlns="http://www.w3.org/2000/svg"><g><g><path d="m256.667 447.313c-4.262 0-7.715-3.454-7.715-7.715v-125.939c0-4.262 3.454-7.715 7.715-7.715 4.262 0 7.715 3.454 7.715 7.715v125.939c.001 4.261-3.453 7.715-7.715 7.715z" fill="#7acaa6"/></g><g><g><g><path d="m256.667 325.93c-4.091 0-7.904 1.471-11.107-.589-5.692-3.659-9.463-10.047-9.463-17.317v-13.512h39.364l-.888 13.512c0 11.361-6.545 17.906-17.906 17.906z" fill="#918291"/><path d="m278.173 297.814-20.431 1.777h-22.58c-7.524 0-13.623-6.099-13.623-13.623v-23.871h68.482v23.871c-.001 7.523-4.324 11.846-11.848 11.846z" fill="#7a6d79"/><path d="m255.03 294.512v13.512c0 7.269-3.774 13.653-9.466 17.312 3.204 2.059 7.013 3.258 11.104 3.258 11.361 0 20.57-9.21 20.57-20.57v-13.512z" fill="#7a6d79"/><path d="m269.588 263.852v22.116c0 7.524-6.099 13.623-13.623 13.623h22.208c7.524 0 13.623-6.099 13.623-13.623v-22.116z" fill="#685e68"/><path d="m291.796 268.81-20.431 1.777h-49.827c-7.524 0-13.623-6.099-13.623-13.623v-20.976h95.728v20.976c0 7.523-4.323 11.846-11.847 11.846z" fill="#918291"/><path d="m283.211 238.187v18.776c0 7.524-6.099 13.623-13.623 13.623h22.208c7.524 0 13.623-6.099 13.623-13.623v-18.776z" fill="#7a6d79"/><path d="m355.245 105.083c0-56.825-38.597-101.29-94.958-103.198-5.256-.178-10.438-1.786-15.517-1.2-51.817 5.975-92.947 50.268-93.186 103.92-.13 29.1 11.572 55.466 30.57 74.569 10.33 10.387 16.285 24.334 16.285 38.983v16.832c0 3.792 3.074 6.867 6.867 6.867h80.458l19.656-2.67c3.792 0 6.867-3.074 6.867-6.867l-.899-16.135c0-14.674 5.933-30.08 16.281-40.484 18.897-18.997 27.576-41.703 27.576-70.617z" fill="#ffe177"/><path d="m260.287.059c-5.257-.178-10.437.047-15.517.632 52.343 5.996 92.997 50.443 92.997 104.391 0 28.914-11.68 55.097-30.577 74.096-10.349 10.404-16.337 24.362-16.337 39.036v16.774c0 3.792-3.074 6.867-6.867 6.867h23.985c3.792 0 6.867-3.074 6.867-6.867v-16.774c0-14.674 5.988-28.632 16.337-39.036 18.897-18.999 30.577-45.182 30.577-74.096 0-56.824-45.105-103.115-101.465-105.023z" fill="#ffd15b"/></g></g><path d="m302.815 96.277c-2.963-3.062-7.848-3.139-10.909-.177l-35.239 34.12-35.239-34.12c-3.06-2.965-7.945-2.885-10.909.177-2.965 3.061-2.885 7.946.176 10.91l38.257 37.04v109.059c0 4.262 3.454 7.715 7.715 7.715 4.262 0 7.715-3.454 7.715-7.715v-109.058l38.257-37.04c3.062-2.965 3.141-7.85.176-10.911z" fill="#918291"/></g><g><g><path d="m118.297 109.359h-60.104c-4.262 0-7.715-3.454-7.715-7.715s3.454-7.715 7.715-7.715h60.103c4.262 0 7.715 3.454 7.715 7.715s-3.453 7.715-7.714 7.715z" fill="#ffd15b"/></g><g><path d="m118.29 77.795c-1.21 0-2.436-.285-3.581-.887l-32.639-17.146c-3.772-1.982-5.224-6.647-3.242-10.419 1.982-3.771 6.646-5.224 10.419-3.242l32.638 17.146c3.772 1.982 5.224 6.647 3.242 10.419-1.38 2.627-4.062 4.129-6.837 4.129z" fill="#ffe177"/></g><g><path d="m85.666 158.073c-2.776 0-5.457-1.502-6.837-4.129-1.982-3.772-.53-8.437 3.242-10.419l32.638-17.146c3.774-1.985 8.438-.529 10.419 3.242 1.982 3.772.53 8.437-3.242 10.419l-32.638 17.146c-1.146.602-2.374.887-3.582.887z" fill="#ffe177"/></g><g><path d="m455.141 109.359h-60.103c-4.262 0-7.715-3.454-7.715-7.715s3.454-7.715 7.715-7.715h60.103c4.262 0 7.715 3.454 7.715 7.715s-3.453 7.715-7.715 7.715z" fill="#ffd15b"/></g><g><path d="m395.045 77.795c-2.776 0-5.457-1.502-6.837-4.129-1.982-3.772-.53-8.437 3.242-10.419l32.638-17.146c3.775-1.984 8.437-.529 10.419 3.242 1.982 3.772.53 8.437-3.242 10.419l-32.638 17.146c-1.146.602-2.373.887-3.582.887z" fill="#ffe177"/></g><g><path d="m427.669 158.073c-1.21 0-2.436-.285-3.581-.887l-32.638-17.146c-3.772-1.982-5.224-6.647-3.242-10.419 1.982-3.771 6.646-5.224 10.419-3.242l32.638 17.146c3.772 1.982 5.224 6.647 3.242 10.419-1.381 2.627-4.062 4.129-6.838 4.129z" fill="#ffe177"/></g></g><path d="m287.527 354.035c-1.163 6.656.428 15.432 5.088 23.32 10.252 17.352 35.796 25.998 79.468 3.294 16.162-8.402 26.761-7.269 34.769-4.878 6.008 1.794 8.014-2.416 6.682-8.543-.876-4.027.873-6.793-1.652-11.443-1.922-3.539-4.354-7.249-7.347-11.111-30.633-39.532-107.736-43.693-117.008 9.361z" fill="#98d5b9"/><path d="m411.882 355.785c-10.387-2.949-24.278-2.044-45.019 8.739-32.168 16.723-56.641 18.505-74.248 12.83 10.266 17.333 35.434 30.457 79.073 7.771 16.162-8.402 26.903-8.987 34.911-6.595 6.008 1.794 11.661-3.585 10.328-9.711-.875-4.026-2.52-8.384-5.045-13.034z" fill="#7acaa6"/><path d="m219.736 354.477c3.722 21.3-23.31 58.73-78.089 30.648-.8-.41-1.584-.806-2.355-1.184-14.862-7.265-24.943-7.686-32.556-5.412-6.008 1.794-11.661-3.585-10.328-9.711 1.542-7.091 5.467-15.208 12.392-24.145 17.348-22.387 49.598-33.427 75.993-29.16 20.213 3.269 30.922 15.955 34.943 38.964z" fill="#98d5b9"/><g><path d="m225.807 354.035c-4.021-23.008-20.802-35.253-41.015-38.521 8.203 6.433 14.142 15.749 16.323 28.233 3.249 18.593-14.903 53.572-61.824 40.195.776.379 1.553.766 2.355 1.184 63.523 33.022 87.883-9.792 84.161-31.091z" fill="#7acaa6"/></g><g><path d="m498.995 510.379-52.957 1.621h-439.999c-1.492 0-2.068-1.934-.823-2.747l1.666-1.09c22.91-11.45 38.546-21.696 58.185-38.135l4.588-3.837v.01c9.382-8.353 21.737-13.446 35.296-13.446 10.349 0 19.998 2.973 28.156 8.096 1.543-1.986 5.144-1.522 6.913-3.364 1.841-1.893 1.862-6.08 3.919-7.788 12.088-10.04 27.724-16.542 44.204-16.542 10.534 0 20.492 2.387 29.422 6.635.782.37 1.697.226 2.325-.381 9.536-9.176 22.498-14.824 36.777-14.824 14.268 0 27.21 5.637 36.736 14.793.648.617 1.595.751 2.397.35 8.693-4.434 18.877-6.574 29.391-6.574 16.593 0 32.209 6.419 44.266 16.501 1.893 1.584 1.934 5 3.642 6.759 1.924 1.965 5.473 2.284 7.129 4.434 8.158-5.123 16.672-6.22 27.021-6.22 13.559 0 24.934 4.133 34.316 12.486l9.444 7.901c8.209 6.862 17.462 12.652 26.401 18.516 8.929 5.853 12.677 9.232 22.254 14.015 1.409.702.905 2.831-.669 2.831z" fill="#b98080"/><g><path d="m380.228 460.852-2.294 1.738c-5.082 3.878-9.217 8.682-12.293 14.289-1.399 2.562-4.043 4.012-6.779 4.012-1.245 0-2.52-.309-3.693-.946-3.734-2.047-5.113-6.738-3.066-10.472 4.125-7.52 9.67-13.97 16.491-19.155l.864-.659c4.011 3.354 7.632 7.119 10.77 11.193z" fill="#ae6c6c"/></g><g><path d="m158.167 479.945c-1.173.648-2.438.946-3.693.946-2.726 0-5.37-1.44-6.779-4.012-3.066-5.607-7.201-10.411-12.293-14.289l-2.294-1.738c3.148-4.043 6.79-7.798 10.832-11.151l.802.617c6.821 5.185 12.376 11.635 16.49 19.155 2.047 3.734.679 8.425-3.065 10.472z" fill="#ae6c6c"/></g><g fill="#ae6c6c"><circle cx="185.114" cy="459.095" r="7.715"/><circle cx="199.158" cy="486.511" r="7.715"/><circle cx="99.72" cy="479.324" r="7.715"/><circle cx="294.876" cy="472.983" r="7.715"/><circle cx="323.189" cy="455.028" r="7.715"/><circle cx="323.189" cy="484.673" r="7.715"/></g></g><g><path d="m256.669 410.125c-.78 0-1.571-.119-2.354-.369-4.058-1.299-6.295-5.642-4.997-9.701 15.071-47.096 77.603-60.481 113.475-57.874 4.251.31 7.443 4.007 7.134 8.257-.31 4.251-4.008 7.446-8.257 7.134-33.499-2.441-85.941 10.578-97.655 47.187-1.048 3.276-4.081 5.366-7.346 5.366z" fill="#7acaa6"/></g><g><path d="m256.665 410.125c-3.265 0-6.298-2.09-7.347-5.366-11.714-36.61-64.16-49.63-97.655-47.187-4.252.291-7.947-2.883-8.257-7.134-.309-4.25 2.883-7.947 7.134-8.257 35.868-2.615 98.404 10.778 113.475 57.874 1.298 4.059-.939 8.402-4.997 9.701-.782.25-1.573.369-2.353.369z" fill="#7acaa6"/></g><path d="m198.183 362.889c8.674 2.571 17.074 6.074 24.553 10.591 2.455-5.399 3.561-10.969 3.422-15.834-7.802-4.162-16.186-7.403-24.677-9.831.057 4.663-1.013 9.94-3.298 15.074z" fill="#54ba8b"/><path d="m505.969 512h-59.931c-48.246-51.564-65.81-51.148-65.81-51.148 8.158-5.123 17.807-8.096 28.156-8.096 13.559 0 25.914 5.092 35.296 13.446v-.01l9.444 7.901c8.209 6.862 16.799 13.24 25.739 19.104 8.929 5.853 18.198 11.193 27.776 15.976 1.408.697.904 2.827-.67 2.827z" fill="#ae6c6c"/></g><g/><g/><g/><g/><g/><g/><g/><g/><g/><g/><g/><g/><g/><g/><g/></svg>