<svg id="Capa_1" enable-background="new 0 0 512 512" height="512" viewBox="0 0 512 512" width="512" xmlns="http://www.w3.org/2000/svg"><g><path d="m495.484 156.903h-478.968c-9.121 0-16.516 7.395-16.516 16.516v165.161l16.516 8.459h472.282c9.122 0 16.516-7.395 16.516-16.516v-157.104z" fill="#615260"/><g fill="#736572"><path d="m264.258 330.323h-132.129c-4.565 0-8.258-3.698-8.258-8.258s3.694-8.258 8.258-8.258h132.129c4.565 0 8.258 3.698 8.258 8.258s-3.693 8.258-8.258 8.258z"/><path d="m99.097 330.323h-8.258c-4.565 0-8.258-3.698-8.258-8.258s3.694-8.258 8.258-8.258h8.258c4.565 0 8.258 3.698 8.258 8.258s-3.694 8.258-8.258 8.258z"/><path d="m57.806 330.323h-24.774c-4.565 0-8.258-3.698-8.258-8.258s3.694-8.258 8.258-8.258h24.774c4.565 0 8.258 3.698 8.258 8.258s-3.693 8.258-8.258 8.258z"/><path d="m99.097 297.29h-8.258c-4.565 0-8.258-3.698-8.258-8.258s3.694-8.258 8.258-8.258h8.258c4.565 0 8.258 3.698 8.258 8.258s-3.694 8.258-8.258 8.258z"/><path d="m57.806 297.29h-24.774c-4.565 0-8.258-3.698-8.258-8.258s3.694-8.258 8.258-8.258h24.774c4.565 0 8.258 3.698 8.258 8.258s-3.693 8.258-8.258 8.258z"/><path d="m181.677 297.29h-8.258c-4.565 0-8.258-3.698-8.258-8.258s3.694-8.258 8.258-8.258h8.258c4.565 0 8.258 3.698 8.258 8.258s-3.693 8.258-8.258 8.258z"/><path d="m140.387 297.29h-8.258c-4.565 0-8.258-3.698-8.258-8.258s3.694-8.258 8.258-8.258h8.258c4.565 0 8.258 3.698 8.258 8.258s-3.693 8.258-8.258 8.258z"/><path d="m264.258 297.29h-8.258c-4.565 0-8.258-3.698-8.258-8.258s3.694-8.258 8.258-8.258h8.258c4.565 0 8.258 3.698 8.258 8.258s-3.693 8.258-8.258 8.258z"/><path d="m222.968 297.29h-8.258c-4.565 0-8.258-3.698-8.258-8.258s3.694-8.258 8.258-8.258h8.258c4.565 0 8.258 3.698 8.258 8.258s-3.694 8.258-8.258 8.258z"/><path d="m123.871 264.258h-8.258c-4.565 0-8.258-3.698-8.258-8.258s3.694-8.258 8.258-8.258h8.258c4.565 0 8.258 3.698 8.258 8.258s-3.694 8.258-8.258 8.258z"/><path d="m82.581 264.258h-8.258c-4.565 0-8.258-3.698-8.258-8.258s3.694-8.258 8.258-8.258h8.258c4.565 0 8.258 3.698 8.258 8.258s-3.694 8.258-8.258 8.258z"/><path d="m41.29 264.258h-8.258c-4.565 0-8.258-3.698-8.258-8.258s3.694-8.258 8.258-8.258h8.258c4.565 0 8.258 3.698 8.258 8.258s-3.693 8.258-8.258 8.258z"/><path d="m206.452 264.258h-8.258c-4.565 0-8.258-3.698-8.258-8.258s3.694-8.258 8.258-8.258h8.258c4.565 0 8.258 3.698 8.258 8.258s-3.694 8.258-8.258 8.258z"/><path d="m165.161 264.258h-8.258c-4.565 0-8.258-3.698-8.258-8.258s3.694-8.258 8.258-8.258h8.258c4.565 0 8.258 3.698 8.258 8.258s-3.693 8.258-8.258 8.258z"/><path d="m289.032 264.258h-8.258c-4.565 0-8.258-3.698-8.258-8.258s3.694-8.258 8.258-8.258h8.258c4.565 0 8.258 3.698 8.258 8.258s-3.693 8.258-8.258 8.258z"/><path d="m346.839 264.258h-24.774c-4.565 0-8.258-3.698-8.258-8.258s3.694-8.258 8.258-8.258h24.774c4.565 0 8.258 3.698 8.258 8.258s-3.694 8.258-8.258 8.258z"/><path d="m247.742 264.258h-8.258c-4.565 0-8.258-3.698-8.258-8.258s3.694-8.258 8.258-8.258h8.258c4.565 0 8.258 3.698 8.258 8.258s-3.694 8.258-8.258 8.258z"/><path d="m123.871 198.194h-8.258c-4.565 0-8.258-3.698-8.258-8.258s3.694-8.258 8.258-8.258h8.258c4.565 0 8.258 3.698 8.258 8.258s-3.694 8.258-8.258 8.258z"/><path d="m82.581 198.194h-8.258c-4.565 0-8.258-3.698-8.258-8.258s3.694-8.258 8.258-8.258h8.258c4.565 0 8.258 3.698 8.258 8.258s-3.694 8.258-8.258 8.258z"/><path d="m41.29 198.194h-8.258c-4.565 0-8.258-3.698-8.258-8.258s3.694-8.258 8.258-8.258h8.258c4.565 0 8.258 3.698 8.258 8.258s-3.693 8.258-8.258 8.258z"/><path d="m206.452 198.194h-8.258c-4.565 0-8.258-3.698-8.258-8.258s3.694-8.258 8.258-8.258h8.258c4.565 0 8.258 3.698 8.258 8.258s-3.694 8.258-8.258 8.258z"/><path d="m165.161 198.194h-8.258c-4.565 0-8.258-3.698-8.258-8.258s3.694-8.258 8.258-8.258h8.258c4.565 0 8.258 3.698 8.258 8.258s-3.693 8.258-8.258 8.258z"/><path d="m289.032 198.194h-8.258c-4.565 0-8.258-3.698-8.258-8.258s3.694-8.258 8.258-8.258h8.258c4.565 0 8.258 3.698 8.258 8.258s-3.693 8.258-8.258 8.258z"/><path d="m346.839 198.194h-24.774c-4.565 0-8.258-3.698-8.258-8.258s3.694-8.258 8.258-8.258h24.774c4.565 0 8.258 3.698 8.258 8.258s-3.694 8.258-8.258 8.258z"/><path d="m247.742 198.194h-8.258c-4.565 0-8.258-3.698-8.258-8.258s3.694-8.258 8.258-8.258h8.258c4.565 0 8.258 3.698 8.258 8.258s-3.694 8.258-8.258 8.258z"/><path d="m346.839 297.29h-8.258c-4.565 0-8.258-3.698-8.258-8.258s3.694-8.258 8.258-8.258h8.258c4.565 0 8.258 3.698 8.258 8.258s-3.694 8.258-8.258 8.258z"/><path d="m346.839 330.323h-8.258c-4.565 0-8.258-3.698-8.258-8.258s3.694-8.258 8.258-8.258h8.258c4.565 0 8.258 3.698 8.258 8.258s-3.694 8.258-8.258 8.258z"/><path d="m305.548 297.29h-8.258c-4.565 0-8.258-3.698-8.258-8.258s3.694-8.258 8.258-8.258h8.258c4.565 0 8.258 3.698 8.258 8.258s-3.693 8.258-8.258 8.258z"/><path d="m305.548 330.323h-8.258c-4.565 0-8.258-3.698-8.258-8.258s3.694-8.258 8.258-8.258h8.258c4.565 0 8.258 3.698 8.258 8.258s-3.693 8.258-8.258 8.258z"/><path d="m99.097 231.226h-8.258c-4.565 0-8.258-3.698-8.258-8.258s3.694-8.258 8.258-8.258h8.258c4.565 0 8.258 3.698 8.258 8.258s-3.694 8.258-8.258 8.258z"/><path d="m57.806 231.226h-24.774c-4.565 0-8.258-3.698-8.258-8.258s3.694-8.258 8.258-8.258h24.774c4.565 0 8.258 3.698 8.258 8.258s-3.693 8.258-8.258 8.258z"/><path d="m181.677 231.226h-8.258c-4.565 0-8.258-3.698-8.258-8.258s3.694-8.258 8.258-8.258h8.258c4.565 0 8.258 3.698 8.258 8.258s-3.693 8.258-8.258 8.258z"/><path d="m140.387 231.226h-8.258c-4.565 0-8.258-3.698-8.258-8.258s3.694-8.258 8.258-8.258h8.258c4.565 0 8.258 3.698 8.258 8.258s-3.693 8.258-8.258 8.258z"/><path d="m264.258 231.226h-8.258c-4.565 0-8.258-3.698-8.258-8.258s3.694-8.258 8.258-8.258h8.258c4.565 0 8.258 3.698 8.258 8.258s-3.693 8.258-8.258 8.258z"/><path d="m222.968 231.226h-8.258c-4.565 0-8.258-3.698-8.258-8.258s3.694-8.258 8.258-8.258h8.258c4.565 0 8.258 3.698 8.258 8.258s-3.694 8.258-8.258 8.258z"/><path d="m346.839 231.226h-8.258c-4.565 0-8.258-3.698-8.258-8.258s3.694-8.258 8.258-8.258h8.258c4.565 0 8.258 3.698 8.258 8.258s-3.694 8.258-8.258 8.258z"/><path d="m388.129 198.194h-8.258c-4.565 0-8.258-3.698-8.258-8.258s3.694-8.258 8.258-8.258h8.258c4.565 0 8.258 3.698 8.258 8.258s-3.693 8.258-8.258 8.258z"/><path d="m437.677 198.194h-16.516c-4.565 0-8.258-3.698-8.258-8.258s3.694-8.258 8.258-8.258h16.516c4.565 0 8.258 3.698 8.258 8.258s-3.693 8.258-8.258 8.258z"/><path d="m478.968 198.194h-8.258c-4.565 0-8.258-3.698-8.258-8.258s3.694-8.258 8.258-8.258h8.258c4.565 0 8.258 3.698 8.258 8.258s-3.694 8.258-8.258 8.258z"/><path d="m305.548 231.226h-8.258c-4.565 0-8.258-3.698-8.258-8.258s3.694-8.258 8.258-8.258h8.258c4.565 0 8.258 3.698 8.258 8.258s-3.693 8.258-8.258 8.258z"/></g><path d="m470.71 289.032h-82.581c-4.561 0-8.258-3.697-8.258-8.258v-49.548c0-4.561 3.697-8.258 8.258-8.258h82.581c4.561 0 8.258 3.697 8.258 8.258v49.548c0 4.561-3.698 8.258-8.258 8.258z" fill="#4e3d4d"/><path d="m495.484 156.903v165.161c0 9.122-7.395 16.516-16.516 16.516h-478.968c0 9.121 7.395 16.516 16.516 16.516h478.968c9.122 0 16.516-7.395 16.516-16.516v-165.161c0-9.122-7.395-16.516-16.516-16.516z" fill="#4e3d4d"/><path d="m445.935 272.516h-33.032c-9.122 0-16.516-7.395-16.516-16.516 0-9.122 7.395-16.516 16.516-16.516h33.032c9.122 0 16.516 7.395 16.516 16.516.001 9.122-7.394 16.516-16.516 16.516z" fill="#615260"/><path d="m412.903 322.065h-24.774c-4.561 0-8.258-3.697-8.258-8.258 0-4.561 3.697-8.258 8.258-8.258h24.774c4.561 0 8.258 3.697 8.258 8.258 0 4.56-3.697 8.258-8.258 8.258z" fill="#4e3d4d"/><path d="m470.71 322.065h-24.774c-4.561 0-8.258-3.697-8.258-8.258 0-4.561 3.697-8.258 8.258-8.258h24.774c4.561 0 8.258 3.697 8.258 8.258 0 4.56-3.698 8.258-8.258 8.258z" fill="#4e3d4d"/></g></svg>