<svg id="Capa_1" enable-background="new 0 0 512.004 512.004" height="512" viewBox="0 0 512.004 512.004" width="512" xmlns="http://www.w3.org/2000/svg"><g><g><g><path d="m430.433 19.842h-348.862c-33.575 0-60.793 27.218-60.793 60.793 0 33.575 27.218 60.793 60.793 60.793h142.197l31.759 39.514 31.76-39.514h143.146c33.575 0 60.793-27.218 60.793-60.793.001-33.575-27.218-60.793-60.793-60.793z" fill="#23f1a8"/><path d="m491.225 80.637c0 33.57-27.212 60.793-60.793 60.793h-34.539c33.58 0 60.793-27.223 60.793-60.793 0-16.79-6.806-31.986-17.801-42.991-11.006-10.995-26.201-17.801-42.991-17.801h34.539c16.79 0 31.986 6.806 42.991 17.801 10.995 11.005 17.801 26.2 17.801 42.991z" fill="#26d192"/><g fill="#eef4f5"><path d="m366.957 69.596h-160.213c-4.267 0-7.726-3.459-7.726-7.726s3.459-7.726 7.726-7.726h160.212c4.267 0 7.726 3.459 7.726 7.726s-3.458 7.726-7.725 7.726z"/><path d="m174.937 69.596h-30.843c-4.267 0-7.726-3.459-7.726-7.726s3.459-7.726 7.726-7.726h30.843c4.267 0 7.726 3.459 7.726 7.726s-3.458 7.726-7.726 7.726z"/><path d="m366.96 97.679h-222.862c-4.267 0-7.726-3.459-7.726-7.726s3.459-7.726 7.726-7.726h222.862c4.267 0 7.726 3.459 7.726 7.726s-3.458 7.726-7.726 7.726z"/></g></g><g><g><g><g><path d="m339.451 453.752h-166.898v-117.337c0-26.75 21.686-48.436 48.436-48.436h70.026c26.75 0 48.436 21.686 48.436 48.436z" fill="#fb3a82"/></g><g fill="#cf0e50"><path d="m215.096 430.636c-4.267 0-7.726-3.459-7.726-7.726v-70.216c0-4.267 3.459-7.726 7.726-7.726s7.726 3.459 7.726 7.726v70.216c0 4.267-3.459 7.726-7.726 7.726z"/><path d="m296.908 430.636c-4.267 0-7.726-3.459-7.726-7.726v-70.216c0-4.267 3.459-7.726 7.726-7.726s7.726 3.459 7.726 7.726v70.216c.001 4.267-3.459 7.726-7.726 7.726z"/></g><path d="m339.45 336.412v117.345h-29.662v-117.345c0-26.743-21.689-48.432-48.432-48.432h29.661c26.745 0 48.433 21.689 48.433 48.432z" fill="#fb1466"/></g><g><g><circle cx="322.845" cy="229.753" fill="#fdb0a0" r="20.38"/></g><g><circle cx="189.159" cy="229.753" fill="#fdb0a0" r="20.38"/></g><g><g><g><g><g><path d="m195.001 215.07v23.346c0 34.208 27.995 62.852 62.197 62.194 33.141-.637 59.806-27.697 59.806-60.99v-24.55c0-33.69-27.311-61.001-61.001-61.001-33.691 0-61.002 27.311-61.002 61.001z" fill="#ffcec0"/></g></g></g></g></g><g fill="#47666b"><path d="m228.111 243.892c-4.267 0-7.726-3.459-7.726-7.726v-4.262c0-4.267 3.459-7.726 7.726-7.726s7.726 3.459 7.726 7.726v4.262c0 4.266-3.459 7.726-7.726 7.726z"/><path d="m283.892 243.892c-4.267 0-7.726-3.459-7.726-7.726v-4.262c0-4.267 3.459-7.726 7.726-7.726s7.726 3.459 7.726 7.726v4.262c.001 4.266-3.458 7.726-7.726 7.726z"/></g><g><path d="m256.002 275.92c-9.532 0-18.333-4.785-23.542-12.799-2.325-3.578-1.31-8.364 2.268-10.689 3.577-2.325 8.364-1.311 10.689 2.268 2.347 3.612 6.304 5.768 10.586 5.768 4.281 0 8.238-2.156 10.586-5.768 2.325-3.578 7.112-4.593 10.689-2.268s4.593 7.111 2.268 10.689c-5.211 8.014-14.012 12.799-23.544 12.799z" fill="#fdb0a0"/></g></g><g><g><g><path d="m185.889 189.517c0 6.821 1.274 13.348 3.587 19.366 6.017 2.313 12.545 3.587 19.366 3.587 29.814 0 53.982-24.169 53.982-54.002 0-6.821-1.274-13.349-3.587-19.366-5.998-2.313-12.525-3.587-19.366-3.587-29.814 0-53.982 24.169-53.982 54.002z" fill="#a9d3d8"/></g></g><g><g><path d="m326.115 189.517c0 6.821-1.274 13.348-3.587 19.366-6.017 2.313-12.545 3.587-19.366 3.587-29.814 0-53.982-24.169-53.982-54.002 0-6.821 1.274-13.349 3.587-19.366 5.998-2.313 12.525-3.587 19.366-3.587 29.813 0 53.982 24.169 53.982 54.002z" fill="#cbe5e7"/><path d="m326.116 189.52c0 6.813-1.272 13.35-3.591 19.363-6.013 2.309-12.539 3.591-19.363 3.591-.687 0-1.375-.01-2.062-.041 1.437-4.853 2.206-9.994 2.206-15.309 0-29.141-23.057-52.875-51.911-53.963.4-1.385.862-2.74 1.375-4.063 5.992-2.309 12.518-3.581 19.363-3.581 29.818-.001 53.983 24.164 53.983 54.003z" fill="#a9d3d8"/></g></g></g></g></g><g><g><g><path d="m286.226 492.162h-60.448c-5.756 0-10.422-4.666-10.422-10.422v-20.994h81.293v20.994c-.001 5.756-4.667 10.422-10.423 10.422z" fill="#64b9fc"/></g><g><path d="m358.729 463.085h-215.756v-37.922h226.058v27.62c0 5.69-4.612 10.302-10.302 10.302z" fill="#eef4f5"/></g><g><g><g><path d="m379.333 476.266h119.289c5.69 0 10.302-4.612 10.302-10.302v-136.221c0-25.573-20.731-46.304-46.304-46.304h-47.286c-25.573 0-46.304 20.731-46.304 46.304v136.222c.001 5.689 4.613 10.301 10.303 10.301z" fill="#fcb44d"/><g><g><path d="m404.953 401.925c-4.267 0-7.726-3.459-7.726-7.726v-57.126c0-4.267 3.459-7.726 7.726-7.726s7.726 3.459 7.726 7.726v57.126c.001 4.267-3.459 7.726-7.726 7.726z" fill="#f98824"/></g></g><path d="m508.927 329.75v136.219c0 5.69-4.612 10.302-10.302 10.302h-18.054v-146.531c0-25.566-20.734-46.3-46.31-46.3h28.356c25.576 0 46.31 20.734 46.31 46.31z" fill="#fb9927"/><path d="m508.927 401.107v64.862c0 5.69-4.612 10.302-10.302 10.302h-119.292c-5.69 0-10.302-4.612-10.302-10.302v-64.862z" fill="#fb9927"/><path d="m508.893 401.107h-139.862v54.576h109.285c16.887 0 30.577-13.69 30.577-30.577z" fill="#f98824"/><path d="m508.927 401.107v64.862c0 5.69-4.612 10.302-10.302 10.302h-18.054v-75.163h28.356z" fill="#f98824"/><path d="m465.99 337.073v57.125h-96.959v39.646h109.285c16.887 0 30.577-13.69 30.577-30.577v-66.194" fill="#fcb44d"/><path d="m508.897 337.073v66.196c0 16.131-12.484 29.342-28.326 30.498v-96.694z" fill="#fb9927"/><g><g><g><g><g><g><path d="m487.33 213.739v22.318c0 32.702-26.762 60.085-59.458 59.456-31.682-.609-57.173-26.477-57.173-58.305v-23.47c0-32.207 26.109-58.316 58.316-58.316 32.206.002 58.315 26.111 58.315 58.317z" fill="#ffcec0"/></g></g><g><circle cx="493.565" cy="226.544" fill="#ffcec0" r="18.437"/></g><path d="m424.368 272.25c-9.228 0-17.748-4.632-22.791-12.39-2.325-3.578-1.31-8.364 2.268-10.689 3.577-2.325 8.363-1.31 10.689 2.268 2.181 3.356 5.857 5.359 9.834 5.359s7.654-2.003 9.835-5.359c2.326-3.579 7.11-4.592 10.689-2.268 3.578 2.325 4.593 7.111 2.268 10.689-5.044 7.759-13.564 12.39-22.792 12.39z" fill="#fdb0a0"/></g><g><g><path d="m508.893 186.163c0 6.521-1.218 12.761-3.429 18.513-5.752 2.211-11.992 3.429-18.513 3.429-28.501 0-51.606-23.105-51.606-51.625 0-6.521 1.218-12.761 3.429-18.513 5.734-2.211 11.974-3.429 18.513-3.429 28.501 0 51.606 23.105 51.606 51.625z" fill="#fde784"/></g><g><path d="m351.672 176.822c-1.053 8.526-.468 16.881 1.495 24.76 7.164 3.82 15.127 6.42 23.653 7.472 37.265 4.601 71.205-21.879 75.809-59.169.011-.086.021-.172.031-.258 1.865-15.589-9.348-29.961-24.923-31.942-.085-.011-.171-.022-.256-.032-37.266-4.601-71.205 21.879-75.809 59.169z" fill="#fde784"/><path d="m452.664 149.632c-.01.08-.02.169-.03.249-4.613 37.293-38.548 63.775-75.811 59.172-6.825-.847-13.291-2.68-19.269-5.34 36.625 3.647 69.644-22.607 74.177-59.352.01-.09.02-.169.03-.259 1.295-10.82-3.716-21.062-12.115-26.961 2.59.01 5.211.179 7.831.508.09.01.179.02.259.04 15.572 1.974 26.791 16.351 24.928 31.943z" fill="#fddd45"/></g></g></g><g fill="#47666b"><path d="m450.598 241.633c-4.267 0-7.726-3.459-7.726-7.726v-4.074c0-4.267 3.459-7.726 7.726-7.726s7.726 3.459 7.726 7.726v4.074c.001 4.266-3.458 7.726-7.726 7.726z"/><path d="m397.273 241.633c-4.267 0-7.726-3.459-7.726-7.726v-4.074c0-4.267 3.459-7.726 7.726-7.726s7.726 3.459 7.726 7.726v4.074c0 4.266-3.459 7.726-7.726 7.726z"/></g></g></g></g></g><path d="m465.99 401.925h-96.959c-4.267 0-7.726-3.459-7.726-7.726s3.459-7.726 7.726-7.726h89.233v-49.399c0-4.267 3.459-7.726 7.726-7.726s7.726 3.459 7.726 7.726v57.125c0 4.267-3.459 7.726-7.726 7.726z" fill="#f98824"/><g><circle cx="357.329" cy="411.568" fill="#ffcec0" r="24.072"/></g></g><g><g><g><path d="m132.671 476.266h-119.289c-5.69 0-10.302-4.612-10.302-10.302v-136.221c0-25.573 20.731-46.304 46.304-46.304h47.286c25.573 0 46.304 20.731 46.304 46.304v136.222c-.001 5.689-4.614 10.301-10.303 10.301z" fill="#64b9fc"/><path d="m142.972 329.74v136.229c0 5.69-4.612 10.302-10.302 10.302h-18.054v-146.531c0-25.566-20.734-46.3-46.3-46.3h28.356c25.571 0 46.3 20.729 46.3 46.3z" fill="#31a7fb"/><g><path d="m106.817 401.925c-4.267 0-7.726-3.459-7.726-7.726v-57.126c0-4.267 3.459-7.726 7.726-7.726s7.726 3.459 7.726 7.726v57.126c.001 4.267-3.459 7.726-7.726 7.726z" fill="#1c96f9"/></g><path d="m142.972 401.107v64.862c0 5.69-4.612 10.302-10.302 10.302h-119.291c-5.69 0-10.302-4.612-10.302-10.302v-64.862z" fill="#31a7fb"/><path d="m142.972 401.107v64.862c0 5.69-4.612 10.302-10.302 10.302h-18.054v-75.163h28.356z" fill="#1c96f9"/><path d="m3.095 401.107h139.862v54.576h-109.285c-16.887 0-30.577-13.69-30.577-30.577v-23.999z" fill="#1c96f9"/><path d="m46.014 337.073v57.125h96.959v39.646h-109.285c-16.887 0-30.577-13.69-30.577-30.577v-66.194" fill="#64b9fc"/><g><g><g><g><g><g><path d="m24.674 213.739v22.318c0 32.702 26.762 60.085 59.458 59.456 31.682-.609 57.173-26.477 57.173-58.305v-23.47c0-32.207-26.109-58.316-58.316-58.316-32.206.002-58.315 26.111-58.315 58.317z" fill="#ffcec0"/></g></g><g><circle cx="18.439" cy="226.544" fill="#ffcec0" r="18.437"/></g><path d="m87.635 272.25c-9.228 0-17.748-4.632-22.791-12.39-2.325-3.578-1.31-8.364 2.268-10.689 3.577-2.325 8.364-1.31 10.689 2.268 2.181 3.356 5.857 5.359 9.834 5.359s7.654-2.003 9.835-5.359c2.325-3.579 7.11-4.592 10.689-2.268 3.577 2.325 4.593 7.111 2.268 10.689-5.043 7.759-13.563 12.39-22.792 12.39z" fill="#fdb0a0"/></g><g><g><path d="m3.111 186.163c0 6.521 1.218 12.761 3.429 18.513 5.752 2.211 11.992 3.429 18.513 3.429 28.501 0 51.606-23.105 51.606-51.625 0-6.521-1.218-12.761-3.429-18.513-5.734-2.211-11.974-3.429-18.513-3.429-28.502 0-51.606 23.105-51.606 51.625z" fill="#384848"/></g><g><path d="m160.331 176.822c1.053 8.526.468 16.881-1.495 24.76-7.164 3.82-15.127 6.42-23.653 7.472-37.265 4.601-71.205-21.879-75.809-59.169-.011-.086-.021-.172-.031-.258-1.865-15.589 9.348-29.961 24.923-31.942.085-.011.171-.022.256-.032 37.266-4.601 71.206 21.879 75.809 59.169z" fill="#47666b"/><path d="m158.837 201.585c-6.758 3.595-14.219 6.113-22.197 7.275 1.831-7.673 2.349-15.787 1.331-24.071-4.341-35.195-34.822-60.759-69.568-59.648 4.248-3.96 9.717-6.673 15.864-7.453.085-.017.17-.025.254-.034 37.264-4.604 71.204 21.875 75.808 59.165 1.051 8.529.466 16.88-1.492 24.766z" fill="#3f5959"/></g></g></g><g fill="#47666b"><path d="m61.405 241.633c-4.267 0-7.726-3.459-7.726-7.726v-4.074c0-4.267 3.459-7.726 7.726-7.726s7.726 3.459 7.726 7.726v4.074c.001 4.266-3.458 7.726-7.726 7.726z"/><path d="m114.731 241.633c-4.267 0-7.726-3.459-7.726-7.726v-4.074c0-4.267 3.459-7.726 7.726-7.726s7.726 3.459 7.726 7.726v4.074c.001 4.266-3.459 7.726-7.726 7.726z"/></g></g></g></g></g><path d="m142.973 401.925h-96.959c-4.267 0-7.726-3.459-7.726-7.726v-57.125c0-4.267 3.459-7.726 7.726-7.726s7.726 3.459 7.726 7.726v49.399h89.233c4.267 0 7.726 3.459 7.726 7.726s-3.459 7.726-7.726 7.726z" fill="#1c96f9"/><g><circle cx="154.674" cy="411.568" fill="#ffcec0" r="24.072"/></g></g></g></g></g></g></svg>