<svg id="Capa_1" enable-background="new 0 0 512 512" height="512" viewBox="0 0 512 512" width="512" xmlns="http://www.w3.org/2000/svg"><g><path d="m468.732 502.914h-425.464c-23.896 0-43.268-19.371-43.268-43.267v-330.688c0-23.896 19.372-43.268 43.268-43.268h425.465c23.896 0 43.268 19.372 43.268 43.268v330.688c-.001 23.896-19.373 43.267-43.269 43.267z" fill="#5a5a5a"/><path d="m255.605 440.15h-.004c-53.524 0-96.914-43.39-96.914-96.914v-97.072c0-53.524 43.39-96.914 96.914-96.914h.004c53.524 0 96.914 43.39 96.914 96.914v97.072c0 53.524-43.39 96.914-96.914 96.914z" fill="#82aee3"/><g><path d="m256 156.976c-4.267 0-7.726-3.459-7.726-7.726v-96.382c0-24.142 19.641-43.783 43.783-43.783h144.225c4.268 0 7.726 3.459 7.726 7.726s-3.459 7.726-7.726 7.726h-144.226c-15.621 0-28.33 12.709-28.33 28.33v96.381c0 4.269-3.458 7.728-7.726 7.728z" fill="#9c9c9c"/></g><path d="m255.605 149.25h-.004c-7.013 0-13.849.752-20.439 2.166 43.708 9.384 76.475 48.236 76.475 94.747v97.072c0 46.511-32.767 85.363-76.475 94.747 6.59 1.415 13.426 2.167 20.439 2.167h.004c53.524 0 96.914-43.39 96.914-96.914v-97.072c0-53.524-43.39-96.913-96.914-96.913z" fill="#528fd8"/><path d="m255.603 278.309v-129.06h-.002c-53.524 0-96.914 43.39-96.914 96.914v32.146z" fill="#c0d6f2"/><path d="m255.605 149.249h-.002v129.06h96.916v-32.146c0-53.524-43.39-96.914-96.914-96.914z" fill="#b2caec"/><path d="m255.603 248.93c-10.59 0-19.175-8.585-19.175-19.175v-31.952c0-10.59 8.585-19.175 19.175-19.175 10.59 0 19.175 8.585 19.175 19.175v31.952c0 10.591-8.585 19.175-19.175 19.175z" fill="#528fd8"/><path d="m235.162 151.416c7.14 1.533 13.98 3.866 20.441 6.876v-.016c33.093 15.419 56.033 48.972 56.033 87.888v32.146h40.883v-32.146c0-61.999-57.261-107.651-117.357-94.748z" fill="#82aee3"/><path d="m468.732 85.691h-40.882c23.896 0 43.268 19.372 43.268 43.268v330.688c0 23.896-19.371 43.268-43.268 43.268h40.883c23.896 0 43.268-19.371 43.268-43.268v-330.688c-.001-23.896-19.372-43.268-43.269-43.268z" fill="#444"/></g></svg>