<svg id="Capa_1" enable-background="new 0 0 497 497" height="512" viewBox="0 0 497 497" width="512" xmlns="http://www.w3.org/2000/svg"><g><path d="m72.833 195.334h-68.503c-4.216 0-5.937 5.419-2.493 7.852l37.006 26.138 24.277-13.745z" fill="#ffcebf"/><path d="m424.167 195.334h68.503c4.216 0 5.937 5.419 2.493 7.852l-37.006 26.138-21.804-13.745z" fill="#ffcebf"/><path d="m458.16 229.319-43.2 43.2c-15.39 15.39-37.23 20.44-56.84 15.12-9.55-2.58-18.57-7.62-26.06-15.12l-8.88-8.88v127.16l-74.805 8.95-74.555-8.95v-127.16l-8.88 8.88c-22.89 22.89-60.01 22.89-82.9 0l-43.2-43.2 33.99-33.99 36.33 36.33c7.91 7.92 20.74 7.92 28.65 0l36.01-36c9.46-11.13 20.92-19.86 33.55-25.82.15-.07.29-.14.44-.2l40.57-3.39 40.82 3.39c4.13 1.92 8.13 4.14 11.98 6.65 8.1 5.24 15.52 11.75 22 19.37l36.01 36c7.91 7.92 20.74 7.92 28.65 0l36.33-36.33 16.04 16.04z" fill="#82aee3"/><path d="m293.585 88.012v27.612c0 24.902-20.183 45.085-45.085 45.085-3.591 0-7.078-.417-10.423-1.213-19.861-4.7-34.652-22.561-34.652-43.872v-27.612l44.955-6.273z" fill="#ffcebf"/><path d="m293.585 88.012v27.612c0 24.902-20.183 45.085-45.085 45.085-3.591 0-7.078-.417-10.423-1.213 19.87-4.7 34.662-22.561 34.662-43.872v-27.612l10.094-6.273z" fill="#ffb09e"/><path d="m173.82 390.799h149.36v90.25h-149.36z" fill="#5a5a5a"/><path d="m301.18 390.799h22v90.25h-22z" fill="#444"/><path d="m323.18 263.639v127.16h-22v-136.825c0-4.552 5.504-6.832 8.722-3.613z" fill="#528fd8"/><path d="m458.16 229.319-43.2 43.2c-15.39 15.39-37.23 20.44-56.84 15.12 9.55-2.58 18.57-7.62 26.07-15.12l56.02-61.15z" fill="#528fd8"/><path d="m289.2 169.639-33.32 59.48-3.904 6.971c-1.571 2.805-5.611 2.8-7.175-.009l-3.921-7.042-3.8-6.83-29.27-52.57c10.39-4.83 21.57-7.8 33.07-8.65l7.62 1.093 7.38-1.123c4.84.35 9.62 1.07 14.31 2.15 6.55 1.51 12.91 3.7 19 6.53z" fill="#ddeafb"/><path d="m289.2 169.639-37.224 66.45c-1.572 2.805-5.611 2.8-7.175-.01l-7.721-13.871 33.11-59.1c6.55 1.51 12.91 3.7 19 6.53h.01z" fill="#cbe2ff"/><path d="m99.98 118.589c0 20.36-16.5 36.86-36.86 36.86-4.71 0-9.21-.88-13.35-2.5-13.76-5.34-23.51-18.71-23.51-34.36 0-15.64 9.75-29.01 23.51-34.35 4.14-1.62 8.64-2.5 13.35-2.5 20.36 0 36.86 16.5 36.86 36.85z" fill="#ffd15b"/><path d="m99.98 118.589c0 20.36-16.5 36.86-36.86 36.86-4.71 0-9.21-.88-13.35-2.5 13.76-5.34 23.51-18.71 23.51-34.36 0-15.64-9.75-29.01-23.51-34.35 4.14-1.62 8.64-2.5 13.35-2.5 20.36 0 36.86 16.5 36.86 36.85z" fill="#ffc344"/><path d="m470.74 118.589c0 20.36-16.5 36.86-36.85 36.86-4.58 0-8.96-.83-13-2.36-13.94-5.25-23.86-18.72-23.86-34.5 0-15.77 9.92-29.24 23.86-34.49 4.04-1.53 8.42-2.36 13-2.36 20.35 0 36.85 16.5 36.85 36.85z" fill="#ffd15b"/><path d="m470.74 118.589c0 20.36-16.5 36.86-36.85 36.86-4.58 0-8.96-.83-13-2.36 13.94-5.26 23.85-18.72 23.85-34.5 0-15.77-9.91-29.23-23.85-34.49 4.04-1.53 8.42-2.36 13-2.36 20.35 0 36.85 16.5 36.85 36.85z" fill="#ffc344"/><path d="m379.69 32.329c0 13.18-10.69 23.87-23.87 23.87-3.53 0-6.87-.76-9.88-2.14-8.26-3.75-14-12.07-14-21.73s5.74-17.99 14-21.74c3.01-1.38 6.35-2.14 9.88-2.14 13.18 0 23.87 10.69 23.87 23.88z" fill="#ffd15b"/><path d="m379.69 32.329c0 13.18-10.69 23.87-23.87 23.87-3.53 0-6.87-.76-9.88-2.14 8.26-3.75 14-12.07 14-21.73s-5.74-17.99-14-21.74c3.01-1.38 6.35-2.14 9.88-2.14 13.18 0 23.87 10.69 23.87 23.88z" fill="#ffc344"/><path d="m165.07 32.329c0 13.18-10.69 23.87-23.88 23.87-3.53 0-6.89-.77-9.9-2.15-8.25-3.76-13.98-12.07-13.98-21.72 0-9.66 5.73-17.97 13.98-21.73 3.01-1.38 6.37-2.15 9.9-2.15 13.19 0 23.88 10.69 23.88 23.88z" fill="#ffd15b"/><path d="m165.07 32.329c0 13.18-10.69 23.87-23.88 23.87-3.53 0-6.89-.77-9.9-2.15 8.24-3.76 13.97-12.07 13.97-21.72s-5.73-17.97-13.97-21.73c3.01-1.38 6.37-2.15 9.9-2.15 13.19 0 23.88 10.69 23.88 23.88z" fill="#ffc344"/><path d="m255.88 229.119v161.68h-15v-161.76l3.921 7.042c1.564 2.809 5.604 2.814 7.175.009z" fill="#0473ce"/><path d="m255.88 188.649v40.47l-3.904 6.971c-1.571 2.805-5.611 2.8-7.175-.009l-3.921-7.042v-13.61z" fill="#fd4755"/><path d="m255.88 160.959v27.69l-15 26.78v-54.44c2.34-.19 4.7-.28 7.07-.28h1.1c2.29 0 4.56.08 6.83.25z" fill="#fe646f"/><g><path d="m248.375 488.551c-4.142 0-7.5-3.358-7.5-7.5v-50.146c0-4.142 3.358-7.5 7.5-7.5s7.5 3.358 7.5 7.5v50.146c0 4.142-3.357 7.5-7.5 7.5z" fill="#444"/></g><g><path d="m69.627 125.1h-13.009c-4.142 0-7.5-3.358-7.5-7.5s3.358-7.5 7.5-7.5h13.009c4.142 0 7.5 3.358 7.5 7.5s-3.357 7.5-7.5 7.5z" fill="#fff9df"/></g><g><path d="m440.39 125.1h-13.009c-4.142 0-7.5-3.358-7.5-7.5s3.358-7.5 7.5-7.5h13.009c4.142 0 7.5 3.358 7.5 7.5s-3.358 7.5-7.5 7.5z" fill="#fff9df"/></g><g><path d="m248.504 129.669c-3.925 0-7.107-3.182-7.107-7.107v-10.539c0-3.925 3.182-7.107 7.107-7.107s7.107 3.182 7.107 7.107v10.539c0 3.925-3.182 7.107-7.107 7.107z" fill="#ffb09e"/></g><g><path d="m375.215 488.551h-253.68c-4.142 0-7.5-3.358-7.5-7.5s3.358-7.5 7.5-7.5h253.68c4.142 0 7.5 3.358 7.5 7.5s-3.358 7.5-7.5 7.5z" fill="#ddeafb"/></g><path d="m293.585 81.701v6.311h-90.16v-6.311c0-16.544 13.408-29.952 29.943-29.952h30.265c16.544 0 29.952 13.408 29.952 29.952z" fill="#87523e"/><path d="m293.585 81.701v6.311h-20.846v-6.311c0-16.544-13.408-29.952-29.952-29.952h20.846c16.544 0 29.952 13.408 29.952 29.952z" fill="#7c4b37"/></g></svg>