<svg id="Capa_1" enable-background="new 0 0 512 512" height="512" viewBox="0 0 512 512" width="512" xmlns="http://www.w3.org/2000/svg"><g><g><g><path d="m375.467 477.867c0 18.851-15.282 34.133-34.133 34.133h-238.934c-18.851 0-34.133-15.282-34.133-34.133v-443.734c0-18.851 15.282-34.133 34.133-34.133h238.932c18.851 0 34.133 15.282 34.133 34.133z" fill="#877a86"/><g><path d="m221.866 41.859h-34.133c-4.267 0-7.726-3.459-7.726-7.726s3.459-7.726 7.726-7.726h34.133c4.267 0 7.726 3.459 7.726 7.726s-3.459 7.726-7.726 7.726z" fill="#7a6d79"/></g><g><path d="m256 41.859h-8.534c-4.267 0-7.726-3.459-7.726-7.726s3.459-7.726 7.726-7.726h8.534c4.268 0 7.726 3.459 7.726 7.726s-3.458 7.726-7.726 7.726z" fill="#e6e9ed"/></g><path d="m338.243 460.8c0 9.426-7.641 17.067-17.067 17.067h-201.71c-9.426 0-17.067-7.641-17.067-17.067v-409.6c0-9.426 7.641-17.067 17.067-17.067h28.86c3.232 0 6.187 1.826 7.632 4.717l9.991 19.982c2.891 5.782 8.8 9.434 15.265 9.434h81.304c6.464 0 12.374-3.652 15.265-9.434l9.991-19.982c1.445-2.891 4.4-4.717 7.632-4.717h25.768c9.426 0 17.067 7.641 17.067 17.067z" fill="#c4e2ff"/><path d="m375.466 34.133c0-18.851-15.282-34.133-34.134-34.133h-23.694c18.851 0 34.133 15.282 34.133 34.133l.001 443.733c0 18.851-15.282 34.133-34.133 34.133h23.694c18.851 0 34.133-15.282 34.133-34.133z" fill="#7a6d79"/><g><path d="m341.333 51.2c0-9.425-7.641-17.066-17.067-17.066h-23.694c9.426 0 17.067 7.641 17.067 17.066l.001 409.6c0 9.426-7.641 17.067-17.067 17.067h23.694c9.426 0 17.067-7.641 17.067-17.067z" fill="#b0d1f4"/></g></g><path d="m228.426 426.667h-32.692c-4.418 0-8-3.582-8-8v-18.133c0-4.418 3.582-8 8-8h32.692c4.418 0 8 3.582 8 8v18.133c0 4.418-3.582 8-8 8z" fill="#b4dd7f"/><path d="m247.759 392.534h-23.694c4.552 0 8.241 3.69 8.241 8.241v17.651c0 4.552-3.69 8.241-8.241 8.241h23.694c4.552 0 8.242-3.69 8.242-8.241v-17.651c-.001-4.552-3.691-8.241-8.242-8.241z" fill="#9ad16d"/></g><path d="m310.77 374.949 74.173-25.732 46.783-84.721 2.041-44.572-33.202-65.667-48.796-39.468-39.582-11.114-16.835-.758c-69.857 6.006-124.686 64.603-124.686 136.016s54.83 130.011 124.687 136.016z" fill="#b4dd7f"/><path d="m342.285 246.086-13.551 13.55c-2.694 2.694-6.848 3.276-10.178 1.426-14.069-7.816-25.669-19.416-33.485-33.485v-.001c-1.85-3.33-1.269-7.484 1.426-10.178l13.551-13.551c3.333-3.332 3.333-8.735 0-12.068l-30.17-30.17c-3.332-3.333-8.735-3.333-12.068 0l-20.434 20.434c-11.588 11.588-13.305 29.777-4.09 43.329v.001c23.394 34.402 53.071 64.08 87.474 87.473 13.552 9.215 31.741 7.499 43.329-4.09l20.434-20.434c3.333-3.332 3.333-8.736 0-12.068l-30.17-30.17c-3.332-3.331-8.735-3.331-12.068.002z" fill="#f9f9f9"/><path d="m307.2 102.4c-3.992 0-7.942.182-11.847.517 69.857 6.006 124.686 64.603 124.686 136.016s-54.829 130.01-124.686 136.016c3.905.336 7.855.517 11.847.517 75.405 0 136.533-61.128 136.533-136.533s-61.128-136.533-136.533-136.533z" fill="#9ad16d"/></g></svg>