<svg id="Capa_1" enable-background="new 0 0 512 512" height="512" viewBox="0 0 512 512" width="512" xmlns="http://www.w3.org/2000/svg"><g><path d="m352.001 77.419h-32v-54.085c0-3.983 3.229-7.211 7.211-7.211h17.577c3.983 0 7.211 3.229 7.211 7.211v54.085z" fill="#757575"/><path d="m341.699 234.302h-181.698v-150.059l96-68.121 85.698 57.819z" fill="#dff6fd"/><path d="m256.001 16.122-37.23 26.418 95.814 67.989c4.084 2.898 6.51 7.595 6.51 12.602v111.17h30.906v-150.058z" fill="#d5e3f4"/><path d="m470.768 161.082c0-15.124-12.26-27.384-27.384-27.384-15.124 0-27.384 12.26-27.384 27.384v148.182h54.768z" fill="#ffcebf"/><path d="m41.234 161.082c0-11.343 6.896-21.075 16.725-25.232 3.276-1.386 27.741 10.108 27.741 25.232v148.182h-44.466z" fill="#ffcebf"/><path d="m68.618 133.698c-3.644 0-7.122.712-10.302 2.004 10.018 4.07 17.082 13.9 17.082 25.38v148.181h20.604v-148.181c0-15.124-12.261-27.384-27.384-27.384z" fill="#ffb09e"/><path d="m501.7 144.915v168.415c0 12.033-4.285 23.653-12.094 32.812l-51.911 62.924v65.231h-113.197v-105.244c0-14.227 5.996-27.794 16.514-37.375l66.509-60.555c5.913-5.388 12.939-7.799 19.81-7.799 6.325 0 12.537 2.05 17.637 5.697v.01c6.81 4.873 12.259 23.457 12.259 24.065v-148.181c0-7.561 3.07-14.412 8.025-19.357 1.199-1.201 2.508-2.291 3.912-3.252 4.399-3.015 32.536 7.486 32.536 22.609z" fill="#ffeee6"/><path d="m485.144 117.535c-5.934-.112-11.448 1.665-15.981 4.769 7.204 4.933 11.931 13.219 11.931 22.61v168.42c0 12.024-4.285 23.654-12.087 32.803l-48.38 58.646c-2.284 2.768-3.533 6.245-3.533 9.834v59.685h30.906v-59.685c0-3.589 1.249-7.065 3.533-9.834l48.38-58.646c7.802-9.149 12.087-20.779 12.087-32.803v-167.803c0-15.022-11.836-27.713-26.856-27.996z" fill="#ffdfcf"/><g><path d="m457.196 293.097c0 10.549-4.481 20.666-12.3 27.743l-55.96 50.696c-1.484 1.339-3.338 1.999-5.182 1.999-2.112 0-4.203-.855-5.728-2.534-2.864-3.163-2.627-8.046.536-10.91l55.96-50.706c4.584-4.152 15.412-15.267 10.446-40.353 6.81 4.873 11.651 12.62 12.208 22.221v.041c.01.794.02 1.412.02 1.803z" fill="#ffdfcf"/></g><path d="m177.202 369.053v105.244h-113.197v-59.68c0-3.589-1.249-7.066-3.533-9.834l-48.378-58.642c-7.809-9.158-12.094-20.778-12.094-32.811v-167.87c0-14.983 11.808-27.604 26.787-27.921 7.797-.165 14.878 2.924 19.963 8.019 4.955 4.945 8.025 11.796 8.025 19.357v148.182c0-5.16 5.491-7.479 5.491-7.479s1.488-12.035 3.915-14.268c1.383-1.275 2.883-2.414 4.472-3.405 4.769-2.974 29.915 8.093 35.829 13.481l66.509 60.555c10.517 9.579 6.211 12.845 6.211 27.072z" fill="#ffeee6"/><path d="m170.987 331.673-66.502-60.548c-10.657-9.703-24.918-9.764-35.433-3.43 1.563.971 3.079 2.111 4.527 3.43l66.502 60.548c10.522 9.58 16.52 23.152 16.52 37.382v105.247h30.906v-105.247c0-14.23-5.997-27.802-16.52-37.382z" fill="#ffdfcf"/><g><path d="m133.883 371c-1.535 1.679-3.626 2.534-5.738 2.534-1.844 0-3.698-.659-5.182-1.999l-55.96-50.696c-7.819-7.088-12.3-17.194-12.3-27.743 0-.618.021-1.525.072-2.627v2.627c0-9.014 3.729-16.524 9.406-21.747-1.834 21.428 8.623 33.883 13.197 38.045l55.96 50.696c3.162 2.864 3.409 7.747.545 10.91z" fill="#ffdfcf"/></g><g><path d="m358.629 109.242-98.437-70.312c-2.507-1.791-5.876-1.791-8.383 0l-98.437 70.312c-7.248 5.176-17.317 3.497-22.491-3.749-5.175-7.246-3.497-17.315 3.749-22.49l111.999-80c5.606-4.004 13.137-4.004 18.743 0l111.999 80c7.246 5.176 8.924 15.245 3.749 22.49-3.147 4.406-12.055 11.76-22.491 3.749z" fill="#f96491"/></g><path d="m288.001 234.302h-64v-67.091c0-3.983 3.229-7.211 7.211-7.211h49.577c3.983 0 7.211 3.229 7.211 7.211v67.091z" fill="#757575"/><path d="m256.355 128.061h-.708c-13.043 0-23.616-10.573-23.616-23.616v-.708c0-13.043 10.573-23.616 23.616-23.616h.708c13.043 0 23.616 10.573 23.616 23.616v.708c-.001 13.043-10.574 23.616-23.616 23.616z" fill="#8ce0ff"/><g><g><path d="m320 199.727c-4.268 0-7.726-3.459-7.726-7.726v-15.878c0-4.268 3.459-7.726 7.726-7.726 4.268 0 7.726 3.459 7.726 7.726v15.878c.001 4.267-3.458 7.726-7.726 7.726z" fill="#8ce0ff"/></g></g><g><g><path d="m192.001 199.727c-4.268 0-7.726-3.459-7.726-7.726v-15.878c0-4.268 3.459-7.726 7.726-7.726 4.268 0 7.726 3.459 7.726 7.726v15.878c0 4.267-3.459 7.726-7.726 7.726z" fill="#8ce0ff"/></g></g><path d="m453.698 501.698-20.603 10.302h-121.883c-3.983 0-7.211-3.229-7.211-7.211v-33.577c0-3.983 3.229-7.211 7.211-7.211h121.883l20.604 10.302v27.395z" fill="#8ce0ff"/><path d="m433.095 464v48h23.694c3.983 0 7.211-3.229 7.211-7.211v-33.577c0-3.983-3.229-7.211-7.211-7.211h-23.694z" fill="#00acf0"/><path d="m55.213 512h121.883l20.604-10.302v-27.396l-20.604-10.302h-121.883c-3.983 0-7.211 3.229-7.211 7.211v33.577c0 3.983 3.228 7.212 7.211 7.212z" fill="#8ce0ff"/><path d="m177.096 464v48h23.694c3.983 0 7.211-3.229 7.211-7.211v-33.577c0-3.983-3.229-7.211-7.211-7.211h-23.694z" fill="#00acf0"/><path d="m357.699 245.698-20.604 10.302h-185.882c-3.983 0-7.211-3.229-7.211-7.211v-17.577c0-3.983 3.229-7.211 7.211-7.211h185.882l20.604 10.302z" fill="#f96491"/><path d="m337.095 224v32h23.694c3.983 0 7.211-3.229 7.211-7.211v-17.577c0-3.983-3.229-7.211-7.211-7.211h-23.694z" fill="#f93a79"/></g></svg>