<svg id="Layer_1" enable-background="new 0 0 512 512" viewBox="0 0 512 512" xmlns="http://www.w3.org/2000/svg"><g><path d="m373.368 512h-333.986c-10.343 0-18.728-8.385-18.728-18.728v-423.85c0-10.343 8.385-18.728 18.728-18.728h333.986c10.343 0 18.728 8.385 18.728 18.728v423.85c0 10.343-8.385 18.728-18.728 18.728z" fill="#e19974"/><path d="m373.368 50.693h-36.056c10.343 0 18.728 8.385 18.728 18.728v423.85c0 10.343-8.385 18.728-18.728 18.728h36.056c10.343 0 18.728-8.385 18.728-18.728v-423.849c0-10.344-8.385-18.729-18.728-18.729z" fill="#dc8758"/><path d="m56.71 468.225v-373.756c0-4.263 3.456-7.719 7.719-7.719h255.017c4.263 0 18.296 3.456 18.296 7.719v373.756c0 4.263-14.033 7.719-18.296 7.719h-255.018c-4.263 0-7.718-3.456-7.718-7.719z" fill="#f2fbff"/><path d="m356.037 94.468v373.76c0 4.265-3.451 7.716-7.716 7.716h-28.876c4.265 0 7.716-3.451 7.716-7.716v-373.76c0-4.265-3.451-7.716-7.716-7.716h28.876c4.265 0 7.716 3.451 7.716 7.716z" fill="#dff6fd"/><g><g><g><path d="m294.249 299.31h-119.842c-4.268 0-7.726-3.459-7.726-7.726s3.459-7.726 7.726-7.726h119.842c4.268 0 7.726 3.459 7.726 7.726s-3.458 7.726-7.726 7.726z" fill="#7ca1b1"/></g></g><g><g><path d="m308.744 364.004h-134.337c-4.268 0-7.726-3.459-7.726-7.726s3.459-7.726 7.726-7.726h134.337c4.268 0 7.726 3.459 7.726 7.726s-3.458 7.726-7.726 7.726z" fill="#7ca1b1"/></g></g><g><g><path d="m308.744 428.698h-134.337c-4.268 0-7.726-3.459-7.726-7.726s3.459-7.726 7.726-7.726h134.337c4.268 0 7.726 3.459 7.726 7.726s-3.458 7.726-7.726 7.726z" fill="#7ca1b1"/></g></g></g><path d="m240.956 166.853h-16.267c-1.821 0-3.298-1.477-3.298-3.298v-16.267c0-3.097-2.51-5.607-5.607-5.607h-18.818c-3.097 0-5.607 2.51-5.607 5.607v16.267c0 1.821-1.477 3.298-3.298 3.298h-16.267c-3.097 0-5.607 2.51-5.607 5.607v18.818c0 3.097 2.51 5.607 5.607 5.607h16.267c1.821 0 3.298 1.477 3.298 3.298v16.267c0 3.097 2.51 5.607 5.607 5.607h18.818c3.097 0 5.607-2.51 5.607-5.607v-16.267c0-1.821 1.477-3.298 3.298-3.298h16.267c3.097 0 5.607-2.51 5.607-5.607v-18.818c0-3.097-2.51-5.607-5.607-5.607z" fill="#fe76a8"/><path d="m273.459 103.564-170.248.001c-8.674 0-14.258-9.21-10.24-16.905l18.646-35.778c3.698-7.088 11.033-11.538 19.027-11.538h34.233c3.822 0 6.933-3.101 6.933-6.923v-11.385c0-11.62 9.416-21.036 21.037-21.036h27.053c11.62 0 21.047 9.416 21.047 21.036v11.384c0 3.822 3.101 6.923 6.923 6.923h34.233c8.005 0 9.441 47.316 9.441 47.316 4.005 7.695-3.236 16.905-18.085 16.905z" fill="#7ca1b1"/><g fill="#678d98"><path d="m247.868 39.343-28.989-.093c-2.627-.01-4.749-2.132-4.749-4.759v-13.558c0-10.889-8.272-19.852-18.873-20.933h24.642c11.62 0 21.047 9.416 21.047 21.036v11.384c0 3.822 3.101 6.923 6.922 6.923z"/><path d="m319.783 86.663-18.655-35.783c-3.696-7.089-11.027-11.535-19.022-11.535h-34.234c7.994 0 13.483 4.446 17.179 11.535l18.655 35.784c4.011 7.694-1.571 16.9-10.248 16.9h36.076c8.678 0 14.26-9.206 10.249-16.901z"/></g><g><path d="m129.954 306.17h-19.099c-3.784 0-6.851-3.067-6.851-6.851v-19.099c0-3.784 3.067-6.851 6.851-6.851h19.099c3.784 0 6.851 3.067 6.851 6.851v19.099c0 3.783-3.067 6.851-6.851 6.851z" fill="#c8effe"/></g><g><path d="m129.954 370.863h-19.099c-3.784 0-6.851-3.067-6.851-6.851v-19.099c0-3.784 3.067-6.851 6.851-6.851h19.099c3.784 0 6.851 3.067 6.851 6.851v19.099c0 3.784-3.067 6.851-6.851 6.851z" fill="#c8effe"/></g><g><path d="m129.954 435.557h-19.099c-3.784 0-6.851-3.067-6.851-6.851v-19.099c0-3.784 3.067-6.851 6.851-6.851h19.099c3.784 0 6.851 3.067 6.851 6.851v19.099c0 3.784-3.067 6.851-6.851 6.851z" fill="#c8effe"/></g><g><path d="m305.892 310.755-23.084 8.459c-2.956 1.083-5.828-1.788-4.744-4.744l8.459-23.084c1.752-4.782 4.526-9.125 8.127-12.726l155.996-155.996c6.619-6.619 17.349-6.619 23.968 0 6.619 6.619 6.619 17.349 0 23.968l-155.996 155.996c-3.602 3.601-7.944 6.375-12.726 8.127z" fill="#62dbfb"/></g><g><path d="m305.892 310.755-23.084 8.459c-2.956 1.083-5.828-1.788-4.744-4.744l8.459-23.084c1.752-4.782 4.526-9.125 8.127-12.726l155.996-155.996c6.619-6.619 17.349-6.619 23.968 0 6.619 6.619 6.619 17.349 0 23.968l-155.996 155.996c-3.602 3.601-7.944 6.375-12.726 8.127z" fill="#62dbfb"/></g><g><g><path d="m431.844 234.27c-1.977 0-3.955-.755-5.464-2.263-3.017-3.017-3.017-7.909 0-10.927l47.697-47.697c2.432-2.432 2.432-6.388 0-8.819l-9.278-9.278c-3.017-3.018-3.017-7.909.001-10.927 3.016-3.018 7.908-3.017 10.927 0l9.278 9.278c8.456 8.456 8.456 22.216 0 30.673l-47.697 47.697c-1.509 1.509-3.487 2.263-5.464 2.263z" fill="#01d0fb"/></g></g><g><path d="m305.892 310.755-23.084 8.459c-2.956 1.083-5.828-1.788-4.744-4.744l8.459-23.084c1.752-4.782 4.526-9.125 8.127-12.726l155.996-155.996c6.619-6.619 17.349-6.619 23.968 0 6.619 6.619 6.619 17.349 0 23.968l-155.996 155.996c-3.602 3.601-7.944 6.375-12.726 8.127z" fill="#62dbfb"/></g><circle cx="206.373" cy="31.214" fill="#f2fbff" r="7.726"/></g><g/><g/><g/><g/><g/><g/><g/><g/><g/><g/><g/><g/><g/><g/><g/></svg>