<svg id="Capa_1" enable-background="new 0 0 497.002 497.002" height="512" viewBox="0 0 497.002 497.002" width="512" xmlns="http://www.w3.org/2000/svg"><g><path d="m437.247 365.37-406.128 2.809c-8.228 0-16.802-2.253-22.222-7.617-5.494-5.438-8.897-12.983-8.897-21.324v-244.778c0-1.597.125-3.165.365-4.695 0 0 11.416-22.19 26.387-22.19l410.069-.672c14.975 0 30.33 22.873 30.33 22.873.239 1.527.364 3.091.364 4.685v138.496l-8.903 96.159c0 16.567-4.796 36.254-21.365 36.254z" fill="#b2e5fb"/><path d="m467.512 232.956v106.28c0 16.57-13.43 30-30 30l-151.01-7.1-8.62 7.1c-5.02-13.26-7.77-27.64-7.77-42.64 0-66.69 54.25-120.95 120.94-120.95 28.98 0 55.61 10.25 76.46 27.31z" fill="#98e0f9"/><path d="m467.143 89.776-173.91 142.06c-16.74 13.68-37.86 21.21-59.47 21.21-21.62 0-42.73-7.53-59.47-21.21l-173.921-142.07c1.053-6.706 4.331-12.678 9.055-17.135 5.371-5.067 15.43-6.835 23.394-6.835l401.872 1.106c7.967 0 18.026.66 23.396 5.726 4.727 4.459 8.005 10.435 9.054 17.148z" fill="#98e0f9"/><path d="m458.612 360.546c-5.41 5.37-12.86 8.69-21.1 8.69l-150.733-2.675-8.897 2.675h-247.88c-8.23 0-15.68-3.32-21.1-8.68l161.48-131.91 30.269-14.254 69.461.681 27.02 13.573 11.619 9.491 1.57 3.915z" fill="#d3effd"/><g><g><path d="m288.9 305.017h-101.14c-4.143 0-7.5-3.357-7.5-7.5s3.357-7.5 7.5-7.5h101.14c4.143 0 7.5 3.357 7.5 7.5s-3.358 7.5-7.5 7.5z" fill="#b2e5fb"/></g><g><path d="m284.9 335.017h-128.64c-4.143 0-7.5-3.357-7.5-7.5s3.357-7.5 7.5-7.5h128.64c4.143 0 7.5 3.357 7.5 7.5s-3.358 7.5-7.5 7.5z" fill="#b2e5fb"/></g></g><path d="m297.132 228.646-3.9 3.19c-16.74 13.68-37.86 21.21-59.47 21.21-21.62 0-42.73-7.53-59.47-21.21l-3.91-3.19 31.13-25.43 60.84-2.98z" fill="#b2e5fb"/><path d="m458.082 72.636-176.87 144.49c-27.62 22.56-67.29 22.56-94.9 0l-176.88-144.49c5.37-5.07 12.61-8.18 20.57-8.18h407.51c7.97 0 15.21 3.1 20.57 8.18z" fill="#d3effd"/><path d="m458.612 360.546c-.34.34-.69.66-1.04.98-3.53 3.19-7.82 5.55-12.56 6.76-.48.13-.96.24-1.45.34s-.98.19-1.48.26c-.35.06-.7.11-1.06.14-1.15.14-2.32.21-3.51.21h-159.63c-5.02-13.26-7.77-27.64-7.77-42.64 0-34.91 14.87-66.42 38.6-88.5z" fill="#b2e5fb"/><path d="m296.402 297.516c0 4.14-3.36 7.5-7.5 7.5h-16.86c.93-5.12 2.17-10.13 3.73-15h13.13c4.14 0 7.5 3.36 7.5 7.5z" fill="#98e0f9"/><path d="m292.402 327.516c0 4.14-3.36 7.5-7.5 7.5h-14.5c-.19-2.78-.29-5.59-.29-8.42 0-2.21.06-4.4.17-6.58h14.62c4.14 0 7.5 3.36 7.5 7.5z" fill="#98e0f9"/><path d="m497.002 326.597c0 56.279-43.881 102.309-99.295 105.741-2.2.136-4.417-.266-6.651-.266-58.513 0-103.085-46.962-103.085-105.475s44.577-105.525 103.09-105.525c2.193 0 4.365-.356 6.525-.224 55.471 3.373 99.416 49.429 99.416 105.749z" fill="#f9f8f9"/><path d="m398.552 432.276c-2.47.18-4.98.27-7.5.27-58.51 0-105.94-47.44-105.94-105.95s47.43-105.95 105.94-105.95c2.52 0 5.03.09 7.5.27-55.01 3.84-98.44 49.69-98.44 105.68s43.43 101.84 98.44 105.68z" fill="#e8e8e8"/><g><g><g><path d="m387.453 369.931c-20.205 0-36.644-19.78-36.644-44.094 0-26.649 19.018-42.574 37.403-42.574 20.353 0 35.124 17.813 35.124 42.355 0 24.848-15.761 44.313-35.883 44.313zm.759-71.668c-11.013 0-22.403 10.314-22.403 27.574 0 16.042 9.709 29.094 21.644 29.094 11.516 0 20.884-13.149 20.884-29.313-.001-16.106-8.276-27.355-20.125-27.355z" fill="#b2e5fb"/></g></g><g><g><path d="m389.568 405.561c-.07 0-.141-.001-.211-.003-16.687-.461-33.16-6.39-46.385-16.693-13.736-10.701-23.35-25.306-27.802-42.236-5.141-19.545-2.554-40.153 7.285-58.029 9.836-17.87 25.86-31.089 45.12-37.22 20.331-6.471 41.908-4.563 60.767 5.368 18.861 9.934 32.641 26.643 38.799 47.049.023.077.046.155.066.233 4.065 15.23 2.839 29.667-3.979 46.807-4.364 10.976-15.026 22.704-31.863 22.704-5.781 0-11.343-2.391-15.663-6.731-4.803-4.827-7.538-11.563-7.504-18.479l.31-62.688c.021-4.129 3.374-7.463 7.499-7.463h.038c4.142.021 7.483 3.395 7.463 7.537l-.31 62.688c-.015 2.91 1.158 5.835 3.137 7.824 1.483 1.49 3.271 2.312 5.03 2.312 11.425 0 16.342-9.264 17.926-13.247 5.604-14.092 6.64-25.249 3.455-37.278-5.006-16.478-16.151-29.968-31.395-37.996-15.275-8.045-32.759-9.587-49.226-4.347-32.463 10.334-51.108 44.218-42.45 77.142 7.189 27.335 31.901 46.971 60.095 47.75 4.141.114 7.404 3.563 7.29 7.704-.111 4.069-3.446 7.292-7.492 7.292z" fill="#b2e5fb"/></g></g></g></g></svg>