<svg id="Capa_1" enable-background="new 0 0 512 512" height="512" viewBox="0 0 512 512" width="512" xmlns="http://www.w3.org/2000/svg"><g><g><path d="m24.702 440.7v32.371c0 2.845 2.306 5.151 5.151 5.151h452.295c2.845 0 5.151-2.306 5.151-5.151v-32.371z" fill="#ffe5c2"/></g><g><path d="m446.583 440.7v32.371c0 2.845-2.306 5.151-5.151 5.151h40.715c2.845 0 5.151-2.306 5.151-5.151v-32.371z" fill="#fed2a4"/></g><g><g><g><g><g><path d="m299.596 422.157h159.273v-173.219h-143.119c-14.224 0-25.755 11.531-25.755 25.755v137.863c.001 5.303 4.299 9.601 9.601 9.601z" fill="#26a6fe"/></g><g><path d="m366.229 380.05c5.121 0 9.272 4.151 9.272 9.272v20.473h81.384c14.224 0 25.755-11.531 25.755-25.755v-72.066h-47.541v60.734h-42.085v-.325c0-10.062-8.157-18.219-18.219-18.219h-23.313c-10.062 0-18.219 8.157-18.219 18.219v7.667z" fill="#ffcebf"/></g><g><g><path d="m466.157 311.974v72.066c0 14.224-11.531 25.755-25.755 25.755h16.483c14.224 0 25.755-11.531 25.755-25.755v-72.066z" fill="#ffb09e"/></g></g><g><path d="m435.099 345.642h47.541v-72.933c0-13.128-10.642-23.77-23.77-23.77-13.128 0-23.77 10.642-23.77 23.77v72.933z" fill="#8ac9fe"/></g><g><path d="m458.869 248.938c-2.898 0-5.674.52-8.241 1.469 9.065 3.351 15.529 12.071 15.529 22.301v72.933h16.483v-72.933c0-13.127-10.643-23.77-23.771-23.77z" fill="#60b7ff"/></g></g><g><path d="m387.18 229.681h-32.465v24.294c0 11.323 9.179 20.502 20.502 20.502s20.502-9.179 20.502-20.502v-25.347c-2.735.684-5.594 1.053-8.539 1.053z" fill="#f89580"/></g><g><path d="m321.326 113.793c2.161.318 4.342.477 6.526.477h59.634c4.683 0 8.914 2.953 10.527 7.348l15.119 41.154 7.51-18.774h.653c7.662 0 14.841 3.581 19.477 9.63v1.625c-.015-.023-.033-.044-.049-.067 2.615 3.796 4.149 8.394 4.149 13.353 0 12.348-9.494 22.473-21.58 23.487v2.472c0 19.944-16.168 36.112-36.112 36.112h-36.722c-19.944 0-36.112-16.168-36.112-36.112v-81.732z" fill="#ffcebf"/></g><g><path d="m398.877 65.003c23.138 0 41.895 18.757 41.895 41.895v48.356c-4.246-6.213-11.385-10.291-19.477-10.291l-8.201 20.502-15.985-43.515c-1.482-4.035-5.324-6.716-9.623-6.716h-64.716c-14.091 0-25.515-11.423-25.515-25.515v-15.115c0-5.302 4.298-9.6 9.6-9.6h92.022z" fill="#bb5d4c"/></g><g><g><path d="m376.722 163.923c-4.142 0-7.5-3.357-7.5-7.5v-8.294c0-4.143 3.358-7.5 7.5-7.5s7.5 3.357 7.5 7.5v8.294c0 4.142-3.358 7.5-7.5 7.5z" fill="#f89580"/></g><g><path d="m342.968 163.923c-4.142 0-7.5-3.357-7.5-7.5v-8.294c0-4.143 3.358-7.5 7.5-7.5s7.5 3.357 7.5 7.5v8.294c0 4.142-3.358 7.5-7.5 7.5z" fill="#f89580"/></g></g><g><path d="m341.817 182.335v7.392c0 9.776 7.602 18.102 17.372 18.449 10.256.364 18.685-7.842 18.685-18.016v-7.824c0-1.823-1.478-3.301-3.301-3.301h-29.454c-1.824-.001-3.302 1.477-3.302 3.3z" fill="#fe7d43"/></g></g></g><g><g><g><g><path d="m212.404 422.157h-159.273v-173.219h143.119c14.224 0 25.755 11.531 25.755 25.755v137.863c-.001 5.303-4.299 9.601-9.601 9.601z" fill="#ffe177"/></g><g><g><path d="m29.36 311.974h47.541v110.183h-37.94c-5.302 0-9.6-4.298-9.6-9.6v-100.583z" fill="#d78878"/></g></g><g><path d="m76.901 345.642h-47.541v-72.933c0-13.128 10.642-23.77 23.77-23.77 13.128 0 23.77 10.642 23.77 23.77v72.933z" fill="#ffe177"/></g></g><g><path d="m124.82 229.681h32.465v24.294c0 11.323-9.179 20.502-20.502 20.502s-20.502-9.179-20.502-20.502v-25.347c2.735.684 5.594 1.053 8.539 1.053z" fill="#ca6e59"/></g><g><g><path d="m140.417 229.681v24.294c0 8.313-4.957 15.455-12.068 18.673 2.575 1.165 5.424 1.83 8.434 1.83 11.323 0 20.502-9.179 20.502-20.502v-24.294h-16.868z" fill="#bb5d4c"/></g></g><g><g><path d="m113.987 121.618-15.119 41.154-7.51-18.774h-.653c-7.662 0-14.841 3.581-19.477 9.63v1.625c.015-.023.033-.044.049-.067-2.615 3.796-4.149 8.394-4.149 13.353 0 12.348 9.494 22.473 21.58 23.487v2.472c0 19.944 16.168 36.112 36.112 36.112h36.722c19.944 0 36.112-16.168 36.112-36.112v-80.228h-73.14c-4.683 0-8.914 2.953-10.527 7.348z" fill="#d78878"/></g></g><path d="m175 114.27v80.229c0 19.944-16.168 36.112-36.112 36.112h22.654c19.944 0 36.112-16.168 36.112-36.112v-80.229z" fill="#ca6e59"/><g><g><path d="m135.278 163.923c-4.142 0-7.5-3.357-7.5-7.5v-8.294c0-4.143 3.358-7.5 7.5-7.5s7.5 3.357 7.5 7.5v8.294c0 4.142-3.358 7.5-7.5 7.5z" fill="#bb5d4c"/></g><g><path d="m169.032 163.923c-4.142 0-7.5-3.357-7.5-7.5v-8.294c0-4.143 3.358-7.5 7.5-7.5s7.5 3.357 7.5 7.5v8.294c0 4.142-3.358 7.5-7.5 7.5z" fill="#bb5d4c"/></g></g><g><path d="m152.141 208.675c-6.349.001-12.325-2.407-16.913-6.835-4.804-4.637-7.449-10.866-7.449-17.541 0-4.143 3.358-7.5 7.5-7.5s7.5 3.357 7.5 7.5c0 2.567 1.018 4.964 2.866 6.747 1.846 1.783 4.276 2.713 6.859 2.623 4.979-.177 9.028-4.562 9.028-9.775 0-4.143 3.358-7.5 7.5-7.5s7.5 3.357 7.5 7.5c0 13.42-10.321 24.299-23.497 24.766-.298.01-.597.015-.894.015z" fill="#bb5d4c"/></g></g></g><g><path d="m366.229 379.02h-227.731v34.011h238.033v-23.709c0-5.69-4.612-10.302-10.302-10.302z" fill="#554e56"/></g><g><path d="m317.023 413.031h-178.525l-28.305-122.478c-1.492-6.456 3.411-12.621 10.037-12.621h153.282c7.194 0 13.436 4.964 15.056 11.973z" fill="#685e68"/></g></g><g><path d="m506.849 444.821h-501.698c-2.845 0-5.151-2.306-5.151-5.151v-25.755c0-2.845 2.306-5.151 5.151-5.151h501.698c2.845 0 5.151 2.306 5.151 5.151v25.755c0 2.845-2.306 5.151-5.151 5.151z" fill="#f6a96c"/></g><g><path d="m506.849 408.764h-28.33v14.125c0 2.845-2.306 5.151-5.151 5.151h-473.368v11.63c0 2.845 2.306 5.151 5.151 5.151h501.698c2.845 0 5.151-2.306 5.151-5.151v-25.755c0-2.844-2.306-5.151-5.151-5.151z" fill="#ea9b58"/></g><g><path d="m204.32 77.414c.771-2.389 1.201-4.932 1.201-7.579 0-13.655-11.069-24.724-24.724-24.724-3.866 0-7.524.889-10.783 2.471-4.033-8.176-12.449-13.803-22.183-13.803-10.61 0-19.656 6.685-23.164 16.071-4.511-4.816-10.924-7.829-18.043-7.829-13.655 0-24.724 11.069-24.724 24.724 0 1.049.073 2.081.2 3.096-.067-.001-.133-.005-.2-.005-13.655 0-24.724 11.069-24.724 24.724 0 9.833 5.741 18.324 14.053 22.308v38.387c4.246-6.213 11.385-10.291 19.477-10.291l8.201 20.502 15.985-43.515c1.482-4.035 5.324-6.716 9.623-6.716h72.766c10.81 0 19.573-8.763 19.573-19.573-.001-8.326-5.207-15.419-12.534-18.248z" fill="#554e56"/></g><g><g><path d="m204.32 77.414c.771-2.389 1.201-4.932 1.201-7.579 0-13.655-11.069-24.724-24.724-24.724-3.57 0-6.959.766-10.024 2.128 5.576 4.901 9.1 12.081 9.1 20.088 0 2.862-.464 5.612-1.299 8.197 7.924 3.06 13.554 10.731 13.554 19.735 0 9.252-5.945 17.097-14.215 19.976h19.366c10.81 0 19.573-8.763 19.573-19.573.001-8.326-5.205-15.419-12.532-18.248z" fill="#433f43"/></g></g><g><ellipse cx="203.862" cy="346.954" fill="#fff" rx="23.584" ry="28.125" transform="matrix(.675 -.738 .738 .675 -189.694 262.99)"/></g><path d="m229.617 346.954c-2.508-14.224-16.072-25.755-30.296-25.755-3.55 0-6.805.719-9.654 2.018 9.941 3.906 18.049 13.063 19.931 23.737s-2.997 19.831-11.56 23.737c3.306 1.299 6.815 2.018 10.365 2.018 14.225-.001 23.722-11.532 21.214-25.755z" fill="#eaf6ff"/></g></svg>