<svg id="Capa_1" enable-background="new 0 0 512 512" height="512" viewBox="0 0 512 512" width="512" xmlns="http://www.w3.org/2000/svg"><g><path d="m482.529 102.43-198.641-16.167-254.417 16.167v397.041c0 6.92 5.609 12.529 12.529 12.529h427.998c6.921 0 12.532-5.611 12.532-12.532z" fill="#f6f9f9"/><path d="m482.529 102.43-41.207-20.603v314.047c0 52.755-42.767 95.522-95.522 95.522h-316.329v8.075c0 6.92 5.609 12.529 12.529 12.529h427.997c6.921 0 12.532-5.611 12.532-12.532z" fill="#e7ecf1"/><path d="m469.998 29.226h-427.996c-6.921 0-12.531 5.61-12.531 12.531v60.673h453.058v-60.673c0-6.921-5.61-12.531-12.531-12.531z" fill="#61a2f9"/><path d="m469.999 29.226h-28.677v73.204h41.207v-60.673c0-6.921-5.61-12.531-12.53-12.531z" fill="#5490f9"/><path d="m93.508 68.966h-7.04c-6.895 0-12.485-5.59-12.485-12.485v-43.996c0-6.895 5.59-12.485 12.485-12.485h7.04c6.895 0 12.485 5.59 12.485 12.485v43.995c0 6.896-5.589 12.486-12.485 12.486z" fill="#dae4ea"/><path d="m176.514 68.966h-7.04c-6.895 0-12.485-5.59-12.485-12.485v-43.996c0-6.895 5.59-12.485 12.485-12.485h7.04c6.895 0 12.485 5.59 12.485 12.485v43.995c0 6.896-5.589 12.486-12.485 12.486z" fill="#dae4ea"/><path d="m259.52 68.966h-7.04c-6.895 0-12.485-5.59-12.485-12.485v-43.996c0-6.895 5.59-12.485 12.485-12.485h7.04c6.895 0 12.485 5.59 12.485 12.485v43.995c0 6.896-5.59 12.486-12.485 12.486z" fill="#dae4ea"/><path d="m342.526 68.966h-7.04c-6.895 0-12.485-5.59-12.485-12.485v-43.996c0-6.895 5.589-12.485 12.485-12.485h7.04c6.895 0 12.485 5.59 12.485 12.485v43.995c0 6.896-5.59 12.486-12.485 12.486z" fill="#dae4ea"/><path d="m425.532 68.966h-7.04c-6.895 0-12.485-5.59-12.485-12.485v-43.996c0-6.895 5.589-12.485 12.485-12.485h7.04c6.895 0 12.485 5.59 12.485 12.485v43.995c0 6.896-5.59 12.486-12.485 12.486z" fill="#dae4ea"/><g fill="#e49542"><path d="m256 223.598c4.952 0 9.804.431 14.519 1.257v-43.447c0-8.019-6.5-14.519-14.519-14.519s-14.519 6.501-14.519 14.519v43.447c4.715-.825 9.567-1.257 14.519-1.257z"/><path d="m196.904 248.077c3.502-3.502 7.237-6.627 11.156-9.378l-30.722-30.722c-5.67-5.67-14.863-5.67-20.533 0s-5.67 14.863 0 20.533l30.722 30.722c2.75-3.918 5.875-7.653 9.377-11.155z"/><path d="m172.426 307.173c0-4.952.431-9.804 1.257-14.519h-43.447c-8.019 0-14.519 6.5-14.519 14.519s6.501 14.519 14.519 14.519h43.447c-.826-4.715-1.257-9.567-1.257-14.519z"/><path d="m196.904 366.269c-3.502-3.502-6.627-7.237-9.378-11.156l-30.722 30.722c-5.67 5.67-5.67 14.863 0 20.533s14.863 5.67 20.533 0l30.722-30.722c-3.918-2.75-7.653-5.876-11.155-9.377z"/><path d="m256 390.747c-4.952 0-9.804-.431-14.519-1.257v43.447c0 8.019 6.501 14.519 14.519 14.519s14.519-6.501 14.519-14.519v-43.447c-4.715.826-9.567 1.257-14.519 1.257z"/><path d="m315.096 366.269c-3.502 3.502-7.237 6.627-11.156 9.378l30.722 30.722c5.67 5.67 14.863 5.67 20.533 0s5.67-14.863 0-20.533l-30.722-30.722c-2.75 3.918-5.875 7.653-9.377 11.155z"/><path d="m339.574 307.173c0 4.952-.431 9.804-1.257 14.519h43.447c8.019 0 14.519-6.5 14.519-14.519s-6.501-14.519-14.519-14.519h-43.447c.826 4.715 1.257 9.567 1.257 14.519z"/><path d="m315.096 248.077c3.502 3.502 6.627 7.237 9.378 11.156l30.722-30.722c5.67-5.67 5.67-14.863 0-20.533s-14.863-5.67-20.533 0l-30.722 30.722c3.918 2.749 7.653 5.875 11.155 9.377z"/></g><circle cx="256" cy="307.173" fill="#f1d333" r="86.412"/></g></svg>