<svg id="Capa_1" enable-background="new 0 0 512 512" height="512" viewBox="0 0 512 512" width="512" xmlns="http://www.w3.org/2000/svg"><g><path d="m195.955 210.441h13.847v158.657h-13.847z" fill="#dd8858"/><path d="m203.103 50.251c-3.797 2.876-6.259 7.422-6.259 12.553v23.785l.465.716h10.079l2.414-2.205v-22.436c0-5.191-2.665-9.755-6.699-12.413z" fill="#dd8858"/><path d="m196.97 86.602v-23.34c0-5.247 2.62-9.876 6.616-12.67-2.437-1.749-5.417-2.79-8.646-2.79-8.208 0-14.862 6.654-14.862 14.862v22.436l1.431 2.205h15.917z" fill="#cb6c35"/><path d="m180.078 210.441h16.892v158.657h-16.892z" fill="#cb6c35"/><path d="m326.838 206.545c-5.112-68.384-62.207-122.28-131.898-122.28l2.888 3.04 73.877 123.137 5.451 4.96h41.43c4.796 0 8.61-4.074 8.252-8.857z" fill="#ffc365"/><g><path d="m504.388 102.334h-12.431c-4.204 0-7.611-3.407-7.611-7.611s3.408-7.611 7.611-7.611h12.431c4.204 0 7.611 3.407 7.611 7.611s-3.407 7.611-7.611 7.611z" fill="#ffc365"/></g><g><path d="m342.599 102.334h-12.431c-4.204 0-7.611-3.407-7.611-7.611s3.408-7.611 7.611-7.611h12.431c4.204 0 7.611 3.407 7.611 7.611s-3.407 7.611-7.611 7.611z" fill="#ffc365"/></g><g><path d="m464.702 47.297c-2.973-2.972-2.972-7.792 0-10.764l8.79-8.79c2.973-2.972 7.792-2.971 10.764.001 2.973 2.972 2.972 7.792 0 10.764l-8.79 8.79c-2.972 2.972-7.791 2.972-10.764-.001z" fill="#ffc365"/></g><g><path d="m350.3 161.701c-2.972-2.972-2.973-7.792 0-10.764l8.79-8.791c2.972-2.973 7.792-2.972 10.764-.001 2.972 2.972 2.973 7.792 0 10.764l-8.79 8.791c-2.972 2.973-7.791 2.973-10.764.001z" fill="#ffc365"/></g><g><path d="m417.278 27.654c-4.204 0-7.611-3.407-7.611-7.611v-12.432c0-4.204 3.408-7.611 7.611-7.611s7.611 3.407 7.611 7.611v12.431c.001 4.205-3.407 7.612-7.611 7.612z" fill="#ffc365"/></g><g><path d="m417.278 189.443c-4.204 0-7.611-3.407-7.611-7.611v-12.431c0-4.204 3.408-7.611 7.611-7.611s7.611 3.407 7.611 7.611v12.431c.001 4.204-3.407 7.611-7.611 7.611z" fill="#ffc365"/></g><g><path d="m359.09 47.298-8.79-8.79c-2.972-2.972-2.973-7.792 0-10.764 2.972-2.973 7.792-2.972 10.764-.001l8.79 8.79c2.972 2.972 2.973 7.792 0 10.764-2.972 2.973-7.791 2.973-10.764.001z" fill="#ffc365"/></g><g><path d="m473.493 161.7-8.79-8.791c-2.973-2.972-2.972-7.792 0-10.764 2.972-2.971 7.792-2.972 10.764.001l8.79 8.791c2.973 2.972 2.972 7.792 0 10.764-2.973 2.972-7.792 2.972-10.764-.001z" fill="#ffc365"/></g><path d="m434.234 50.974c-15.573 8.384-26.167 24.822-26.167 43.748s10.593 35.364 26.167 43.748c17.53-6.799 29.964-23.816 29.964-43.748s-12.434-36.949-29.964-43.748z" fill="#ffc365"/><path d="m409.667 94.722c0-18.893 11.172-35.167 27.266-42.604-5.98-2.763-12.634-4.316-19.654-4.316-25.913 0-46.92 21.007-46.92 46.92s21.007 46.92 46.92 46.92c7.02 0 13.674-1.553 19.654-4.316-16.094-7.437-27.266-23.711-27.266-42.604z" fill="#ffa90f"/><path d="m104.591 424.831-14.716-1.099-9.81-10.952h-1.682l-38.433 76.316c-3.924 7.791-.789 17.288 7.002 21.212 7.796 3.926 17.29.784 21.213-7.002l38.048-75.551z" fill="#8bcaff"/><path d="m353.567 365.719h-223.612c-2.621 0-5.123-.825-7.208-2.281v2.447l19.331 32.645h217.921l6.455-2.365v-17.56c-.001-7.117-5.77-12.886-12.887-12.886z" fill="#60b9fe"/><g><path d="m122.747 363.438c-1.357-.947-2.54-2.155-3.45-3.598l-57.467-91.099c-3.797-6.019-11.754-7.82-17.773-4.024l-14.852 9.369v7.395l73.019 117.047h42.384z" fill="#1ca8ff"/></g><path d="m194.94 84.265-2.056 3.04v125.843l2.056 2.254h82.216c-.383-72.529-37.042-131.137-82.216-131.137z" fill="#f27182"/><path d="m448.136 486.149-69.499-84.241c-3.001-3.637-7.469-5.743-12.184-5.743h-255.505c-.46 0-.915-.034-1.363-.094v2.459l18.587 29.226h225.999c3.062 0 5.965 1.368 7.914 3.73l61.684 74.768c5.552 6.73 15.508 7.682 22.236 2.132 6.728-5.552 7.683-15.507 2.131-22.237z" fill="#dbedff"/><g><path d="m124.685 420.311-15.101-24.241c-3.009-.403-5.714-2.124-7.344-4.741l-73.036-117.242c-4.611-7.404-14.353-9.667-21.759-5.055-7.404 4.613-9.667 14.354-5.054 21.759l80.684 129.521c2.884 4.63 7.952 7.444 13.407 7.444h41.609c-5.454-.001-10.523-2.815-13.406-7.445z" fill="#b5dcff"/></g><path d="m186.795 92.041 8.145-7.776c-69.691 0-126.786 53.896-131.898 122.28-.358 4.783 3.456 8.856 8.252 8.856h41.429l9.796-4.96z" fill="#ed5469"/><path d="m186.67 84.928c-26.117 23.556-44.993 72.423-48.374 130.474h56.644v-131.137c-2.791 0-5.55.226-8.27.663z" fill="#ffc365"/><path d="m188.858 84.626c-42.337 4.98-75.769 61.532-76.134 130.776h26.689c3.131-58.924 22.612-108.37 49.445-130.776z" fill="#ffa90f"/></g></svg>