<svg id="Capa_1" enable-background="new 0 0 512 512" viewBox="0 0 512 512" xmlns="http://www.w3.org/2000/svg"><g><g><g><path d="m312.4 243.214h-112.8c-36.188 23.29-59.112 63.748-59.112 108.319 0 7.782 6.308 14.09 14.09 14.09h81.771l19.651-17.129 19.651 17.129h81.771c7.782 0 14.09-6.308 14.09-14.09 0-44.571-22.924-85.029-59.112-108.319z" fill="#eaf6ff"/><path d="m275.651 365.623-10.406-68.546-9.245-11.277-9.245 11.277-10.406 68.546z" fill="#fd8087"/><path d="m265.245 297.077 10.406-23.92-3.334-13.26-16.317-6.393-15.593 5.642-4.058 14.011 10.406 23.92z" fill="#fe646f"/><path d="m312.4 243.214h-24.976c36.188 23.29 59.112 63.748 59.112 108.319 0 7.782-6.308 14.09-14.09 14.09h24.976c7.782 0 14.09-6.309 14.09-14.09 0-44.571-22.924-85.029-59.112-108.319z" fill="#d8ecfe"/><path d="m280.976 228.531h-24.976v24.976l19.651 19.651c4.483 4.483 11.63 4.914 16.59.965 9.728-7.746 16.933-18.53 20.158-30.908-9.603-6.182-20.129-11.169-31.423-14.684z" fill="#b3dafe"/><path d="m231.024 228.531h24.976v24.976l-19.651 19.651c-4.483 4.483-11.63 4.914-16.59.965-9.728-7.746-16.933-18.53-20.158-30.908 9.603-6.182 20.129-11.169 31.423-14.684z" fill="#b3dafe"/><path d="m256 253.506c-13.794 0-24.976-11.182-24.976-24.976v-28.43h49.951v28.43c.001 13.794-11.181 24.976-24.975 24.976z" fill="#f6a96c"/><path d="m196.683 83.252v31.22l-9.115 20.813 9.115 20.813c0 28.103 19.551 51.625 45.789 57.749h14.078l22.345-5.193 2.067 1.254c20.284-9.426 34.356-29.969 34.356-53.809v-72.847z" fill="#fed2a4"/><path d="m288.26 83.252v72.846c0 28.103-19.551 51.625-45.789 57.749 4.347 1.015 8.872 1.568 13.528 1.568 32.76 0 59.317-26.557 59.317-59.317l9.511-20.813-9.511-20.813v-31.22z" fill="#ffbd86"/><path d="m294.293 16.262-4.58-1.041c-9.447-9.73-22.431-15.221-35.993-15.221-41.456 0-75.063 33.607-75.063 75.063v49.815l17.848-10.406h36.043c15.352 0 30.423-4.121 43.64-11.932l9.88-5.839c2.201-1.301 4.972-1.128 6.995.435l15.303 11.827 6.465-4.065.477 9.431.184.143 17.848 10.406v-59.696c.003-23.423-16.206-43.729-39.047-48.92z" fill="#7a6d79"/><path d="m294.293 16.262-1.944-.442c9.942 9.249 16.018 22.406 16.018 36.738v56.405l7.127 5.508 17.848 10.407v-59.696c.001-23.424-16.208-43.729-39.049-48.92z" fill="#685e68"/><g fill="#f6a96c"><path d="m325.724 156.098h-10.407v-41.626h10.407c11.495 0 20.813 9.318 20.813 20.813 0 11.494-9.319 20.813-20.813 20.813z"/><path d="m186.276 156.098h10.407v-41.626h-10.407c-11.495 0-20.813 9.318-20.813 20.813 0 11.494 9.319 20.813 20.813 20.813z"/></g></g></g><g><g><g><path d="m46.897 478.699 60.534-8.747 66.962 8.747v20.813c0 6.897-5.591 12.488-12.488 12.488h-102.521c-6.897 0-12.488-5.591-12.488-12.488v-20.813z" fill="#fd8087"/><path d="m147.336 472.204v27.308c0 6.897-5.591 12.488-12.488 12.488h27.057c6.897 0 12.488-5.591 12.488-12.488v-20.813z" fill="#fe646f"/><path d="m158.848 325.712-7.796-25.268-56.435-56.435c-9.708-9.708-25.505-10.44-35.595-1.128-3.227 2.978-5.497 6.579-6.818 10.433v-131.472c0-14.416-11.686-26.102-26.102-26.102-14.416 0-26.102 11.686-26.102 26.102v183.733c0 14.323 3.901 28.377 11.283 40.651l30.598 50.872c3.281 5.455 5.015 11.701 5.015 18.067v30.233l63.748 5.595 63.748-5.595v-15.883l13.333-30.707c2.766-6.371 4.194-13.242 4.194-20.187v-12.998l-9.42-13.375z" fill="#fed2a4"/><path d="m177.249 326.641-82.632-82.632c-8.624-8.624-22.044-10.145-32.008-3.855 1.764 1.073 3.438 2.341 4.951 3.855l82.632 82.632c9.394 9.394 14.671 22.134 14.671 35.419v16.562c0 6.945-1.427 13.817-4.194 20.187l-11.584 26.678c-1.154 2.657-1.749 5.523-1.749 8.42v17.087l27.057-5.595v-15.883l13.333-30.706c2.766-6.371 4.194-13.242 4.194-20.187v-16.562c0-13.286-5.277-26.027-14.671-35.42z" fill="#ffbd86"/><path d="m46.896 445.398h127.497v33.301h-127.497z" fill="#eaf6ff"/><path d="m147.336 445.398h27.057v33.301h-27.057z" fill="#d8ecfe"/></g></g><g><g><path d="m465.103 478.699-65.601-12.501-61.895 12.501v20.813c0 6.897 5.591 12.488 12.488 12.488h102.521c6.897 0 12.488-5.591 12.488-12.488v-20.813z" fill="#fd8087"/><path d="m438.047 469.952v29.56c0 6.897-5.591 12.488-12.488 12.488h27.057c6.897 0 12.488-5.591 12.488-12.488v-20.813z" fill="#fe646f"/><path d="m334.751 326.641 82.632-82.632c9.708-9.708 25.505-10.44 35.595-1.129 3.227 2.978 5.497 6.579 6.818 10.433v-131.471c0-14.416 11.686-26.102 26.102-26.102 14.416 0 26.102 11.686 26.102 26.102v183.733c0 14.324-3.901 28.377-11.283 40.651l-30.598 50.872c-3.281 5.455-5.015 11.701-5.015 18.067v30.233l-63.748 10.288-63.748-10.288v-15.883l-13.333-30.707c-2.766-6.371-4.194-13.242-4.194-20.187v-16.562c-.001-13.284 5.276-26.025 14.67-35.418z" fill="#fed2a4"/><path d="m485.898 95.74c-4.953 0-9.583 1.38-13.528 3.775 7.538 4.577 12.574 12.864 12.574 22.327v183.733c0 14.324-3.901 28.377-11.283 40.651l-30.598 50.872c-3.281 5.455-5.015 11.701-5.015 18.067v34.89l27.057-4.657v-30.233c0-6.366 1.734-12.612 5.015-18.067l30.598-50.872c7.381-12.275 11.282-26.328 11.282-40.651v-183.733c0-14.416-11.686-26.102-26.102-26.102z" fill="#ffbd86"/><path d="m337.607 445.398h127.497v33.301h-127.497z" fill="#eaf6ff"/><path d="m438.047 445.398h27.057v33.301h-27.057z" fill="#d8ecfe"/></g></g><g fill="#ffbd86"><path d="m58.27 279.543c-7.094-7.094-9.117-17.339-6.07-26.231l.003.001v-24.776c-6.764 4.869-11.924 11.912-14.621 19.764-5.103 14.887-1.363 31.044 9.76 42.168l47.954 47.954v14.004c0 4.267 3.459 7.726 7.726 7.726 4.267 0 7.726-3.459 7.726-7.726v-17.204c0-2.049-.814-4.014-2.263-5.463z"/><path d="m453.73 279.543c7.094-7.094 9.117-17.339 6.07-26.231l-.003.001v-24.776c6.764 4.869 11.924 11.912 14.621 19.764 5.103 14.887 1.363 31.044-9.76 42.168l-47.954 47.954v14.004c0 4.267-3.459 7.726-7.726 7.726-4.267 0-7.726-3.459-7.726-7.726v-17.204c0-2.049.814-4.014 2.263-5.463z"/></g></g></g><g/><g/><g/><g/><g/><g/><g/><g/><g/><g/><g/><g/><g/><g/><g/></svg>