<svg id="Capa_1" enable-background="new 0 0 512 512" height="512" viewBox="0 0 512 512" width="512" xmlns="http://www.w3.org/2000/svg"><g><path d="m127.5 467h257v15h-257z" fill="#999"/><path d="m414.5 512h-317c-3.034 0-5.768-1.827-6.929-4.63s-.519-6.028 1.626-8.173l90-90 10.606 10.606-77.197 77.197h280.787l-77.197-77.196 10.606-10.606 90 90c2.145 2.145 2.787 5.371 1.626 8.173-1.16 2.802-3.894 4.629-6.928 4.629z" fill="#808080"/><g fill="#353535"><path d="m444.5 157.5h-50v15h50v47c0 8.284 6.716 15 15 15s15-6.716 15-15v-32c0-16.569-13.431-30-30-30z"/><path d="m117.5 157.5h-50c-16.569 0-30 13.431-30 30v32c0 8.284 6.716 15 15 15s15-6.716 15-15v-47h50z"/><path d="m384.5 97.5h-30l-83.5 90h128.5z"/></g><path d="m354.5 97.5h-227l-15 90h242z" fill="#4f4f4f"/><path d="m354.5 157.5-83.5 207h128.5v-207z" fill="#4f4f4f"/><path d="m112.5 157.5h242v207h-242z" fill="#696969"/><path d="m384.5 97.5v267l30-40v-197c0-16.569-13.431-30-30-30z" fill="#696969"/><path d="m97.5 127.5v197l30 40v-267c-16.569 0-30 13.431-30 30z" fill="#808080"/><path d="m354.5 384.5 30 60h22.5c4.142 0 7.5-3.358 7.5-7.5v-22.5z" fill="#405acc"/><path d="m97.5 414.5v22.5c0 4.142 3.358 7.5 7.5 7.5h279.5v-60z" fill="#4271db"/><path d="m414.5 324.5h-30l-30 45 30 45h30z" fill="#ccc"/><path d="m323.076 324.5c-16.48-18.41-40.422-30-67.076-30s-50.596 11.59-67.076 30h-91.424v90h287v-90z" fill="#ebebeb"/><circle cx="142.5" cy="369.5" fill="#ff9a42" r="15"/><circle cx="369.5" cy="369.5" fill="#ff9a42" r="15"/><circle cx="187.5" cy="384.5" fill="#ff5a35" r="7.5"/><circle cx="324.5" cy="384.5" fill="#ff5a35" r="7.5"/><circle cx="256" cy="127.5" fill="#ffd185" r="7.5"/><circle cx="286" cy="127.5" fill="#ffba48" r="7.5"/><circle cx="226" cy="127.5" fill="#ffba48" r="7.5"/><path d="m271 75h-30c-2.841 0-5.438-1.605-6.708-4.146l-30-60 13.416-6.708 27.927 55.854h20.729l27.927-55.854 13.416 6.708-30 60c-1.269 2.541-3.866 4.146-6.707 4.146z" fill="#4f4f4f"/><path d="m354.5 45c-4.142 0-7.5-3.358-7.5-7.5 0-12.407-10.093-22.5-22.5-22.5h-137c-12.407 0-22.5 10.093-22.5 22.5 0 4.142-3.358 7.5-7.5 7.5s-7.5-3.358-7.5-7.5c0-20.678 16.822-37.5 37.5-37.5h137c20.678 0 37.5 16.822 37.5 37.5 0 4.142-3.358 7.5-7.5 7.5z" fill="#353535"/></g></svg>