<svg id="Capa_1" enable-background="new 0 0 512 512" viewBox="0 0 512 512" xmlns="http://www.w3.org/2000/svg"><g><path d="m240.106 97.38c-4.267 0-7.726-3.459-7.726-7.726v-26.144c0-.689-.561-1.25-1.25-1.25h-29.275c-.689 0-1.25.561-1.25 1.25v26.143c0 4.267-3.459 7.726-7.726 7.726s-7.726-3.459-7.726-7.726v-26.143c0-9.21 7.493-16.703 16.703-16.703h29.275c9.21 0 16.703 7.493 16.703 16.703v26.143c-.002 4.268-3.461 7.727-7.728 7.727z" fill="#7a8c98"/><path d="m153.035 93.96v104.974h126.913v-104.974c0-4.654-3.773-8.427-8.427-8.427h-110.059c-4.654 0-8.427 3.773-8.427 8.427z" fill="#ce9874"/><path d="m271.521 85.533h-26.378c4.654 0 8.427 3.773 8.427 8.427v81.311h26.378v-81.311c0-4.654-3.773-8.427-8.427-8.427z" fill="#c6875e"/><path d="m98.939 122.294v14.936l10.302 6.942-10.302 8.511v32.89h108.193v-32.89l-4.121-7.726 4.121-7.726v-14.936c0-4.227-3.426-7.653-7.653-7.653h-92.887c-4.227-.001-7.653 3.425-7.653 7.652z" fill="#ccf49e"/><path d="m98.939 137.23h108.193v15.453h-108.193z" fill="#faf6f6"/><path d="m498.934 338.663 13.066 16.569v29.78l-14.029 19.37c0 7.479-5.509 11.925-12.988 11.925l-445.929-6.254c-7.479 0-20.851-3.291-20.851-10.77l-18.203-14.271v-38.323l5.151-16.403-5.151-24.498v-7.974c0-11.445 5.47-22.2 14.721-28.938l11.414-8.324c1.236-.896 2.339-1.947 3.286-3.132l183.285-20.604 175.62 20.604c1.968 1.545 4.172 2.792 6.562 3.678l93.293 34.913c11.678 4.369 20.15 14.281 22.878 26.082.618 2.669-12.125 13.75-12.125 16.57z" fill="#90d8f9"/><path d="m512 355.231-16.619-17.968c0-2.822 16.296-12.5 15.679-15.17-2.727-11.803-11.196-21.714-22.879-26.085l-93.297-34.908c-2.373-.888-4.576-2.129-6.543-3.667l-45.797-10.162 6.006 11.205c4.461 8.324 11.757 14.773 20.564 18.181l85.128 32.934c13.588 5.257 22.545 18.327 22.545 32.896v67.733l23.607 6.803c7.473 0 4.139-6.979 4.139-14.452l7.467-17.559z" fill="#75cef8"/><path d="m388.355 257.416c-2.495-1.95-4.623-4.36-6.221-7.148l-18.736-32.702c-14.988-26.159-42.83-42.295-72.978-42.295h-201.189c-12.079 0-23.09 6.92-28.329 17.804l-29.353 60.982c-.58 1.205-1.307 2.326-2.141 3.359z" fill="#7a8c98"/><path d="m314.84 195.582 33.142 61.834h40.374c-2.495-1.95-4.623-4.36-6.221-7.148l-18.736-32.702c-14.988-26.159-42.83-42.295-72.978-42.295h-9.512c14.189 0 27.228 7.805 33.931 20.311z" fill="#596c76"/><path d="m0 385.012v25.208c0 7.473 6.058 13.532 13.532 13.532h484.937c7.473 0 13.532-6.058 13.532-13.532v-25.208z" fill="#faf6f6"/><path d="m512 410.219v-25.208h-35.212v25.208c0 7.473-6.058 13.532-13.532 13.532h35.212c7.474 0 13.532-6.058 13.532-13.532z" fill="#e5e1e5"/><ellipse cx="107.488" cy="412.679" fill="#7a8c98" rx="52.514" ry="52.514" transform="matrix(.957 -.29 .29 .957 -114.976 48.856)"/><ellipse cx="107.488" cy="412.678" fill="#faf6f6" rx="17.883" ry="17.883" transform="matrix(.957 -.29 .29 .957 -114.975 48.856)"/><ellipse cx="392.958" cy="412.679" fill="#7a8c98" rx="52.514" ry="52.514" transform="matrix(.957 -.29 .29 .957 -102.727 131.58)"/><ellipse cx="392.958" cy="412.678" fill="#faf6f6" rx="17.883" ry="17.883" transform="matrix(.957 -.29 .29 .957 -102.727 131.58)"/><path d="m130.122 175.274v118.069c0 4.265 3.461 7.726 7.726 7.726s7.726-3.461 7.726-7.726v-118.069zm115.72 0v118.069c0 4.265 3.461 7.726 7.726 7.726s7.726-3.461 7.726-7.726v-118.069z" fill="#90d8f9"/><path d="m0 305.788v40.901h17.739c10.31 0 18.668-8.358 18.668-18.668v-13.968c0-4.564-3.7-8.264-8.264-8.264h-28.143z" fill="#f07281"/><path d="m437.349 335.258 7.916 9.153c5.943 6.871 14.579 10.82 23.664 10.82h43.071v-24.879c0-2.822-.328-5.588-.945-8.258h-67.687c-6.815 0-10.477 8.009-6.019 13.164z" fill="#fed402"/><path d="m512 355.232v-24.879c0-2.822-.328-5.588-.945-8.258h-40.78c4.137 5.836 6.512 12.911 6.512 20.392v12.745z" fill="#fdb441"/></g><g/><g/><g/><g/><g/><g/><g/><g/><g/><g/><g/><g/><g/><g/><g/></svg>