<svg id="Capa_1" enable-background="new 0 0 512 512" height="512" viewBox="0 0 512 512" width="512" xmlns="http://www.w3.org/2000/svg"><g><g><g><g><path d="m136.035 121.232c-3.302 0-6.356-2.13-7.389-5.438-.147-.446-2.694-7.828-10.365-10.854-7.813-3.082-19.034-.804-32.445 6.59-25.298 13.948-40.207 5.936-45.442 1.842-8.328-6.511-11.904-17.496-9.112-27.986 3.35-12.582 14.594-21.427 30.078-23.659 30.227-4.357 55.197-16.211 63.615-30.2 3.89-6.463 4.424-13.389 1.635-21.17-1.443-4.026.65-8.459 4.675-9.902 4.028-1.442 8.459.65 9.902 4.675 4.334 12.09 3.316 23.979-2.943 34.381-16.372 27.208-61.296 35.614-74.675 37.542-9.281 1.338-15.595 5.826-17.322 12.316-1.213 4.554.2 9.077 3.685 11.802 5.855 4.579 16.483 3.38 28.427-3.204 18.003-9.925 33.459-12.383 45.938-7.301 14.579 5.937 18.972 19.984 19.152 20.579 1.237 4.093-1.078 8.415-5.172 9.652-.746.228-1.5.335-2.242.335z" fill="#0979cc"/></g><path d="m176.79 140.166-55.273 19.816-9.632-26.868c-1.924-5.367.867-11.278 6.234-13.202l35.836-12.848c5.367-1.924 11.278.867 13.202 6.234z" fill="#1785f8"/><g><g><circle cx="177.625" cy="229.491" fill="#31a7fb" r="97.129"/><path d="m269.054 196.709c18.103 50.496-8.152 106.113-58.648 124.216-9.786 3.508-19.754 5.349-29.608 5.669 47.924-17.323 72.82-70.184 55.613-118.182s-70.015-72.99-118.029-55.92c7.813-6.014 16.68-10.926 26.466-14.434 50.495-18.103 106.103 8.155 124.206 58.651z" fill="#1c96f9"/></g><g><circle cx="177.625" cy="229.491" fill="#eaf6ff" r="67.88"/><path d="m200.533 293.391c-17.344 6.215-35.545 4.945-51.082-2.147 10.221 1.724 20.999.919 31.446-2.829 32.551-11.666 49.472-47.5 37.806-80.051-10.386-28.969-39.933-45.569-69.252-40.624 1.714-.785 3.469-1.497 5.265-2.147 35.287-12.647 74.156 5.699 86.803 40.996 12.656 35.286-5.699 74.145-40.986 86.802z" fill="#c4e1ff"/></g></g></g><g><path d="m176.363 233.714c-3.177 0-6.156-1.969-7.289-5.132l-12.375-34.516c-1.443-4.026.65-8.459 4.675-9.902 4.027-1.443 8.459.651 9.902 4.675l12.375 34.516c1.443 4.026-.65 8.459-4.675 9.902-.863.31-1.746.457-2.613.457z" fill="#31a7fb"/></g></g><g><g><path d="m216.73 51.283c40.62-47.283 116.094-17.75 126.232-13.691v93.099l-126.22 24.666c0 .001-32.9-65.792-.012-104.074z" fill="#6c3328"/></g><g><g><g><g><g><g><path d="m181.7 512h319.154c6.665 0 11.584-6.222 10.045-12.707l-21.297-89.771c-8.803-37.114-39.23-65.191-76.935-70.991l-8.609-1.323h-158.479l-8.609 1.323c-21.775 3.35-41.112 14.141-55.269 29.8v143.669z" fill="#fcb44d"/><path d="m295.1 337.208v45.588c0 3.365-3.164 5.82-6.427 4.997-14.102-3.556-32.098 3.761-42.563 9.059-3.735 1.893-7.999-1.272-7.307-5.404 4.702-28.352 16.649-45.336 25.187-54.241h31.11z" fill="#fb9927"/><path d="m403.473 396.853c-10.465-5.298-28.461-12.616-42.563-9.059-3.263.823-6.427-1.632-6.427-4.997v-45.588h31.12c8.528 8.904 20.475 25.889 25.187 54.241.681 4.13-3.583 7.295-7.317 5.403z" fill="#fb9927"/><g><path d="m295.102 337.208h59.381v174.792h-59.381z" fill="#ffd496"/></g><path d="m500.851 512h-19.71l-24.301-102.478c-8.813-37.114-39.241-65.191-76.945-70.991l-8.599-1.323h32.769l8.599 1.323c37.704 5.801 68.132 33.878 76.945 70.991l21.289 89.772c1.536 6.485-3.382 12.706-10.047 12.706z" fill="#fb9927"/><g><g><path d="m368.327 323.862c-11.177-6.176-18.021-18.033-18.021-30.802v-22.126h-50.971v22.122c0 12.955-7.103 24.834-18.468 31.052v2.107c0 24.151 19.578 43.73 43.73 43.73 24.151 0 43.73-19.578 43.73-43.73z" fill="#fda79b"/><g><path d="m357.537 314.545c-10.166 2.961-21.106 4.488-32.717 4.488-11.632 0-22.592-1.526-32.768-4.508 4.64-6.065 7.286-13.565 7.286-21.472v-22.114h50.964v22.124c-.001 7.886 2.614 15.417 7.235 21.482z" fill="#fc9085"/></g></g></g><g><g><path d="m443.721 431.111v80.887h-15.486v-80.887c0-4.274 3.469-7.743 7.743-7.743 4.285 0 7.743 3.469 7.743 7.743z" fill="#fb9927"/></g></g></g><g><g fill="#873f30"><path d="m223.973 183.27h.12c.11.68.08.72-.12 0z"/><path d="m425.667 183.27c-.14.53-.16.51-.09 0z"/><path d="m197.632 183.27h.12c.11.68.08.72-.12 0z"/><path d="m399.236 183.27h.09c-.14.53-.16.51-.09 0z"/></g><g><g><g fill="#f49e95"><ellipse cx="424.296" cy="165.888" rx="32.871" ry="28.012" transform="matrix(.338 -.941 .941 .338 124.952 509.31)"/><ellipse cx="225.342" cy="165.888" rx="28.012" ry="32.871" transform="matrix(.941 -.338 .338 .941 -42.763 85.779)"/></g></g><path d="m273.198 94.573c-19.948 0-36.12 16.171-36.12 36.12v58.084s0 104.817 87.741 104.817 87.741-104.817 87.741-104.817v-58.084c0-19.948-16.171-36.12-36.12-36.12z" fill="#fcb3a9"/><g><path d="m412.56 130.749v32.06h-78.443c-6.826 0-11.769-6.453-10.073-13.062 6.288-24.603-.362-44.956-5.068-55.174h57.407c19.982 0 36.177 16.196 36.177 36.176z" fill="#fda79b"/></g></g><g><path d="m324.819 250.953c-13.747 0-24.892-11.144-24.892-24.892v-2.92c0-2.851 2.311-5.162 5.162-5.162h39.459c2.851 0 5.162 2.311 5.162 5.162v2.92c.001 13.747-11.144 24.892-24.891 24.892z" fill="#f8f3f1"/></g><g><g><path d="m355.47 174.634c-2.394 0-4.756-1.107-6.271-3.193-2.513-3.46-1.745-8.302 1.715-10.815 4.768-3.463 10.869-5.371 17.179-5.371 6.311 0 12.412 1.907 17.18 5.371 3.46 2.514 4.226 7.356 1.713 10.815-2.513 3.462-7.357 4.226-10.815 1.713-2.142-1.557-5.012-2.414-8.078-2.414s-5.934.857-8.079 2.415c-1.374.998-2.966 1.479-4.544 1.479z" fill="#fc9085"/></g><g><path d="m268.919 174.634c-2.394 0-4.756-1.107-6.271-3.193-2.513-3.46-1.745-8.302 1.715-10.815 4.768-3.463 10.869-5.371 17.179-5.371 6.311 0 12.412 1.907 17.18 5.371 3.46 2.514 4.226 7.356 1.713 10.815-2.512 3.462-7.357 4.226-10.815 1.713-2.142-1.557-5.012-2.414-8.078-2.414s-5.934.857-8.079 2.415c-1.374.998-2.966 1.479-4.544 1.479z" fill="#fc9085"/></g></g></g></g><g><path d="m327.799 200.304h-5.958c-4.277 0-7.743-3.467-7.743-7.743s3.466-7.743 7.743-7.743h5.958c4.277 0 7.743 3.467 7.743 7.743 0 4.277-3.467 7.743-7.743 7.743z" fill="#fc9085"/></g></g></g><g fill="#fee7c9"><path d="m295.102 361.486v-46.767c0-2.606-1.968-4.79-4.56-5.061l-9.08-.948c-5.809-.606-11.58 1.395-15.765 5.469-8.575 8.349-21.867 25.674-26.899 55.978-.684 4.119 3.575 7.283 7.3 5.397 10.475-5.305 28.496-12.639 42.607-9.063 3.249.824 6.397-1.653 6.397-5.005z"/><path d="m354.485 361.486v-46.767c0-2.606 1.968-4.79 4.56-5.061l9.08-.948c5.809-.606 11.58 1.395 15.765 5.469 8.575 8.349 21.867 25.674 26.899 55.978.684 4.119-3.575 7.283-7.3 5.397-10.475-5.305-28.496-12.639-42.607-9.063-3.249.824-6.397-1.653-6.397-5.005z"/></g></g><g><g><g><path d="m357.293 511.996h-113.4v-32.446h113.4c5.62 0 10.176 4.556 10.176 10.176v12.093c.001 5.621-4.555 10.177-10.176 10.177z" fill="#8dcafc"/><path d="m367.47 489.724v12.1c0 5.617-4.559 10.176-10.176 10.176h-25.248c5.628 0 10.176-4.559 10.176-10.176v-12.1c0-5.617-4.549-10.176-10.176-10.176h25.248c5.617-.001 10.176 4.558 10.176 10.176z" fill="#64b9fc"/></g><path d="m264.362 511.996h-211.466c-9.142 0-17.03-6.414-18.893-15.364l-32.979-158.374c-1.248-5.992 3.326-11.616 9.447-11.616h211.466c9.142 0 17.03 6.414 18.893 15.364l32.979 158.374c1.248 5.992-3.326 11.616-9.447 11.616z" fill="#d9ecfd"/><path d="m264.361 512h-33.928c6.116 0 10.695-5.628 9.444-11.621l-32.982-158.376c-1.862-8.945-9.749-15.356-18.888-15.356h33.928c9.138 0 17.035 6.411 18.898 15.356l32.972 158.376c1.251 5.993-3.318 11.621-9.444 11.621z" fill="#c4e1ff"/></g></g></g><g><g><path d="m334.244 138.565h80.9c8.821 0 16.694-5.553 19.619-13.875 4.298-12.226 6.721-29.892 2.848-54.817-10.089-64.911-96.748-83.674-144.28-53.522-18.94 12.023-24.816 32.596-25.024 53.023h50.319c4.705 9.807 12.069 30.705 5.563 56.157-1.687 6.6 3.243 13.034 10.055 13.034z" fill="#6c3328"/></g><g><path d="m434.761 124.685c-2.923 8.331-10.796 13.885-19.616 13.885h-29.112c8.82 0 16.693-5.554 19.616-13.885 4.295-12.221 6.719-29.881 2.85-54.812-6.137-39.513-40.667-61.937-77.465-66.607 45.722-5.96 98.818 16.662 106.577 66.607 3.869 24.931 1.446 42.591-2.85 54.812z" fill="#54231d"/></g><g><g><path d="m282.793 24.785c-9.095 9.261-13.782 22.847-13.968 40.542-.041 4.243-3.5 7.66-7.743 7.66h-.082c-4.274-.041-7.702-3.541-7.66-7.825.155-15.341 3.2-28.339 9.106-38.9 6.802-1.167 13.657-1.591 20.347-1.477z" fill="#471b18"/></g><g><path d="m326.37 94.574h-15.661c-1.466-8.486-4.13-15.3-6.287-19.791-1.848-3.851-.227-8.476 3.624-10.324 3.861-1.848 8.486-.227 10.334 3.634 2.818 5.875 6.359 15.032 7.99 26.481z" fill="#471b18"/></g></g></g><g><path d="m405.73 138.564h-17.014c9.539-18.789 11.201-38.962 4.935-60.023-5.11-17.189-13.844-28.587-13.927-28.7-2.612-3.376-2.013-8.238 1.363-10.861 3.365-2.622 8.218-2.034 10.84 1.332.423.537 10.386 13.411 16.394 33.222 6.762 22.289 5.833 44.527-2.591 65.03z" fill="#471b18"/></g><g><path d="m368.025 116.464c-.668 0-1.348-.087-2.023-.27-4.129-1.115-6.571-5.366-5.456-9.494 1.937-7.172.539-20.531-.162-25.073-.653-4.225 2.241-8.181 6.465-8.836 4.228-.653 8.18 2.236 8.838 6.459.311 1.999 2.948 19.867-.191 31.488-.933 3.452-4.058 5.726-7.471 5.726z" fill="#471b18"/></g></g></g></svg>